<ttFont>
    <TTGlyph name=".notdef" xMin="0" yMin="0" xMax="500" yMax="700">
      <contour>
        <pt x="500" y="0" on="1"/>
        <pt x="0" y="0" on="1"/>
        <pt x="0" y="700" on="1"/>
        <pt x="500" y="700" on="1"/>
      </contour>
      <contour>
        <pt x="50" y="605" on="1"/>
        <pt x="50" y="95" on="1"/>
        <pt x="220" y="350" on="1"/>
      </contour>
      <contour>
        <pt x="250" y="305" on="1"/>
        <pt x="80" y="50" on="1"/>
        <pt x="420" y="50" on="1"/>
      </contour>
      <contour>
        <pt x="420" y="650" on="1"/>
        <pt x="80" y="650" on="1"/>
        <pt x="250" y="395" on="1"/>
      </contour>
      <contour>
        <pt x="450" y="605" on="1"/>
        <pt x="280" y="350" on="1"/>
        <pt x="450" y="95" on="1"/>
      </contour>
    </TTGlyph>
    <TTGlyph name="A" xMin="-36" yMin="0" xMax="607" yMax="686">
      <contour>
        <pt x="58" y="0" on="1"/>
        <pt x="-36" y="0" on="1"/>
        <pt x="328" y="686" on="1"/>
        <pt x="436" y="686" on="1"/>
        <pt x="607" y="0" on="1"/>
        <pt x="501" y="0" on="1"/>
        <pt x="464" y="149" on="1"/>
        <pt x="136" y="149" on="1"/>
      </contour>
      <contour>
        <pt x="357" y="568" on="1"/>
        <pt x="184" y="238" on="1"/>
        <pt x="443" y="238" on="1"/>
        <pt x="363" y="568" on="1"/>
      </contour>
    </TTGlyph>
    <TTGlyph name="AE" xMin="-33" yMin="0" xMax="987" yMax="686">
      <contour>
        <pt x="59" y="0" on="1"/>
        <pt x="-33" y="0" on="1"/>
        <pt x="426" y="686" on="1"/>
        <pt x="987" y="686" on="1"/>
        <pt x="961" y="597" on="1"/>
        <pt x="543" y="597" on="1"/>
        <pt x="565" y="395" on="1"/>
        <pt x="901" y="395" on="1"/>
        <pt x="888" y="306" on="1"/>
        <pt x="574" y="306" on="1"/>
        <pt x="598" y="89" on="1"/>
        <pt x="896" y="89" on="1"/>
        <pt x="896" y="0" on="1"/>
        <pt x="502" y="0" on="1"/>
        <pt x="486" y="149" on="1"/>
        <pt x="158" y="149" on="1"/>
      </contour>
      <contour>
        <pt x="438" y="568" on="1"/>
        <pt x="219" y="238" on="1"/>
        <pt x="478" y="238" on="1"/>
        <pt x="444" y="568" on="1"/>
      </contour>
    </TTGlyph>
    <TTGlyph name="Aacute" xMin="-36" yMin="0" xMax="607" yMax="895">
      <contour>
        <pt x="58" y="0" on="1"/>
        <pt x="-36" y="0" on="1"/>
        <pt x="328" y="686" on="1"/>
        <pt x="436" y="686" on="1"/>
        <pt x="607" y="0" on="1"/>
        <pt x="501" y="0" on="1"/>
        <pt x="464" y="149" on="1"/>
        <pt x="136" y="149" on="1"/>
      </contour>
      <contour>
        <pt x="357" y="568" on="1"/>
        <pt x="184" y="238" on="1"/>
        <pt x="443" y="238" on="1"/>
        <pt x="363" y="568" on="1"/>
      </contour>
      <contour>
        <pt x="419" y="750" on="1"/>
        <pt x="350" y="750" on="1"/>
        <pt x="465" y="895" on="1"/>
        <pt x="555" y="895" on="1"/>
        <pt x="555" y="891" on="1"/>
      </contour>
    </TTGlyph>
    <TTGlyph name="Acircumflex" xMin="-36" yMin="0" xMax="607" yMax="895">
      <contour>
        <pt x="58" y="0" on="1"/>
        <pt x="-36" y="0" on="1"/>
        <pt x="328" y="686" on="1"/>
        <pt x="436" y="686" on="1"/>
        <pt x="607" y="0" on="1"/>
        <pt x="501" y="0" on="1"/>
        <pt x="464" y="149" on="1"/>
        <pt x="136" y="149" on="1"/>
      </contour>
      <contour>
        <pt x="357" y="568" on="1"/>
        <pt x="184" y="238" on="1"/>
        <pt x="443" y="238" on="1"/>
        <pt x="363" y="568" on="1"/>
      </contour>
      <contour>
        <pt x="283" y="750" on="1"/>
        <pt x="203" y="750" on="1"/>
        <pt x="360" y="895" on="1"/>
        <pt x="438" y="895" on="1"/>
        <pt x="552" y="750" on="1"/>
        <pt x="472" y="750" on="1"/>
        <pt x="391" y="839" on="1"/>
      </contour>
    </TTGlyph>
    <TTGlyph name="Adieresis" xMin="-36" yMin="0" xMax="607" yMax="848">
      <contour>
        <pt x="58" y="0" on="1"/>
        <pt x="-36" y="0" on="1"/>
        <pt x="328" y="686" on="1"/>
        <pt x="436" y="686" on="1"/>
        <pt x="607" y="0" on="1"/>
        <pt x="501" y="0" on="1"/>
        <pt x="464" y="149" on="1"/>
        <pt x="136" y="149" on="1"/>
      </contour>
      <contour>
        <pt x="357" y="568" on="1"/>
        <pt x="184" y="238" on="1"/>
        <pt x="443" y="238" on="1"/>
        <pt x="363" y="568" on="1"/>
      </contour>
      <contour>
        <pt x="336" y="750" on="1"/>
        <pt x="246" y="750" on="1"/>
        <pt x="259" y="848" on="1"/>
        <pt x="349" y="848" on="1"/>
      </contour>
      <contour>
        <pt x="525" y="750" on="1"/>
        <pt x="434" y="750" on="1"/>
        <pt x="447" y="848" on="1"/>
        <pt x="538" y="848" on="1"/>
      </contour>
    </TTGlyph>
    <TTGlyph name="Agrave" xMin="-36" yMin="0" xMax="607" yMax="895">
      <contour>
        <pt x="58" y="0" on="1"/>
        <pt x="-36" y="0" on="1"/>
        <pt x="328" y="686" on="1"/>
        <pt x="436" y="686" on="1"/>
        <pt x="607" y="0" on="1"/>
        <pt x="501" y="0" on="1"/>
        <pt x="464" y="149" on="1"/>
        <pt x="136" y="149" on="1"/>
      </contour>
      <contour>
        <pt x="357" y="568" on="1"/>
        <pt x="184" y="238" on="1"/>
        <pt x="443" y="238" on="1"/>
        <pt x="363" y="568" on="1"/>
      </contour>
      <contour>
        <pt x="351" y="750" on="1"/>
        <pt x="256" y="892" on="1"/>
        <pt x="258" y="895" on="1"/>
        <pt x="347" y="895" on="1"/>
        <pt x="421" y="750" on="1"/>
      </contour>
    </TTGlyph>
    <TTGlyph name="Aring" xMin="-36" yMin="0" xMax="607" yMax="922">
      <contour>
        <pt x="58" y="0" on="1"/>
        <pt x="-36" y="0" on="1"/>
        <pt x="328" y="686" on="1"/>
        <pt x="436" y="686" on="1"/>
        <pt x="607" y="0" on="1"/>
        <pt x="501" y="0" on="1"/>
        <pt x="464" y="149" on="1"/>
        <pt x="136" y="149" on="1"/>
      </contour>
      <contour>
        <pt x="357" y="568" on="1"/>
        <pt x="184" y="238" on="1"/>
        <pt x="443" y="238" on="1"/>
        <pt x="363" y="568" on="1"/>
      </contour>
      <contour>
        <pt x="345" y="720" on="0"/>
        <pt x="291" y="772" on="0"/>
        <pt x="291" y="860" on="0"/>
        <pt x="357" y="922" on="0"/>
        <pt x="442" y="922" on="0"/>
        <pt x="496" y="869" on="0"/>
        <pt x="496" y="784" on="0"/>
        <pt x="430" y="720" on="0"/>
      </contour>
      <contour>
        <pt x="372" y="881" on="0"/>
        <pt x="336" y="844" on="0"/>
        <pt x="336" y="793" on="0"/>
        <pt x="366" y="761" on="0"/>
        <pt x="414" y="761" on="0"/>
        <pt x="451" y="799" on="0"/>
        <pt x="451" y="849" on="0"/>
        <pt x="421" y="881" on="0"/>
      </contour>
    </TTGlyph>
    <TTGlyph name="Atilde" xMin="-36" yMin="0" xMax="607" yMax="854">
      <contour>
        <pt x="58" y="0" on="1"/>
        <pt x="-36" y="0" on="1"/>
        <pt x="328" y="686" on="1"/>
        <pt x="436" y="686" on="1"/>
        <pt x="607" y="0" on="1"/>
        <pt x="501" y="0" on="1"/>
        <pt x="464" y="149" on="1"/>
        <pt x="136" y="149" on="1"/>
      </contour>
      <contour>
        <pt x="357" y="568" on="1"/>
        <pt x="184" y="238" on="1"/>
        <pt x="443" y="238" on="1"/>
        <pt x="363" y="568" on="1"/>
      </contour>
      <contour>
        <pt x="235" y="750" on="1"/>
        <pt x="187" y="750" on="1"/>
        <pt x="194" y="790" on="0"/>
        <pt x="260" y="854" on="0"/>
        <pt x="313" y="854" on="1"/>
        <pt x="346" y="854" on="0"/>
        <pt x="451" y="819" on="0"/>
        <pt x="476" y="819" on="1"/>
        <pt x="521" y="819" on="0"/>
        <pt x="536" y="854" on="1"/>
        <pt x="586" y="854" on="1"/>
        <pt x="579" y="813" on="0"/>
        <pt x="513" y="750" on="0"/>
        <pt x="459" y="750" on="1"/>
        <pt x="426" y="750" on="0"/>
        <pt x="321" y="784" on="0"/>
        <pt x="295" y="784" on="1"/>
        <pt x="250" y="784" on="0"/>
      </contour>
    </TTGlyph>
    <TTGlyph name="B" xMin="51" yMin="0" xMax="609" yMax="686">
      <contour>
        <pt x="361" y="0" on="1"/>
        <pt x="51" y="0" on="1"/>
        <pt x="148" y="686" on="1"/>
        <pt x="440" y="686" on="1"/>
        <pt x="514" y="686" on="0"/>
        <pt x="609" y="607" on="0"/>
        <pt x="609" y="461" on="0"/>
        <pt x="523" y="373" on="0"/>
        <pt x="466" y="358" on="1"/>
        <pt x="465" y="353" on="1"/>
        <pt x="509" y="345" on="0"/>
        <pt x="579" y="280" on="0"/>
        <pt x="579" y="214" on="1"/>
        <pt x="579" y="117" on="0"/>
        <pt x="452" y="0" on="0"/>
      </contour>
      <contour>
        <pt x="192" y="305" on="1"/>
        <pt x="162" y="89" on="1"/>
        <pt x="358" y="89" on="1"/>
        <pt x="410" y="89" on="0"/>
        <pt x="482" y="153" on="0"/>
        <pt x="482" y="212" on="1"/>
        <pt x="482" y="252" on="0"/>
        <pt x="430" y="305" on="0"/>
        <pt x="388" y="305" on="1"/>
      </contour>
      <contour>
        <pt x="233" y="597" on="1"/>
        <pt x="205" y="394" on="1"/>
        <pt x="391" y="394" on="1"/>
        <pt x="437" y="394" on="0"/>
        <pt x="508" y="463" on="0"/>
        <pt x="508" y="509" on="1"/>
        <pt x="508" y="597" on="0"/>
        <pt x="419" y="597" on="1"/>
      </contour>
    </TTGlyph>
    <TTGlyph name="C" xMin="57" yMin="-10" xMax="631" yMax="696">
      <contour>
        <pt x="57" y="232" on="1"/>
        <pt x="57" y="261" on="0"/>
        <pt x="75" y="388" on="1"/>
        <pt x="98" y="542" on="0"/>
        <pt x="266" y="696" on="0"/>
        <pt x="400" y="696" on="1"/>
        <pt x="504" y="696" on="0"/>
        <pt x="631" y="584" on="0"/>
        <pt x="631" y="477" on="1"/>
        <pt x="631" y="448" on="0"/>
        <pt x="627" y="423" on="1"/>
        <pt x="529" y="423" on="1"/>
        <pt x="532" y="445" on="0"/>
        <pt x="532" y="466" on="1"/>
        <pt x="532" y="537" on="0"/>
        <pt x="455" y="607" on="0"/>
        <pt x="388" y="607" on="1"/>
        <pt x="302" y="607" on="0"/>
        <pt x="189" y="500" on="0"/>
        <pt x="156" y="272" on="0"/>
        <pt x="156" y="241" on="1"/>
        <pt x="156" y="79" on="0"/>
        <pt x="313" y="79" on="1"/>
        <pt x="391" y="79" on="0"/>
        <pt x="497" y="170" on="0"/>
        <pt x="510" y="261" on="1"/>
        <pt x="604" y="261" on="1"/>
        <pt x="584" y="125" on="0"/>
        <pt x="424" y="-10" on="0"/>
        <pt x="189" y="-10" on="0"/>
        <pt x="57" y="113" on="0"/>
      </contour>
    </TTGlyph>
    <TTGlyph name="Ccedilla" xMin="57" yMin="-197" xMax="631" yMax="696">
      <contour>
        <pt x="57" y="232" on="1"/>
        <pt x="57" y="261" on="0"/>
        <pt x="75" y="388" on="1"/>
        <pt x="98" y="542" on="0"/>
        <pt x="266" y="696" on="0"/>
        <pt x="400" y="696" on="1"/>
        <pt x="504" y="696" on="0"/>
        <pt x="631" y="584" on="0"/>
        <pt x="631" y="477" on="1"/>
        <pt x="631" y="448" on="0"/>
        <pt x="627" y="423" on="1"/>
        <pt x="529" y="423" on="1"/>
        <pt x="532" y="445" on="0"/>
        <pt x="532" y="466" on="1"/>
        <pt x="532" y="537" on="0"/>
        <pt x="455" y="607" on="0"/>
        <pt x="388" y="607" on="1"/>
        <pt x="302" y="607" on="0"/>
        <pt x="189" y="500" on="0"/>
        <pt x="156" y="272" on="0"/>
        <pt x="156" y="241" on="1"/>
        <pt x="156" y="79" on="0"/>
        <pt x="313" y="79" on="1"/>
        <pt x="391" y="79" on="0"/>
        <pt x="497" y="170" on="0"/>
        <pt x="510" y="261" on="1"/>
        <pt x="604" y="261" on="1"/>
        <pt x="584" y="125" on="0"/>
        <pt x="424" y="-10" on="0"/>
        <pt x="189" y="-10" on="0"/>
        <pt x="57" y="113" on="0"/>
      </contour>
      <contour>
        <pt x="162" y="-175" on="1"/>
        <pt x="178" y="-126" on="1"/>
        <pt x="214" y="-146" on="0"/>
        <pt x="248" y="-146" on="1"/>
        <pt x="320" y="-146" on="0"/>
        <pt x="320" y="-95" on="1"/>
        <pt x="320" y="-60" on="0"/>
        <pt x="274" y="-60" on="1"/>
        <pt x="253" y="-60" on="1"/>
        <pt x="259" y="-17" on="1"/>
        <pt x="283" y="-17" on="1"/>
        <pt x="383" y="-17" on="0"/>
        <pt x="383" y="-90" on="1"/>
        <pt x="383" y="-130" on="0"/>
        <pt x="359" y="-156" on="1"/>
        <pt x="320" y="-197" on="0"/>
        <pt x="199" y="-197" on="0"/>
      </contour>
    </TTGlyph>
    <TTGlyph name="D" xMin="51" yMin="0" xMax="631" yMax="686">
      <contour>
        <pt x="289" y="0" on="1"/>
        <pt x="51" y="0" on="1"/>
        <pt x="148" y="686" on="1"/>
        <pt x="386" y="686" on="1"/>
        <pt x="496" y="686" on="0"/>
        <pt x="631" y="561" on="0"/>
        <pt x="631" y="442" on="1"/>
        <pt x="631" y="419" on="0"/>
        <pt x="618" y="308" on="1"/>
        <pt x="600" y="155" on="0"/>
        <pt x="428" y="0" on="0"/>
      </contour>
      <contour>
        <pt x="233" y="597" on="1"/>
        <pt x="162" y="89" on="1"/>
        <pt x="302" y="89" on="1"/>
        <pt x="387" y="89" on="0"/>
        <pt x="504" y="196" on="0"/>
        <pt x="532" y="413" on="0"/>
        <pt x="532" y="432" on="1"/>
        <pt x="532" y="516" on="0"/>
        <pt x="447" y="597" on="0"/>
        <pt x="373" y="597" on="1"/>
      </contour>
    </TTGlyph>
    <TTGlyph name="E" xMin="51" yMin="0" xMax="598" yMax="686">
      <contour>
        <pt x="507" y="0" on="1"/>
        <pt x="51" y="0" on="1"/>
        <pt x="148" y="686" on="1"/>
        <pt x="598" y="686" on="1"/>
        <pt x="572" y="597" on="1"/>
        <pt x="233" y="597" on="1"/>
        <pt x="205" y="395" on="1"/>
        <pt x="512" y="395" on="1"/>
        <pt x="499" y="306" on="1"/>
        <pt x="192" y="306" on="1"/>
        <pt x="162" y="89" on="1"/>
        <pt x="507" y="89" on="1"/>
      </contour>
    </TTGlyph>
    <TTGlyph name="Eacute" xMin="51" yMin="0" xMax="598" yMax="895">
      <contour>
        <pt x="507" y="0" on="1"/>
        <pt x="51" y="0" on="1"/>
        <pt x="148" y="686" on="1"/>
        <pt x="598" y="686" on="1"/>
        <pt x="572" y="597" on="1"/>
        <pt x="233" y="597" on="1"/>
        <pt x="205" y="395" on="1"/>
        <pt x="512" y="395" on="1"/>
        <pt x="499" y="306" on="1"/>
        <pt x="192" y="306" on="1"/>
        <pt x="162" y="89" on="1"/>
        <pt x="507" y="89" on="1"/>
      </contour>
      <contour>
        <pt x="402" y="750" on="1"/>
        <pt x="333" y="750" on="1"/>
        <pt x="448" y="895" on="1"/>
        <pt x="538" y="895" on="1"/>
        <pt x="538" y="891" on="1"/>
      </contour>
    </TTGlyph>
    <TTGlyph name="Ecircumflex" xMin="51" yMin="0" xMax="598" yMax="895">
      <contour>
        <pt x="507" y="0" on="1"/>
        <pt x="51" y="0" on="1"/>
        <pt x="148" y="686" on="1"/>
        <pt x="598" y="686" on="1"/>
        <pt x="572" y="597" on="1"/>
        <pt x="233" y="597" on="1"/>
        <pt x="205" y="395" on="1"/>
        <pt x="512" y="395" on="1"/>
        <pt x="499" y="306" on="1"/>
        <pt x="192" y="306" on="1"/>
        <pt x="162" y="89" on="1"/>
        <pt x="507" y="89" on="1"/>
      </contour>
      <contour>
        <pt x="285" y="750" on="1"/>
        <pt x="205" y="750" on="1"/>
        <pt x="362" y="895" on="1"/>
        <pt x="440" y="895" on="1"/>
        <pt x="554" y="750" on="1"/>
        <pt x="474" y="750" on="1"/>
        <pt x="393" y="839" on="1"/>
      </contour>
    </TTGlyph>
    <TTGlyph name="Edieresis" xMin="51" yMin="0" xMax="598" yMax="848">
      <contour>
        <pt x="507" y="0" on="1"/>
        <pt x="51" y="0" on="1"/>
        <pt x="148" y="686" on="1"/>
        <pt x="598" y="686" on="1"/>
        <pt x="572" y="597" on="1"/>
        <pt x="233" y="597" on="1"/>
        <pt x="205" y="395" on="1"/>
        <pt x="512" y="395" on="1"/>
        <pt x="499" y="306" on="1"/>
        <pt x="192" y="306" on="1"/>
        <pt x="162" y="89" on="1"/>
        <pt x="507" y="89" on="1"/>
      </contour>
      <contour>
        <pt x="327" y="750" on="1"/>
        <pt x="237" y="750" on="1"/>
        <pt x="250" y="848" on="1"/>
        <pt x="340" y="848" on="1"/>
      </contour>
      <contour>
        <pt x="516" y="750" on="1"/>
        <pt x="425" y="750" on="1"/>
        <pt x="438" y="848" on="1"/>
        <pt x="529" y="848" on="1"/>
      </contour>
    </TTGlyph>
    <TTGlyph name="Egrave" xMin="51" yMin="0" xMax="598" yMax="895">
      <contour>
        <pt x="507" y="0" on="1"/>
        <pt x="51" y="0" on="1"/>
        <pt x="148" y="686" on="1"/>
        <pt x="598" y="686" on="1"/>
        <pt x="572" y="597" on="1"/>
        <pt x="233" y="597" on="1"/>
        <pt x="205" y="395" on="1"/>
        <pt x="512" y="395" on="1"/>
        <pt x="499" y="306" on="1"/>
        <pt x="192" y="306" on="1"/>
        <pt x="162" y="89" on="1"/>
        <pt x="507" y="89" on="1"/>
      </contour>
      <contour>
        <pt x="351" y="750" on="1"/>
        <pt x="256" y="892" on="1"/>
        <pt x="258" y="895" on="1"/>
        <pt x="347" y="895" on="1"/>
        <pt x="421" y="750" on="1"/>
      </contour>
    </TTGlyph>
    <TTGlyph name="Eth" xMin="10" yMin="0" xMax="636" yMax="686">
      <contour>
        <pt x="100" y="310" on="1"/>
        <pt x="10" y="310" on="1"/>
        <pt x="18" y="375" on="1"/>
        <pt x="109" y="375" on="1"/>
        <pt x="153" y="686" on="1"/>
        <pt x="391" y="686" on="1"/>
        <pt x="501" y="686" on="0"/>
        <pt x="636" y="561" on="0"/>
        <pt x="636" y="442" on="1"/>
        <pt x="636" y="419" on="0"/>
        <pt x="623" y="308" on="1"/>
        <pt x="605" y="155" on="0"/>
        <pt x="433" y="0" on="0"/>
        <pt x="294" y="0" on="1"/>
        <pt x="56" y="0" on="1"/>
      </contour>
      <contour>
        <pt x="198" y="310" on="1"/>
        <pt x="167" y="89" on="1"/>
        <pt x="307" y="89" on="1"/>
        <pt x="392" y="89" on="0"/>
        <pt x="509" y="196" on="0"/>
        <pt x="537" y="413" on="0"/>
        <pt x="537" y="432" on="1"/>
        <pt x="537" y="516" on="0"/>
        <pt x="452" y="597" on="0"/>
        <pt x="378" y="597" on="1"/>
        <pt x="238" y="597" on="1"/>
        <pt x="207" y="375" on="1"/>
        <pt x="352" y="375" on="1"/>
        <pt x="343" y="310" on="1"/>
      </contour>
    </TTGlyph>
    <TTGlyph name="Euro" xMin="23" yMin="-8" xMax="581" yMax="693">
      <contour>
        <pt x="123" y="238" on="1"/>
        <pt x="23" y="238" on="1"/>
        <pt x="32" y="303" on="1"/>
        <pt x="122" y="303" on="1"/>
        <pt x="130" y="365" on="0"/>
        <pt x="132" y="377" on="1"/>
        <pt x="42" y="377" on="1"/>
        <pt x="51" y="441" on="1"/>
        <pt x="150" y="441" on="1"/>
        <pt x="180" y="552" on="0"/>
        <pt x="370" y="693" on="0"/>
        <pt x="494" y="693" on="1"/>
        <pt x="527" y="693" on="0"/>
        <pt x="581" y="685" on="1"/>
        <pt x="568" y="594" on="1"/>
        <pt x="535" y="604" on="0"/>
        <pt x="490" y="604" on="1"/>
        <pt x="408" y="604" on="0"/>
        <pt x="271" y="512" on="0"/>
        <pt x="249" y="441" on="1"/>
        <pt x="447" y="441" on="1"/>
        <pt x="438" y="377" on="1"/>
        <pt x="228" y="377" on="1"/>
        <pt x="218" y="341" on="0"/>
        <pt x="218" y="303" on="1"/>
        <pt x="428" y="303" on="1"/>
        <pt x="419" y="238" on="1"/>
        <pt x="223" y="238" on="1"/>
        <pt x="237" y="164" on="0"/>
        <pt x="343" y="80" on="0"/>
        <pt x="424" y="80" on="1"/>
        <pt x="454" y="80" on="0"/>
        <pt x="497" y="93" on="1"/>
        <pt x="485" y="2" on="1"/>
        <pt x="441" y="-8" on="0"/>
        <pt x="389" y="-8" on="1"/>
        <pt x="281" y="-8" on="0"/>
        <pt x="133" y="124" on="0"/>
      </contour>
    </TTGlyph>
    <TTGlyph name="F" xMin="51" yMin="0" xMax="580" yMax="686">
      <contour>
        <pt x="149" y="0" on="1"/>
        <pt x="51" y="0" on="1"/>
        <pt x="148" y="686" on="1"/>
        <pt x="580" y="686" on="1"/>
        <pt x="554" y="597" on="1"/>
        <pt x="233" y="597" on="1"/>
        <pt x="204" y="388" on="1"/>
        <pt x="484" y="388" on="1"/>
        <pt x="471" y="299" on="1"/>
        <pt x="191" y="299" on="1"/>
      </contour>
    </TTGlyph>
    <TTGlyph name="G" xMin="57" yMin="-10" xMax="631" yMax="696">
      <contour>
        <pt x="57" y="232" on="1"/>
        <pt x="57" y="261" on="0"/>
        <pt x="75" y="388" on="1"/>
        <pt x="121" y="696" on="0"/>
        <pt x="400" y="696" on="1"/>
        <pt x="502" y="696" on="0"/>
        <pt x="631" y="589" on="0"/>
        <pt x="631" y="489" on="1"/>
        <pt x="631" y="468" on="0"/>
        <pt x="628" y="445" on="1"/>
        <pt x="530" y="445" on="1"/>
        <pt x="532" y="467" on="0"/>
        <pt x="532" y="478" on="1"/>
        <pt x="532" y="543" on="0"/>
        <pt x="454" y="607" on="0"/>
        <pt x="388" y="607" on="1"/>
        <pt x="302" y="607" on="0"/>
        <pt x="189" y="500" on="0"/>
        <pt x="156" y="272" on="0"/>
        <pt x="156" y="241" on="1"/>
        <pt x="156" y="79" on="0"/>
        <pt x="313" y="79" on="1"/>
        <pt x="400" y="79" on="0"/>
        <pt x="491" y="165" on="0"/>
        <pt x="506" y="261" on="1"/>
        <pt x="508" y="274" on="1"/>
        <pt x="314" y="274" on="1"/>
        <pt x="326" y="362" on="1"/>
        <pt x="616" y="362" on="1"/>
        <pt x="583" y="128" on="1"/>
        <pt x="579" y="105" on="0"/>
        <pt x="574" y="40" on="0"/>
        <pt x="571" y="9" on="0"/>
        <pt x="571" y="0" on="1"/>
        <pt x="513" y="0" on="1"/>
        <pt x="506" y="18" on="0"/>
        <pt x="505" y="82" on="1"/>
        <pt x="427" y="-10" on="0"/>
        <pt x="189" y="-10" on="0"/>
        <pt x="57" y="113" on="0"/>
      </contour>
    </TTGlyph>
    <TTGlyph name="H" xMin="51" yMin="0" xMax="657" yMax="686">
      <contour>
        <pt x="149" y="0" on="1"/>
        <pt x="51" y="0" on="1"/>
        <pt x="148" y="686" on="1"/>
        <pt x="246" y="686" on="1"/>
        <pt x="205" y="395" on="1"/>
        <pt x="518" y="395" on="1"/>
        <pt x="559" y="686" on="1"/>
        <pt x="657" y="686" on="1"/>
        <pt x="560" y="0" on="1"/>
        <pt x="462" y="0" on="1"/>
        <pt x="505" y="306" on="1"/>
        <pt x="192" y="306" on="1"/>
      </contour>
    </TTGlyph>
    <TTGlyph name="I" xMin="12" yMin="0" xMax="367" yMax="686">
      <contour>
        <pt x="270" y="0" on="1"/>
        <pt x="12" y="0" on="1"/>
        <pt x="25" y="89" on="1"/>
        <pt x="105" y="89" on="1"/>
        <pt x="176" y="597" on="1"/>
        <pt x="96" y="597" on="1"/>
        <pt x="109" y="686" on="1"/>
        <pt x="367" y="686" on="1"/>
        <pt x="354" y="597" on="1"/>
        <pt x="274" y="597" on="1"/>
        <pt x="203" y="89" on="1"/>
        <pt x="283" y="89" on="1"/>
      </contour>
    </TTGlyph>
    <TTGlyph name="Iacute" xMin="12" yMin="0" xMax="407" yMax="895">
      <contour>
        <pt x="270" y="0" on="1"/>
        <pt x="12" y="0" on="1"/>
        <pt x="25" y="89" on="1"/>
        <pt x="105" y="89" on="1"/>
        <pt x="176" y="597" on="1"/>
        <pt x="96" y="597" on="1"/>
        <pt x="109" y="686" on="1"/>
        <pt x="367" y="686" on="1"/>
        <pt x="354" y="597" on="1"/>
        <pt x="274" y="597" on="1"/>
        <pt x="203" y="89" on="1"/>
        <pt x="283" y="89" on="1"/>
      </contour>
      <contour>
        <pt x="271" y="750" on="1"/>
        <pt x="202" y="750" on="1"/>
        <pt x="317" y="895" on="1"/>
        <pt x="407" y="895" on="1"/>
        <pt x="407" y="891" on="1"/>
      </contour>
    </TTGlyph>
    <TTGlyph name="Icircumflex" xMin="12" yMin="0" xMax="420" yMax="895">
      <contour>
        <pt x="270" y="0" on="1"/>
        <pt x="12" y="0" on="1"/>
        <pt x="25" y="89" on="1"/>
        <pt x="105" y="89" on="1"/>
        <pt x="176" y="597" on="1"/>
        <pt x="96" y="597" on="1"/>
        <pt x="109" y="686" on="1"/>
        <pt x="367" y="686" on="1"/>
        <pt x="354" y="597" on="1"/>
        <pt x="274" y="597" on="1"/>
        <pt x="203" y="89" on="1"/>
        <pt x="283" y="89" on="1"/>
      </contour>
      <contour>
        <pt x="151" y="750" on="1"/>
        <pt x="71" y="750" on="1"/>
        <pt x="228" y="895" on="1"/>
        <pt x="306" y="895" on="1"/>
        <pt x="420" y="750" on="1"/>
        <pt x="340" y="750" on="1"/>
        <pt x="259" y="839" on="1"/>
      </contour>
    </TTGlyph>
    <TTGlyph name="Idieresis" xMin="12" yMin="0" xMax="399" yMax="848">
      <contour>
        <pt x="270" y="0" on="1"/>
        <pt x="12" y="0" on="1"/>
        <pt x="25" y="89" on="1"/>
        <pt x="105" y="89" on="1"/>
        <pt x="176" y="597" on="1"/>
        <pt x="96" y="597" on="1"/>
        <pt x="109" y="686" on="1"/>
        <pt x="367" y="686" on="1"/>
        <pt x="354" y="597" on="1"/>
        <pt x="274" y="597" on="1"/>
        <pt x="203" y="89" on="1"/>
        <pt x="283" y="89" on="1"/>
      </contour>
      <contour>
        <pt x="197" y="750" on="1"/>
        <pt x="107" y="750" on="1"/>
        <pt x="120" y="848" on="1"/>
        <pt x="210" y="848" on="1"/>
      </contour>
      <contour>
        <pt x="386" y="750" on="1"/>
        <pt x="295" y="750" on="1"/>
        <pt x="308" y="848" on="1"/>
        <pt x="399" y="848" on="1"/>
      </contour>
    </TTGlyph>
    <TTGlyph name="Igrave" xMin="12" yMin="0" xMax="367" yMax="895">
      <contour>
        <pt x="270" y="0" on="1"/>
        <pt x="12" y="0" on="1"/>
        <pt x="25" y="89" on="1"/>
        <pt x="105" y="89" on="1"/>
        <pt x="176" y="597" on="1"/>
        <pt x="96" y="597" on="1"/>
        <pt x="109" y="686" on="1"/>
        <pt x="367" y="686" on="1"/>
        <pt x="354" y="597" on="1"/>
        <pt x="274" y="597" on="1"/>
        <pt x="203" y="89" on="1"/>
        <pt x="283" y="89" on="1"/>
      </contour>
      <contour>
        <pt x="203" y="750" on="1"/>
        <pt x="108" y="892" on="1"/>
        <pt x="110" y="895" on="1"/>
        <pt x="199" y="895" on="1"/>
        <pt x="273" y="750" on="1"/>
      </contour>
    </TTGlyph>
    <TTGlyph name="J" xMin="10" yMin="-10" xMax="492" yMax="686">
      <contour>
        <pt x="10" y="149" on="1"/>
        <pt x="10" y="181" on="0"/>
        <pt x="16" y="208" on="1"/>
        <pt x="113" y="208" on="1"/>
        <pt x="108" y="185" on="0"/>
        <pt x="108" y="166" on="1"/>
        <pt x="108" y="127" on="0"/>
        <pt x="160" y="79" on="0"/>
        <pt x="249" y="79" on="0"/>
        <pt x="316" y="134" on="0"/>
        <pt x="323" y="181" on="1"/>
        <pt x="394" y="686" on="1"/>
        <pt x="492" y="686" on="1"/>
        <pt x="422" y="187" on="1"/>
        <pt x="408" y="89" on="0"/>
        <pt x="290" y="-10" on="0"/>
        <pt x="192" y="-10" on="1"/>
        <pt x="183" y="-10" on="1"/>
        <pt x="111" y="-10" on="0"/>
        <pt x="10" y="73" on="0"/>
      </contour>
    </TTGlyph>
    <TTGlyph name="K" xMin="51" yMin="0" xMax="657" yMax="686">
      <contour>
        <pt x="149" y="0" on="1"/>
        <pt x="51" y="0" on="1"/>
        <pt x="148" y="686" on="1"/>
        <pt x="246" y="686" on="1"/>
        <pt x="196" y="329" on="1"/>
        <pt x="544" y="686" on="1"/>
        <pt x="657" y="686" on="1"/>
        <pt x="362" y="383" on="1"/>
        <pt x="568" y="0" on="1"/>
        <pt x="454" y="0" on="1"/>
        <pt x="290" y="308" on="1"/>
        <pt x="178" y="206" on="1"/>
      </contour>
    </TTGlyph>
    <TTGlyph name="L" xMin="51" yMin="0" xMax="477" yMax="686">
      <contour>
        <pt x="477" y="0" on="1"/>
        <pt x="51" y="0" on="1"/>
        <pt x="148" y="686" on="1"/>
        <pt x="246" y="686" on="1"/>
        <pt x="162" y="89" on="1"/>
        <pt x="477" y="89" on="1"/>
      </contour>
    </TTGlyph>
    <TTGlyph name="Lslash" xMin="33" yMin="0" xMax="480" yMax="686">
      <contour>
        <pt x="100" y="324" on="1"/>
        <pt x="33" y="293" on="1"/>
        <pt x="43" y="364" on="1"/>
        <pt x="110" y="395" on="1"/>
        <pt x="151" y="686" on="1"/>
        <pt x="249" y="686" on="1"/>
        <pt x="215" y="445" on="1"/>
        <pt x="364" y="517" on="1"/>
        <pt x="354" y="446" on="1"/>
        <pt x="205" y="374" on="1"/>
        <pt x="165" y="89" on="1"/>
        <pt x="480" y="89" on="1"/>
        <pt x="480" y="0" on="1"/>
        <pt x="54" y="0" on="1"/>
      </contour>
    </TTGlyph>
    <TTGlyph name="M" xMin="51" yMin="0" xMax="902" yMax="686">
      <contour>
        <pt x="140" y="0" on="1"/>
        <pt x="51" y="0" on="1"/>
        <pt x="148" y="686" on="1"/>
        <pt x="302" y="686" on="1"/>
        <pt x="447" y="146" on="1"/>
        <pt x="451" y="146" on="1"/>
        <pt x="749" y="686" on="1"/>
        <pt x="902" y="686" on="1"/>
        <pt x="805" y="0" on="1"/>
        <pt x="707" y="0" on="1"/>
        <pt x="788" y="571" on="1"/>
        <pt x="782" y="571" on="1"/>
        <pt x="464" y="0" on="1"/>
        <pt x="381" y="0" on="1"/>
        <pt x="226" y="571" on="1"/>
        <pt x="221" y="571" on="1"/>
      </contour>
    </TTGlyph>
    <TTGlyph name="N" xMin="51" yMin="0" xMax="658" yMax="686">
      <contour>
        <pt x="140" y="0" on="1"/>
        <pt x="51" y="0" on="1"/>
        <pt x="148" y="686" on="1"/>
        <pt x="234" y="686" on="1"/>
        <pt x="496" y="190" on="1"/>
        <pt x="499" y="191" on="1"/>
        <pt x="569" y="686" on="1"/>
        <pt x="658" y="686" on="1"/>
        <pt x="561" y="0" on="1"/>
        <pt x="478" y="0" on="1"/>
        <pt x="214" y="502" on="1"/>
        <pt x="211" y="501" on="1"/>
      </contour>
    </TTGlyph>
    <TTGlyph name="Ntilde" xMin="51" yMin="0" xMax="658" yMax="854">
      <contour>
        <pt x="140" y="0" on="1"/>
        <pt x="51" y="0" on="1"/>
        <pt x="148" y="686" on="1"/>
        <pt x="234" y="686" on="1"/>
        <pt x="496" y="190" on="1"/>
        <pt x="499" y="191" on="1"/>
        <pt x="569" y="686" on="1"/>
        <pt x="658" y="686" on="1"/>
        <pt x="561" y="0" on="1"/>
        <pt x="478" y="0" on="1"/>
        <pt x="214" y="502" on="1"/>
        <pt x="211" y="501" on="1"/>
      </contour>
      <contour>
        <pt x="270" y="750" on="1"/>
        <pt x="222" y="750" on="1"/>
        <pt x="229" y="790" on="0"/>
        <pt x="295" y="854" on="0"/>
        <pt x="348" y="854" on="1"/>
        <pt x="381" y="854" on="0"/>
        <pt x="486" y="819" on="0"/>
        <pt x="511" y="819" on="1"/>
        <pt x="556" y="819" on="0"/>
        <pt x="571" y="854" on="1"/>
        <pt x="621" y="854" on="1"/>
        <pt x="614" y="813" on="0"/>
        <pt x="548" y="750" on="0"/>
        <pt x="494" y="750" on="1"/>
        <pt x="461" y="750" on="0"/>
        <pt x="356" y="784" on="0"/>
        <pt x="330" y="784" on="1"/>
        <pt x="285" y="784" on="0"/>
      </contour>
    </TTGlyph>
    <TTGlyph name="O" xMin="57" yMin="-10" xMax="647" yMax="696">
      <contour>
        <pt x="57" y="235" on="1"/>
        <pt x="57" y="262" on="0"/>
        <pt x="75" y="388" on="1"/>
        <pt x="95" y="539" on="0"/>
        <pt x="271" y="696" on="0"/>
        <pt x="402" y="696" on="1"/>
        <pt x="512" y="696" on="0"/>
        <pt x="647" y="570" on="0"/>
        <pt x="647" y="450" on="1"/>
        <pt x="647" y="417" on="0"/>
        <pt x="630" y="298" on="1"/>
        <pt x="609" y="146" on="0"/>
        <pt x="435" y="-10" on="0"/>
        <pt x="303" y="-10" on="1"/>
        <pt x="193" y="-10" on="0"/>
        <pt x="57" y="116" on="0"/>
      </contour>
      <contour>
        <pt x="156" y="244" on="1"/>
        <pt x="156" y="160" on="0"/>
        <pt x="240" y="79" on="0"/>
        <pt x="400" y="79" on="0"/>
        <pt x="515" y="186" on="0"/>
        <pt x="549" y="413" on="0"/>
        <pt x="549" y="442" on="1"/>
        <pt x="549" y="526" on="0"/>
        <pt x="464" y="607" on="0"/>
        <pt x="303" y="607" on="0"/>
        <pt x="188" y="500" on="0"/>
        <pt x="156" y="271" on="0"/>
      </contour>
    </TTGlyph>
    <TTGlyph name="OE" xMin="57" yMin="-10" xMax="1037" yMax="696">
      <contour>
        <pt x="57" y="235" on="1"/>
        <pt x="57" y="262" on="0"/>
        <pt x="75" y="388" on="1"/>
        <pt x="95" y="539" on="0"/>
        <pt x="271" y="696" on="0"/>
        <pt x="515" y="696" on="0"/>
        <pt x="579" y="633" on="1"/>
        <pt x="587" y="686" on="1"/>
        <pt x="1037" y="686" on="1"/>
        <pt x="1011" y="597" on="1"/>
        <pt x="672" y="597" on="1"/>
        <pt x="644" y="395" on="1"/>
        <pt x="951" y="395" on="1"/>
        <pt x="938" y="306" on="1"/>
        <pt x="631" y="306" on="1"/>
        <pt x="601" y="89" on="1"/>
        <pt x="946" y="89" on="1"/>
        <pt x="946" y="0" on="1"/>
        <pt x="490" y="0" on="1"/>
        <pt x="496" y="47" on="1"/>
        <pt x="419" y="-10" on="0"/>
        <pt x="193" y="-10" on="0"/>
        <pt x="57" y="116" on="0"/>
      </contour>
      <contour>
        <pt x="156" y="244" on="1"/>
        <pt x="156" y="160" on="0"/>
        <pt x="240" y="79" on="0"/>
        <pt x="400" y="79" on="0"/>
        <pt x="515" y="186" on="0"/>
        <pt x="549" y="413" on="0"/>
        <pt x="549" y="442" on="1"/>
        <pt x="549" y="526" on="0"/>
        <pt x="464" y="607" on="0"/>
        <pt x="303" y="607" on="0"/>
        <pt x="188" y="500" on="0"/>
        <pt x="156" y="271" on="0"/>
      </contour>
    </TTGlyph>
    <TTGlyph name="Oacute" xMin="57" yMin="-10" xMax="647" yMax="895">
      <contour>
        <pt x="57" y="235" on="1"/>
        <pt x="57" y="262" on="0"/>
        <pt x="75" y="388" on="1"/>
        <pt x="95" y="539" on="0"/>
        <pt x="271" y="696" on="0"/>
        <pt x="402" y="696" on="1"/>
        <pt x="512" y="696" on="0"/>
        <pt x="647" y="570" on="0"/>
        <pt x="647" y="450" on="1"/>
        <pt x="647" y="417" on="0"/>
        <pt x="630" y="298" on="1"/>
        <pt x="609" y="146" on="0"/>
        <pt x="435" y="-10" on="0"/>
        <pt x="303" y="-10" on="1"/>
        <pt x="193" y="-10" on="0"/>
        <pt x="57" y="116" on="0"/>
      </contour>
      <contour>
        <pt x="156" y="244" on="1"/>
        <pt x="156" y="160" on="0"/>
        <pt x="240" y="79" on="0"/>
        <pt x="400" y="79" on="0"/>
        <pt x="515" y="186" on="0"/>
        <pt x="549" y="413" on="0"/>
        <pt x="549" y="442" on="1"/>
        <pt x="549" y="526" on="0"/>
        <pt x="464" y="607" on="0"/>
        <pt x="303" y="607" on="0"/>
        <pt x="188" y="500" on="0"/>
        <pt x="156" y="271" on="0"/>
      </contour>
      <contour>
        <pt x="442" y="750" on="1"/>
        <pt x="373" y="750" on="1"/>
        <pt x="488" y="895" on="1"/>
        <pt x="578" y="895" on="1"/>
        <pt x="578" y="891" on="1"/>
      </contour>
    </TTGlyph>
    <TTGlyph name="Ocircumflex" xMin="57" yMin="-10" xMax="647" yMax="895">
      <contour>
        <pt x="57" y="235" on="1"/>
        <pt x="57" y="262" on="0"/>
        <pt x="75" y="388" on="1"/>
        <pt x="95" y="539" on="0"/>
        <pt x="271" y="696" on="0"/>
        <pt x="402" y="696" on="1"/>
        <pt x="512" y="696" on="0"/>
        <pt x="647" y="570" on="0"/>
        <pt x="647" y="450" on="1"/>
        <pt x="647" y="417" on="0"/>
        <pt x="630" y="298" on="1"/>
        <pt x="609" y="146" on="0"/>
        <pt x="435" y="-10" on="0"/>
        <pt x="303" y="-10" on="1"/>
        <pt x="193" y="-10" on="0"/>
        <pt x="57" y="116" on="0"/>
      </contour>
      <contour>
        <pt x="156" y="244" on="1"/>
        <pt x="156" y="160" on="0"/>
        <pt x="240" y="79" on="0"/>
        <pt x="400" y="79" on="0"/>
        <pt x="515" y="186" on="0"/>
        <pt x="549" y="413" on="0"/>
        <pt x="549" y="442" on="1"/>
        <pt x="549" y="526" on="0"/>
        <pt x="464" y="607" on="0"/>
        <pt x="303" y="607" on="0"/>
        <pt x="188" y="500" on="0"/>
        <pt x="156" y="271" on="0"/>
      </contour>
      <contour>
        <pt x="329" y="750" on="1"/>
        <pt x="249" y="750" on="1"/>
        <pt x="406" y="895" on="1"/>
        <pt x="484" y="895" on="1"/>
        <pt x="598" y="750" on="1"/>
        <pt x="518" y="750" on="1"/>
        <pt x="437" y="839" on="1"/>
      </contour>
    </TTGlyph>
    <TTGlyph name="Odieresis" xMin="57" yMin="-10" xMax="647" yMax="848">
      <contour>
        <pt x="57" y="235" on="1"/>
        <pt x="57" y="262" on="0"/>
        <pt x="75" y="388" on="1"/>
        <pt x="95" y="539" on="0"/>
        <pt x="271" y="696" on="0"/>
        <pt x="402" y="696" on="1"/>
        <pt x="512" y="696" on="0"/>
        <pt x="647" y="570" on="0"/>
        <pt x="647" y="450" on="1"/>
        <pt x="647" y="417" on="0"/>
        <pt x="630" y="298" on="1"/>
        <pt x="609" y="146" on="0"/>
        <pt x="435" y="-10" on="0"/>
        <pt x="303" y="-10" on="1"/>
        <pt x="193" y="-10" on="0"/>
        <pt x="57" y="116" on="0"/>
      </contour>
      <contour>
        <pt x="156" y="244" on="1"/>
        <pt x="156" y="160" on="0"/>
        <pt x="240" y="79" on="0"/>
        <pt x="400" y="79" on="0"/>
        <pt x="515" y="186" on="0"/>
        <pt x="549" y="413" on="0"/>
        <pt x="549" y="442" on="1"/>
        <pt x="549" y="526" on="0"/>
        <pt x="464" y="607" on="0"/>
        <pt x="303" y="607" on="0"/>
        <pt x="188" y="500" on="0"/>
        <pt x="156" y="271" on="0"/>
      </contour>
      <contour>
        <pt x="365" y="750" on="1"/>
        <pt x="275" y="750" on="1"/>
        <pt x="288" y="848" on="1"/>
        <pt x="378" y="848" on="1"/>
      </contour>
      <contour>
        <pt x="554" y="750" on="1"/>
        <pt x="463" y="750" on="1"/>
        <pt x="476" y="848" on="1"/>
        <pt x="567" y="848" on="1"/>
      </contour>
    </TTGlyph>
    <TTGlyph name="Ograve" xMin="57" yMin="-10" xMax="647" yMax="895">
      <contour>
        <pt x="57" y="235" on="1"/>
        <pt x="57" y="262" on="0"/>
        <pt x="75" y="388" on="1"/>
        <pt x="95" y="539" on="0"/>
        <pt x="271" y="696" on="0"/>
        <pt x="402" y="696" on="1"/>
        <pt x="512" y="696" on="0"/>
        <pt x="647" y="570" on="0"/>
        <pt x="647" y="450" on="1"/>
        <pt x="647" y="417" on="0"/>
        <pt x="630" y="298" on="1"/>
        <pt x="609" y="146" on="0"/>
        <pt x="435" y="-10" on="0"/>
        <pt x="303" y="-10" on="1"/>
        <pt x="193" y="-10" on="0"/>
        <pt x="57" y="116" on="0"/>
      </contour>
      <contour>
        <pt x="156" y="244" on="1"/>
        <pt x="156" y="160" on="0"/>
        <pt x="240" y="79" on="0"/>
        <pt x="400" y="79" on="0"/>
        <pt x="515" y="186" on="0"/>
        <pt x="549" y="413" on="0"/>
        <pt x="549" y="442" on="1"/>
        <pt x="549" y="526" on="0"/>
        <pt x="464" y="607" on="0"/>
        <pt x="303" y="607" on="0"/>
        <pt x="188" y="500" on="0"/>
        <pt x="156" y="271" on="0"/>
      </contour>
      <contour>
        <pt x="366" y="750" on="1"/>
        <pt x="271" y="892" on="1"/>
        <pt x="273" y="895" on="1"/>
        <pt x="362" y="895" on="1"/>
        <pt x="436" y="750" on="1"/>
      </contour>
    </TTGlyph>
    <TTGlyph name="Oslash" xMin="20" yMin="-65" xMax="689" yMax="754">
      <contour>
        <pt x="84" y="-65" on="1"/>
        <pt x="20" y="-65" on="1"/>
        <pt x="115" y="63" on="1"/>
        <pt x="57" y="127" on="0"/>
        <pt x="57" y="235" on="1"/>
        <pt x="57" y="262" on="0"/>
        <pt x="75" y="388" on="1"/>
        <pt x="95" y="539" on="0"/>
        <pt x="271" y="696" on="0"/>
        <pt x="402" y="696" on="1"/>
        <pt x="490" y="696" on="0"/>
        <pt x="552" y="655" on="1"/>
        <pt x="625" y="754" on="1"/>
        <pt x="689" y="754" on="1"/>
        <pt x="590" y="621" on="1"/>
        <pt x="647" y="556" on="0"/>
        <pt x="647" y="450" on="1"/>
        <pt x="647" y="417" on="0"/>
        <pt x="630" y="298" on="1"/>
        <pt x="609" y="146" on="0"/>
        <pt x="435" y="-10" on="0"/>
        <pt x="303" y="-10" on="1"/>
        <pt x="215" y="-10" on="0"/>
        <pt x="154" y="30" on="1"/>
      </contour>
      <contour>
        <pt x="156" y="244" on="1"/>
        <pt x="156" y="184" on="0"/>
        <pt x="177" y="147" on="1"/>
        <pt x="494" y="577" on="1"/>
        <pt x="453" y="607" on="0"/>
        <pt x="390" y="607" on="1"/>
        <pt x="303" y="607" on="0"/>
        <pt x="188" y="500" on="0"/>
        <pt x="156" y="271" on="0"/>
      </contour>
      <contour>
        <pt x="528" y="537" on="1"/>
        <pt x="211" y="107" on="1"/>
        <pt x="251" y="79" on="0"/>
        <pt x="315" y="79" on="1"/>
        <pt x="400" y="79" on="0"/>
        <pt x="515" y="186" on="0"/>
        <pt x="549" y="413" on="0"/>
        <pt x="549" y="497" on="0"/>
      </contour>
    </TTGlyph>
    <TTGlyph name="Otilde" xMin="57" yMin="-10" xMax="647" yMax="854">
      <contour>
        <pt x="57" y="235" on="1"/>
        <pt x="57" y="262" on="0"/>
        <pt x="75" y="388" on="1"/>
        <pt x="95" y="539" on="0"/>
        <pt x="271" y="696" on="0"/>
        <pt x="402" y="696" on="1"/>
        <pt x="512" y="696" on="0"/>
        <pt x="647" y="570" on="0"/>
        <pt x="647" y="450" on="1"/>
        <pt x="647" y="417" on="0"/>
        <pt x="630" y="298" on="1"/>
        <pt x="609" y="146" on="0"/>
        <pt x="435" y="-10" on="0"/>
        <pt x="303" y="-10" on="1"/>
        <pt x="193" y="-10" on="0"/>
        <pt x="57" y="116" on="0"/>
      </contour>
      <contour>
        <pt x="156" y="244" on="1"/>
        <pt x="156" y="160" on="0"/>
        <pt x="240" y="79" on="0"/>
        <pt x="400" y="79" on="0"/>
        <pt x="515" y="186" on="0"/>
        <pt x="549" y="413" on="0"/>
        <pt x="549" y="442" on="1"/>
        <pt x="549" y="526" on="0"/>
        <pt x="464" y="607" on="0"/>
        <pt x="303" y="607" on="0"/>
        <pt x="188" y="500" on="0"/>
        <pt x="156" y="271" on="0"/>
      </contour>
      <contour>
        <pt x="276" y="750" on="1"/>
        <pt x="228" y="750" on="1"/>
        <pt x="235" y="790" on="0"/>
        <pt x="301" y="854" on="0"/>
        <pt x="354" y="854" on="1"/>
        <pt x="387" y="854" on="0"/>
        <pt x="492" y="819" on="0"/>
        <pt x="517" y="819" on="1"/>
        <pt x="562" y="819" on="0"/>
        <pt x="577" y="854" on="1"/>
        <pt x="627" y="854" on="1"/>
        <pt x="620" y="813" on="0"/>
        <pt x="554" y="750" on="0"/>
        <pt x="500" y="750" on="1"/>
        <pt x="467" y="750" on="0"/>
        <pt x="362" y="784" on="0"/>
        <pt x="336" y="784" on="1"/>
        <pt x="291" y="784" on="0"/>
      </contour>
    </TTGlyph>
    <TTGlyph name="P" xMin="51" yMin="0" xMax="623" yMax="686">
      <contour>
        <pt x="149" y="0" on="1"/>
        <pt x="51" y="0" on="1"/>
        <pt x="148" y="686" on="1"/>
        <pt x="444" y="686" on="1"/>
        <pt x="522" y="686" on="0"/>
        <pt x="623" y="593" on="0"/>
        <pt x="623" y="517" on="1"/>
        <pt x="623" y="413" on="0"/>
        <pt x="492" y="286" on="0"/>
        <pt x="387" y="286" on="1"/>
        <pt x="189" y="286" on="1"/>
      </contour>
      <contour>
        <pt x="233" y="597" on="1"/>
        <pt x="202" y="375" on="1"/>
        <pt x="391" y="375" on="1"/>
        <pt x="443" y="375" on="0"/>
        <pt x="524" y="450" on="0"/>
        <pt x="524" y="542" on="0"/>
        <pt x="467" y="597" on="0"/>
        <pt x="422" y="597" on="1"/>
      </contour>
    </TTGlyph>
    <TTGlyph name="Q" xMin="57" yMin="-145" xMax="647" yMax="696">
      <contour>
        <pt x="57" y="235" on="1"/>
        <pt x="57" y="262" on="0"/>
        <pt x="75" y="388" on="1"/>
        <pt x="95" y="539" on="0"/>
        <pt x="271" y="696" on="0"/>
        <pt x="402" y="696" on="1"/>
        <pt x="512" y="696" on="0"/>
        <pt x="647" y="570" on="0"/>
        <pt x="647" y="450" on="1"/>
        <pt x="647" y="417" on="0"/>
        <pt x="610" y="163" on="0"/>
        <pt x="469" y="9" on="0"/>
        <pt x="360" y="-6" on="1"/>
        <pt x="363" y="-32" on="0"/>
        <pt x="407" y="-70" on="0"/>
        <pt x="497" y="-70" on="0"/>
        <pt x="558" y="-46" on="1"/>
        <pt x="571" y="-42" on="1"/>
        <pt x="561" y="-112" on="1"/>
        <pt x="546" y="-121" on="0"/>
        <pt x="471" y="-145" on="0"/>
        <pt x="356" y="-145" on="0"/>
        <pt x="263" y="-75" on="0"/>
        <pt x="263" y="-8" on="1"/>
        <pt x="168" y="2" on="0"/>
        <pt x="57" y="126" on="0"/>
      </contour>
      <contour>
        <pt x="156" y="244" on="1"/>
        <pt x="156" y="160" on="0"/>
        <pt x="240" y="79" on="0"/>
        <pt x="400" y="79" on="0"/>
        <pt x="515" y="186" on="0"/>
        <pt x="549" y="413" on="0"/>
        <pt x="549" y="442" on="1"/>
        <pt x="549" y="526" on="0"/>
        <pt x="464" y="607" on="0"/>
        <pt x="303" y="607" on="0"/>
        <pt x="188" y="500" on="0"/>
        <pt x="156" y="271" on="0"/>
      </contour>
    </TTGlyph>
    <TTGlyph name="R" xMin="51" yMin="-5" xMax="625" yMax="686">
      <contour>
        <pt x="454" y="85" on="1"/>
        <pt x="461" y="173" on="1"/>
        <pt x="461" y="241" on="0"/>
        <pt x="404" y="302" on="0"/>
        <pt x="365" y="302" on="1"/>
        <pt x="191" y="302" on="1"/>
        <pt x="149" y="0" on="1"/>
        <pt x="51" y="0" on="1"/>
        <pt x="147" y="686" on="1"/>
        <pt x="439" y="686" on="1"/>
        <pt x="520" y="686" on="0"/>
        <pt x="625" y="613" on="0"/>
        <pt x="625" y="477" on="0"/>
        <pt x="545" y="365" on="0"/>
        <pt x="477" y="354" on="1"/>
        <pt x="477" y="349" on="1"/>
        <pt x="563" y="311" on="0"/>
        <pt x="563" y="202" on="1"/>
        <pt x="555" y="104" on="1"/>
        <pt x="555" y="46" on="0"/>
        <pt x="593" y="31" on="1"/>
        <pt x="589" y="3" on="1"/>
        <pt x="567" y="-5" on="0"/>
        <pt x="498" y="-5" on="0"/>
        <pt x="454" y="33" on="0"/>
      </contour>
      <contour>
        <pt x="233" y="597" on="1"/>
        <pt x="204" y="391" on="1"/>
        <pt x="399" y="391" on="1"/>
        <pt x="446" y="391" on="0"/>
        <pt x="523" y="461" on="0"/>
        <pt x="523" y="550" on="0"/>
        <pt x="472" y="597" on="0"/>
        <pt x="428" y="597" on="1"/>
      </contour>
    </TTGlyph>
    <TTGlyph name="S" xMin="36" yMin="-10" xMax="588" yMax="696">
      <contour>
        <pt x="36" y="160" on="1"/>
        <pt x="36" y="194" on="0"/>
        <pt x="43" y="215" on="1"/>
        <pt x="141" y="215" on="1"/>
        <pt x="135" y="209" on="0"/>
        <pt x="135" y="175" on="1"/>
        <pt x="135" y="127" on="0"/>
        <pt x="212" y="79" on="0"/>
        <pt x="364" y="79" on="0"/>
        <pt x="463" y="142" on="0"/>
        <pt x="463" y="201" on="1"/>
        <pt x="463" y="228" on="0"/>
        <pt x="432" y="268" on="0"/>
        <pt x="380" y="289" on="0"/>
        <pt x="314" y="310" on="0"/>
        <pt x="246" y="326" on="0"/>
        <pt x="180" y="355" on="0"/>
        <pt x="154" y="374" on="1"/>
        <pt x="97" y="414" on="0"/>
        <pt x="97" y="596" on="0"/>
        <pt x="249" y="696" on="0"/>
        <pt x="469" y="696" on="0"/>
        <pt x="588" y="617" on="0"/>
        <pt x="588" y="536" on="1"/>
        <pt x="588" y="515" on="0"/>
        <pt x="584" y="492" on="1"/>
        <pt x="486" y="492" on="1"/>
        <pt x="490" y="512" on="0"/>
        <pt x="490" y="520" on="1"/>
        <pt x="490" y="562" on="0"/>
        <pt x="420" y="607" on="0"/>
        <pt x="289" y="607" on="0"/>
        <pt x="197" y="555" on="0"/>
        <pt x="197" y="464" on="0"/>
        <pt x="273" y="417" on="0"/>
        <pt x="381" y="391" on="0"/>
        <pt x="488" y="357" on="0"/>
        <pt x="564" y="276" on="0"/>
        <pt x="564" y="211" on="1"/>
        <pt x="564" y="-10" on="0"/>
        <pt x="271" y="-10" on="1"/>
        <pt x="165" y="-10" on="0"/>
        <pt x="36" y="72" on="0"/>
      </contour>
    </TTGlyph>
    <TTGlyph name="Scaron" xMin="36" yMin="-10" xMax="588" yMax="895">
      <contour>
        <pt x="36" y="160" on="1"/>
        <pt x="36" y="194" on="0"/>
        <pt x="43" y="215" on="1"/>
        <pt x="141" y="215" on="1"/>
        <pt x="135" y="209" on="0"/>
        <pt x="135" y="175" on="1"/>
        <pt x="135" y="127" on="0"/>
        <pt x="212" y="79" on="0"/>
        <pt x="364" y="79" on="0"/>
        <pt x="463" y="142" on="0"/>
        <pt x="463" y="201" on="1"/>
        <pt x="463" y="228" on="0"/>
        <pt x="432" y="268" on="0"/>
        <pt x="380" y="289" on="0"/>
        <pt x="314" y="310" on="0"/>
        <pt x="246" y="326" on="0"/>
        <pt x="180" y="355" on="0"/>
        <pt x="154" y="374" on="1"/>
        <pt x="97" y="414" on="0"/>
        <pt x="97" y="596" on="0"/>
        <pt x="249" y="696" on="0"/>
        <pt x="469" y="696" on="0"/>
        <pt x="588" y="617" on="0"/>
        <pt x="588" y="536" on="1"/>
        <pt x="588" y="515" on="0"/>
        <pt x="584" y="492" on="1"/>
        <pt x="486" y="492" on="1"/>
        <pt x="490" y="512" on="0"/>
        <pt x="490" y="520" on="1"/>
        <pt x="490" y="562" on="0"/>
        <pt x="420" y="607" on="0"/>
        <pt x="289" y="607" on="0"/>
        <pt x="197" y="555" on="0"/>
        <pt x="197" y="464" on="0"/>
        <pt x="273" y="417" on="0"/>
        <pt x="381" y="391" on="0"/>
        <pt x="488" y="357" on="0"/>
        <pt x="564" y="276" on="0"/>
        <pt x="564" y="211" on="1"/>
        <pt x="564" y="-10" on="0"/>
        <pt x="271" y="-10" on="1"/>
        <pt x="165" y="-10" on="0"/>
        <pt x="36" y="72" on="0"/>
      </contour>
      <contour>
        <pt x="339" y="750" on="1"/>
        <pt x="224" y="895" on="1"/>
        <pt x="304" y="895" on="1"/>
        <pt x="386" y="806" on="1"/>
        <pt x="493" y="895" on="1"/>
        <pt x="573" y="895" on="1"/>
        <pt x="417" y="750" on="1"/>
      </contour>
    </TTGlyph>
    <TTGlyph name="T" xMin="67" yMin="0" xMax="607" yMax="686">
      <contour>
        <pt x="281" y="597" on="1"/>
        <pt x="67" y="597" on="1"/>
        <pt x="80" y="686" on="1"/>
        <pt x="607" y="686" on="1"/>
        <pt x="594" y="597" on="1"/>
        <pt x="379" y="597" on="1"/>
        <pt x="295" y="0" on="1"/>
        <pt x="197" y="0" on="1"/>
      </contour>
    </TTGlyph>
    <TTGlyph name="Thorn" xMin="51" yMin="0" xMax="605" yMax="686">
      <contour>
        <pt x="149" y="0" on="1"/>
        <pt x="51" y="0" on="1"/>
        <pt x="148" y="686" on="1"/>
        <pt x="246" y="686" on="1"/>
        <pt x="228" y="562" on="1"/>
        <pt x="426" y="562" on="1"/>
        <pt x="504" y="562" on="0"/>
        <pt x="605" y="469" on="0"/>
        <pt x="605" y="393" on="1"/>
        <pt x="605" y="287" on="0"/>
        <pt x="466" y="162" on="0"/>
        <pt x="370" y="162" on="1"/>
        <pt x="172" y="162" on="1"/>
      </contour>
      <contour>
        <pt x="216" y="473" on="1"/>
        <pt x="185" y="251" on="1"/>
        <pt x="374" y="251" on="1"/>
        <pt x="426" y="251" on="0"/>
        <pt x="506" y="327" on="0"/>
        <pt x="506" y="418" on="0"/>
        <pt x="449" y="473" on="0"/>
        <pt x="405" y="473" on="1"/>
      </contour>
    </TTGlyph>
    <TTGlyph name="U" xMin="74" yMin="-10" xMax="650" yMax="686">
      <contour>
        <pt x="74" y="180" on="1"/>
        <pt x="74" y="189" on="0"/>
        <pt x="142" y="686" on="1"/>
        <pt x="240" y="686" on="1"/>
        <pt x="207" y="440" on="0"/>
        <pt x="182" y="272" on="1"/>
        <pt x="176" y="228" on="1"/>
        <pt x="173" y="209" on="0"/>
        <pt x="173" y="200" on="1"/>
        <pt x="173" y="146" on="0"/>
        <pt x="246" y="79" on="0"/>
        <pt x="383" y="79" on="0"/>
        <pt x="478" y="157" on="0"/>
        <pt x="487" y="221" on="1"/>
        <pt x="552" y="686" on="1"/>
        <pt x="650" y="686" on="1"/>
        <pt x="585" y="219" on="1"/>
        <pt x="571" y="112" on="0"/>
        <pt x="425" y="-10" on="0"/>
        <pt x="305" y="-10" on="1"/>
        <pt x="292" y="-10" on="1"/>
        <pt x="190" y="-10" on="0"/>
        <pt x="74" y="92" on="0"/>
      </contour>
    </TTGlyph>
    <TTGlyph name="Uacute" xMin="74" yMin="-10" xMax="650" yMax="895">
      <contour>
        <pt x="74" y="180" on="1"/>
        <pt x="74" y="189" on="0"/>
        <pt x="142" y="686" on="1"/>
        <pt x="240" y="686" on="1"/>
        <pt x="207" y="440" on="0"/>
        <pt x="182" y="272" on="1"/>
        <pt x="176" y="228" on="1"/>
        <pt x="173" y="209" on="0"/>
        <pt x="173" y="200" on="1"/>
        <pt x="173" y="146" on="0"/>
        <pt x="246" y="79" on="0"/>
        <pt x="383" y="79" on="0"/>
        <pt x="478" y="157" on="0"/>
        <pt x="487" y="221" on="1"/>
        <pt x="552" y="686" on="1"/>
        <pt x="650" y="686" on="1"/>
        <pt x="585" y="219" on="1"/>
        <pt x="571" y="112" on="0"/>
        <pt x="425" y="-10" on="0"/>
        <pt x="305" y="-10" on="1"/>
        <pt x="292" y="-10" on="1"/>
        <pt x="190" y="-10" on="0"/>
        <pt x="74" y="92" on="0"/>
      </contour>
      <contour>
        <pt x="436" y="750" on="1"/>
        <pt x="367" y="750" on="1"/>
        <pt x="482" y="895" on="1"/>
        <pt x="572" y="895" on="1"/>
        <pt x="572" y="891" on="1"/>
      </contour>
    </TTGlyph>
    <TTGlyph name="Ucircumflex" xMin="74" yMin="-10" xMax="650" yMax="895">
      <contour>
        <pt x="74" y="180" on="1"/>
        <pt x="74" y="189" on="0"/>
        <pt x="142" y="686" on="1"/>
        <pt x="240" y="686" on="1"/>
        <pt x="207" y="440" on="0"/>
        <pt x="182" y="272" on="1"/>
        <pt x="176" y="228" on="1"/>
        <pt x="173" y="209" on="0"/>
        <pt x="173" y="200" on="1"/>
        <pt x="173" y="146" on="0"/>
        <pt x="246" y="79" on="0"/>
        <pt x="383" y="79" on="0"/>
        <pt x="478" y="157" on="0"/>
        <pt x="487" y="221" on="1"/>
        <pt x="552" y="686" on="1"/>
        <pt x="650" y="686" on="1"/>
        <pt x="585" y="219" on="1"/>
        <pt x="571" y="112" on="0"/>
        <pt x="425" y="-10" on="0"/>
        <pt x="305" y="-10" on="1"/>
        <pt x="292" y="-10" on="1"/>
        <pt x="190" y="-10" on="0"/>
        <pt x="74" y="92" on="0"/>
      </contour>
      <contour>
        <pt x="303" y="750" on="1"/>
        <pt x="223" y="750" on="1"/>
        <pt x="380" y="895" on="1"/>
        <pt x="458" y="895" on="1"/>
        <pt x="572" y="750" on="1"/>
        <pt x="492" y="750" on="1"/>
        <pt x="411" y="839" on="1"/>
      </contour>
    </TTGlyph>
    <TTGlyph name="Udieresis" xMin="74" yMin="-10" xMax="650" yMax="847">
      <contour>
        <pt x="74" y="180" on="1"/>
        <pt x="74" y="189" on="0"/>
        <pt x="142" y="686" on="1"/>
        <pt x="240" y="686" on="1"/>
        <pt x="207" y="440" on="0"/>
        <pt x="182" y="272" on="1"/>
        <pt x="176" y="228" on="1"/>
        <pt x="173" y="209" on="0"/>
        <pt x="173" y="200" on="1"/>
        <pt x="173" y="146" on="0"/>
        <pt x="246" y="79" on="0"/>
        <pt x="383" y="79" on="0"/>
        <pt x="478" y="157" on="0"/>
        <pt x="487" y="221" on="1"/>
        <pt x="552" y="686" on="1"/>
        <pt x="650" y="686" on="1"/>
        <pt x="585" y="219" on="1"/>
        <pt x="571" y="112" on="0"/>
        <pt x="425" y="-10" on="0"/>
        <pt x="305" y="-10" on="1"/>
        <pt x="292" y="-10" on="1"/>
        <pt x="190" y="-10" on="0"/>
        <pt x="74" y="92" on="0"/>
      </contour>
      <contour>
        <pt x="355" y="749" on="1"/>
        <pt x="265" y="749" on="1"/>
        <pt x="278" y="847" on="1"/>
        <pt x="368" y="847" on="1"/>
      </contour>
      <contour>
        <pt x="544" y="749" on="1"/>
        <pt x="453" y="749" on="1"/>
        <pt x="466" y="847" on="1"/>
        <pt x="557" y="847" on="1"/>
      </contour>
    </TTGlyph>
    <TTGlyph name="Ugrave" xMin="74" yMin="-10" xMax="650" yMax="895">
      <contour>
        <pt x="74" y="180" on="1"/>
        <pt x="74" y="189" on="0"/>
        <pt x="142" y="686" on="1"/>
        <pt x="240" y="686" on="1"/>
        <pt x="207" y="440" on="0"/>
        <pt x="182" y="272" on="1"/>
        <pt x="176" y="228" on="1"/>
        <pt x="173" y="209" on="0"/>
        <pt x="173" y="200" on="1"/>
        <pt x="173" y="146" on="0"/>
        <pt x="246" y="79" on="0"/>
        <pt x="383" y="79" on="0"/>
        <pt x="478" y="157" on="0"/>
        <pt x="487" y="221" on="1"/>
        <pt x="552" y="686" on="1"/>
        <pt x="650" y="686" on="1"/>
        <pt x="585" y="219" on="1"/>
        <pt x="571" y="112" on="0"/>
        <pt x="425" y="-10" on="0"/>
        <pt x="305" y="-10" on="1"/>
        <pt x="292" y="-10" on="1"/>
        <pt x="190" y="-10" on="0"/>
        <pt x="74" y="92" on="0"/>
      </contour>
      <contour>
        <pt x="372" y="750" on="1"/>
        <pt x="277" y="892" on="1"/>
        <pt x="279" y="895" on="1"/>
        <pt x="368" y="895" on="1"/>
        <pt x="442" y="750" on="1"/>
      </contour>
    </TTGlyph>
    <TTGlyph name="V" xMin="59" yMin="0" xMax="651" yMax="686">
      <contour>
        <pt x="205" y="0" on="1"/>
        <pt x="59" y="686" on="1"/>
        <pt x="163" y="686" on="1"/>
        <pt x="278" y="133" on="1"/>
        <pt x="284" y="133" on="1"/>
        <pt x="556" y="686" on="1"/>
        <pt x="651" y="686" on="1"/>
        <pt x="310" y="0" on="1"/>
      </contour>
    </TTGlyph>
    <TTGlyph name="W" xMin="67" yMin="0" xMax="955" yMax="686">
      <contour>
        <pt x="165" y="0" on="1"/>
        <pt x="67" y="686" on="1"/>
        <pt x="171" y="686" on="1"/>
        <pt x="243" y="169" on="1"/>
        <pt x="249" y="169" on="1"/>
        <pt x="468" y="686" on="1"/>
        <pt x="563" y="686" on="1"/>
        <pt x="635" y="169" on="1"/>
        <pt x="641" y="169" on="1"/>
        <pt x="860" y="686" on="1"/>
        <pt x="955" y="686" on="1"/>
        <pt x="657" y="0" on="1"/>
        <pt x="557" y="0" on="1"/>
        <pt x="487" y="496" on="1"/>
        <pt x="480" y="496" on="1"/>
        <pt x="265" y="0" on="1"/>
      </contour>
    </TTGlyph>
    <TTGlyph name="X" xMin="-32" yMin="0" xMax="654" yMax="685">
      <contour>
        <pt x="76" y="0" on="1"/>
        <pt x="-32" y="0" on="1"/>
        <pt x="267" y="355" on="1"/>
        <pt x="88" y="685" on="1"/>
        <pt x="205" y="685" on="1"/>
        <pt x="338" y="440" on="1"/>
        <pt x="384" y="494" on="0"/>
        <pt x="514" y="649" on="0"/>
        <pt x="528" y="665" on="1"/>
        <pt x="545" y="685" on="1"/>
        <pt x="654" y="685" on="1"/>
        <pt x="630" y="658" on="1"/>
        <pt x="610" y="634" on="0"/>
        <pt x="572" y="590" on="1"/>
        <pt x="434" y="425" on="0"/>
        <pt x="381" y="361" on="1"/>
        <pt x="579" y="0" on="1"/>
        <pt x="461" y="0" on="1"/>
        <pt x="310" y="276" on="1"/>
        <pt x="298" y="262" on="0"/>
        <pt x="111" y="39" on="0"/>
      </contour>
    </TTGlyph>
    <TTGlyph name="Y" xMin="49" yMin="0" xMax="629" yMax="686">
      <contour>
        <pt x="231" y="265" on="1"/>
        <pt x="49" y="686" on="1"/>
        <pt x="160" y="686" on="1"/>
        <pt x="298" y="367" on="1"/>
        <pt x="302" y="367" on="1"/>
        <pt x="528" y="686" on="1"/>
        <pt x="629" y="686" on="1"/>
        <pt x="329" y="265" on="1"/>
        <pt x="291" y="0" on="1"/>
        <pt x="193" y="0" on="1"/>
      </contour>
    </TTGlyph>
    <TTGlyph name="Yacute" xMin="49" yMin="0" xMax="629" yMax="895">
      <contour>
        <pt x="231" y="265" on="1"/>
        <pt x="49" y="686" on="1"/>
        <pt x="160" y="686" on="1"/>
        <pt x="298" y="367" on="1"/>
        <pt x="302" y="367" on="1"/>
        <pt x="528" y="686" on="1"/>
        <pt x="629" y="686" on="1"/>
        <pt x="329" y="265" on="1"/>
        <pt x="291" y="0" on="1"/>
        <pt x="193" y="0" on="1"/>
      </contour>
      <contour>
        <pt x="374" y="750" on="1"/>
        <pt x="305" y="750" on="1"/>
        <pt x="420" y="895" on="1"/>
        <pt x="510" y="895" on="1"/>
        <pt x="510" y="891" on="1"/>
      </contour>
    </TTGlyph>
    <TTGlyph name="Ydieresis" xMin="49" yMin="0" xMax="629" yMax="847">
      <contour>
        <pt x="231" y="265" on="1"/>
        <pt x="49" y="686" on="1"/>
        <pt x="160" y="686" on="1"/>
        <pt x="298" y="367" on="1"/>
        <pt x="302" y="367" on="1"/>
        <pt x="528" y="686" on="1"/>
        <pt x="629" y="686" on="1"/>
        <pt x="329" y="265" on="1"/>
        <pt x="291" y="0" on="1"/>
        <pt x="193" y="0" on="1"/>
      </contour>
      <contour>
        <pt x="303" y="749" on="1"/>
        <pt x="213" y="749" on="1"/>
        <pt x="226" y="847" on="1"/>
        <pt x="316" y="847" on="1"/>
      </contour>
      <contour>
        <pt x="492" y="749" on="1"/>
        <pt x="401" y="749" on="1"/>
        <pt x="414" y="847" on="1"/>
        <pt x="505" y="847" on="1"/>
      </contour>
    </TTGlyph>
    <TTGlyph name="Z" xMin="-9" yMin="0" xMax="603" yMax="686">
      <contour>
        <pt x="514" y="0" on="1"/>
        <pt x="-9" y="0" on="1"/>
        <pt x="-3" y="38" on="1"/>
        <pt x="440" y="597" on="1"/>
        <pt x="99" y="597" on="1"/>
        <pt x="112" y="686" on="1"/>
        <pt x="603" y="686" on="1"/>
        <pt x="597" y="648" on="1"/>
        <pt x="153" y="89" on="1"/>
        <pt x="527" y="89" on="1"/>
      </contour>
    </TTGlyph>
    <TTGlyph name="Zcaron" xMin="-9" yMin="0" xMax="603" yMax="895">
      <contour>
        <pt x="514" y="0" on="1"/>
        <pt x="-9" y="0" on="1"/>
        <pt x="-3" y="38" on="1"/>
        <pt x="440" y="597" on="1"/>
        <pt x="99" y="597" on="1"/>
        <pt x="112" y="686" on="1"/>
        <pt x="603" y="686" on="1"/>
        <pt x="597" y="648" on="1"/>
        <pt x="153" y="89" on="1"/>
        <pt x="527" y="89" on="1"/>
      </contour>
      <contour>
        <pt x="317" y="750" on="1"/>
        <pt x="202" y="895" on="1"/>
        <pt x="282" y="895" on="1"/>
        <pt x="364" y="806" on="1"/>
        <pt x="471" y="895" on="1"/>
        <pt x="551" y="895" on="1"/>
        <pt x="395" y="750" on="1"/>
      </contour>
    </TTGlyph>
    <TTGlyph name="a" xMin="42" yMin="-10" xMax="543" yMax="521">
      <contour>
        <pt x="42" y="190" on="1"/>
        <pt x="42" y="345" on="0"/>
        <pt x="181" y="521" on="0"/>
        <pt x="386" y="521" on="0"/>
        <pt x="427" y="446" on="1"/>
        <pt x="434" y="446" on="1"/>
        <pt x="465" y="511" on="1"/>
        <pt x="530" y="511" on="1"/>
        <pt x="514" y="412" on="0"/>
        <pt x="472" y="94" on="0"/>
        <pt x="472" y="92" on="1"/>
        <pt x="472" y="65" on="0"/>
        <pt x="521" y="65" on="0"/>
        <pt x="543" y="79" on="1"/>
        <pt x="534" y="10" on="1"/>
        <pt x="502" y="-10" on="0"/>
        <pt x="457" y="-10" on="1"/>
        <pt x="381" y="-10" on="0"/>
        <pt x="381" y="65" on="1"/>
        <pt x="312" y="-10" on="0"/>
        <pt x="216" y="-10" on="1"/>
        <pt x="137" y="-10" on="0"/>
        <pt x="42" y="91" on="0"/>
      </contour>
      <contour>
        <pt x="135" y="124" on="0"/>
        <pt x="191" y="65" on="0"/>
        <pt x="244" y="65" on="1"/>
        <pt x="324" y="65" on="0"/>
        <pt x="406" y="207" on="0"/>
        <pt x="406" y="318" on="1"/>
        <pt x="406" y="446" on="0"/>
        <pt x="297" y="446" on="1"/>
        <pt x="251" y="446" on="0"/>
        <pt x="183" y="397" on="0"/>
        <pt x="166" y="357" on="1"/>
        <pt x="135" y="281" on="0"/>
      </contour>
    </TTGlyph>
    <TTGlyph name="aacute" xMin="42" yMin="-10" xMax="543" yMax="720">
      <contour>
        <pt x="42" y="190" on="1"/>
        <pt x="42" y="345" on="0"/>
        <pt x="181" y="521" on="0"/>
        <pt x="386" y="521" on="0"/>
        <pt x="427" y="446" on="1"/>
        <pt x="434" y="446" on="1"/>
        <pt x="465" y="511" on="1"/>
        <pt x="530" y="511" on="1"/>
        <pt x="514" y="412" on="0"/>
        <pt x="472" y="94" on="0"/>
        <pt x="472" y="92" on="1"/>
        <pt x="472" y="65" on="0"/>
        <pt x="521" y="65" on="0"/>
        <pt x="543" y="79" on="1"/>
        <pt x="534" y="10" on="1"/>
        <pt x="502" y="-10" on="0"/>
        <pt x="457" y="-10" on="1"/>
        <pt x="381" y="-10" on="0"/>
        <pt x="381" y="65" on="1"/>
        <pt x="312" y="-10" on="0"/>
        <pt x="216" y="-10" on="1"/>
        <pt x="137" y="-10" on="0"/>
        <pt x="42" y="91" on="0"/>
      </contour>
      <contour>
        <pt x="135" y="124" on="0"/>
        <pt x="191" y="65" on="0"/>
        <pt x="244" y="65" on="1"/>
        <pt x="324" y="65" on="0"/>
        <pt x="406" y="207" on="0"/>
        <pt x="406" y="318" on="1"/>
        <pt x="406" y="446" on="0"/>
        <pt x="297" y="446" on="1"/>
        <pt x="251" y="446" on="0"/>
        <pt x="183" y="397" on="0"/>
        <pt x="166" y="357" on="1"/>
        <pt x="135" y="281" on="0"/>
      </contour>
      <contour>
        <pt x="331" y="575" on="1"/>
        <pt x="262" y="575" on="1"/>
        <pt x="377" y="720" on="1"/>
        <pt x="467" y="720" on="1"/>
        <pt x="467" y="716" on="1"/>
      </contour>
    </TTGlyph>
    <TTGlyph name="acircumflex" xMin="42" yMin="-10" xMax="543" yMax="720">
      <contour>
        <pt x="42" y="190" on="1"/>
        <pt x="42" y="345" on="0"/>
        <pt x="181" y="521" on="0"/>
        <pt x="386" y="521" on="0"/>
        <pt x="427" y="446" on="1"/>
        <pt x="434" y="446" on="1"/>
        <pt x="465" y="511" on="1"/>
        <pt x="530" y="511" on="1"/>
        <pt x="514" y="412" on="0"/>
        <pt x="472" y="94" on="0"/>
        <pt x="472" y="92" on="1"/>
        <pt x="472" y="65" on="0"/>
        <pt x="521" y="65" on="0"/>
        <pt x="543" y="79" on="1"/>
        <pt x="534" y="10" on="1"/>
        <pt x="502" y="-10" on="0"/>
        <pt x="457" y="-10" on="1"/>
        <pt x="381" y="-10" on="0"/>
        <pt x="381" y="65" on="1"/>
        <pt x="312" y="-10" on="0"/>
        <pt x="216" y="-10" on="1"/>
        <pt x="137" y="-10" on="0"/>
        <pt x="42" y="91" on="0"/>
      </contour>
      <contour>
        <pt x="135" y="124" on="0"/>
        <pt x="191" y="65" on="0"/>
        <pt x="244" y="65" on="1"/>
        <pt x="324" y="65" on="0"/>
        <pt x="406" y="207" on="0"/>
        <pt x="406" y="318" on="1"/>
        <pt x="406" y="446" on="0"/>
        <pt x="297" y="446" on="1"/>
        <pt x="251" y="446" on="0"/>
        <pt x="183" y="397" on="0"/>
        <pt x="166" y="357" on="1"/>
        <pt x="135" y="281" on="0"/>
      </contour>
      <contour>
        <pt x="225" y="575" on="1"/>
        <pt x="145" y="575" on="1"/>
        <pt x="302" y="720" on="1"/>
        <pt x="380" y="720" on="1"/>
        <pt x="494" y="575" on="1"/>
        <pt x="414" y="575" on="1"/>
        <pt x="333" y="664" on="1"/>
      </contour>
    </TTGlyph>
    <TTGlyph name="acute" xMin="56" yMin="575" xMax="261" yMax="720">
      <contour>
        <pt x="125" y="575" on="1"/>
        <pt x="56" y="575" on="1"/>
        <pt x="171" y="720" on="1"/>
        <pt x="261" y="720" on="1"/>
        <pt x="261" y="716" on="1"/>
      </contour>
    </TTGlyph>
    <TTGlyph name="adieresis" xMin="42" yMin="-10" xMax="543" yMax="720">
      <contour>
        <pt x="42" y="190" on="1"/>
        <pt x="42" y="345" on="0"/>
        <pt x="181" y="521" on="0"/>
        <pt x="386" y="521" on="0"/>
        <pt x="427" y="446" on="1"/>
        <pt x="434" y="446" on="1"/>
        <pt x="465" y="511" on="1"/>
        <pt x="530" y="511" on="1"/>
        <pt x="514" y="412" on="0"/>
        <pt x="472" y="94" on="0"/>
        <pt x="472" y="92" on="1"/>
        <pt x="472" y="65" on="0"/>
        <pt x="521" y="65" on="0"/>
        <pt x="543" y="79" on="1"/>
        <pt x="534" y="10" on="1"/>
        <pt x="502" y="-10" on="0"/>
        <pt x="457" y="-10" on="1"/>
        <pt x="381" y="-10" on="0"/>
        <pt x="381" y="65" on="1"/>
        <pt x="312" y="-10" on="0"/>
        <pt x="216" y="-10" on="1"/>
        <pt x="137" y="-10" on="0"/>
        <pt x="42" y="91" on="0"/>
      </contour>
      <contour>
        <pt x="135" y="124" on="0"/>
        <pt x="191" y="65" on="0"/>
        <pt x="244" y="65" on="1"/>
        <pt x="324" y="65" on="0"/>
        <pt x="406" y="207" on="0"/>
        <pt x="406" y="318" on="1"/>
        <pt x="406" y="446" on="0"/>
        <pt x="297" y="446" on="1"/>
        <pt x="251" y="446" on="0"/>
        <pt x="183" y="397" on="0"/>
        <pt x="166" y="357" on="1"/>
        <pt x="135" y="281" on="0"/>
      </contour>
      <contour>
        <pt x="270" y="622" on="1"/>
        <pt x="180" y="622" on="1"/>
        <pt x="193" y="720" on="1"/>
        <pt x="283" y="720" on="1"/>
      </contour>
      <contour>
        <pt x="459" y="622" on="1"/>
        <pt x="368" y="622" on="1"/>
        <pt x="381" y="720" on="1"/>
        <pt x="472" y="720" on="1"/>
      </contour>
    </TTGlyph>
    <TTGlyph name="ae" xMin="25" yMin="-10" xMax="846" yMax="521">
      <contour>
        <pt x="25" y="117" on="1"/>
        <pt x="25" y="211" on="0"/>
        <pt x="94" y="256" on="1"/>
        <pt x="152" y="295" on="0"/>
        <pt x="274" y="304" on="1"/>
        <pt x="324" y="307" on="0"/>
        <pt x="393" y="307" on="1"/>
        <pt x="400" y="352" on="0"/>
        <pt x="400" y="368" on="1"/>
        <pt x="400" y="374" on="1"/>
        <pt x="400" y="446" on="0"/>
        <pt x="187" y="446" on="0"/>
        <pt x="170" y="366" on="1"/>
        <pt x="168" y="354" on="1"/>
        <pt x="76" y="354" on="1"/>
        <pt x="76" y="428" on="0"/>
        <pt x="208" y="521" on="0"/>
        <pt x="308" y="521" on="1"/>
        <pt x="317" y="521" on="1"/>
        <pt x="442" y="521" on="0"/>
        <pt x="481" y="457" on="1"/>
        <pt x="551" y="521" on="0"/>
        <pt x="653" y="521" on="1"/>
        <pt x="660" y="521" on="1"/>
        <pt x="745" y="521" on="0"/>
        <pt x="846" y="427" on="0"/>
        <pt x="846" y="344" on="1"/>
        <pt x="846" y="302" on="0"/>
        <pt x="833" y="234" on="1"/>
        <pt x="476" y="234" on="1"/>
        <pt x="474" y="212" on="0"/>
        <pt x="474" y="202" on="1"/>
        <pt x="474" y="65" on="0"/>
        <pt x="595" y="65" on="1"/>
        <pt x="634" y="65" on="0"/>
        <pt x="693" y="93" on="0"/>
        <pt x="708" y="116" on="1"/>
        <pt x="732" y="155" on="0"/>
        <pt x="738" y="190" on="1"/>
        <pt x="827" y="190" on="1"/>
        <pt x="815" y="99" on="0"/>
        <pt x="679" y="-10" on="0"/>
        <pt x="585" y="-10" on="1"/>
        <pt x="581" y="-10" on="1"/>
        <pt x="445" y="-10" on="0"/>
        <pt x="397" y="101" on="1"/>
        <pt x="353" y="45" on="0"/>
        <pt x="248" y="-10" on="0"/>
        <pt x="178" y="-10" on="1"/>
        <pt x="25" y="-10" on="0"/>
      </contour>
      <contour>
        <pt x="156" y="205" on="0"/>
        <pt x="120" y="165" on="0"/>
        <pt x="120" y="94" on="0"/>
        <pt x="164" y="65" on="0"/>
        <pt x="273" y="65" on="0"/>
        <pt x="371" y="147" on="0"/>
        <pt x="380" y="214" on="1"/>
        <pt x="382" y="234" on="1"/>
        <pt x="258" y="234" on="0"/>
      </contour>
      <contour>
        <pt x="489" y="307" on="1"/>
        <pt x="751" y="307" on="1"/>
        <pt x="754" y="327" on="0"/>
        <pt x="754" y="343" on="1"/>
        <pt x="754" y="393" on="0"/>
        <pt x="694" y="446" on="0"/>
        <pt x="587" y="446" on="0"/>
        <pt x="506" y="376" on="0"/>
      </contour>
    </TTGlyph>
    <TTGlyph name="agrave" xMin="42" yMin="-10" xMax="543" yMax="720">
      <contour>
        <pt x="42" y="190" on="1"/>
        <pt x="42" y="345" on="0"/>
        <pt x="181" y="521" on="0"/>
        <pt x="386" y="521" on="0"/>
        <pt x="427" y="446" on="1"/>
        <pt x="434" y="446" on="1"/>
        <pt x="465" y="511" on="1"/>
        <pt x="530" y="511" on="1"/>
        <pt x="514" y="412" on="0"/>
        <pt x="472" y="94" on="0"/>
        <pt x="472" y="92" on="1"/>
        <pt x="472" y="65" on="0"/>
        <pt x="521" y="65" on="0"/>
        <pt x="543" y="79" on="1"/>
        <pt x="534" y="10" on="1"/>
        <pt x="502" y="-10" on="0"/>
        <pt x="457" y="-10" on="1"/>
        <pt x="381" y="-10" on="0"/>
        <pt x="381" y="65" on="1"/>
        <pt x="312" y="-10" on="0"/>
        <pt x="216" y="-10" on="1"/>
        <pt x="137" y="-10" on="0"/>
        <pt x="42" y="91" on="0"/>
      </contour>
      <contour>
        <pt x="135" y="124" on="0"/>
        <pt x="191" y="65" on="0"/>
        <pt x="244" y="65" on="1"/>
        <pt x="324" y="65" on="0"/>
        <pt x="406" y="207" on="0"/>
        <pt x="406" y="318" on="1"/>
        <pt x="406" y="446" on="0"/>
        <pt x="297" y="446" on="1"/>
        <pt x="251" y="446" on="0"/>
        <pt x="183" y="397" on="0"/>
        <pt x="166" y="357" on="1"/>
        <pt x="135" y="281" on="0"/>
      </contour>
      <contour>
        <pt x="274" y="575" on="1"/>
        <pt x="179" y="717" on="1"/>
        <pt x="181" y="720" on="1"/>
        <pt x="270" y="720" on="1"/>
        <pt x="344" y="575" on="1"/>
      </contour>
    </TTGlyph>
    <TTGlyph name="ampersand" xMin="43" yMin="0" xMax="648" yMax="696">
      <contour>
        <pt x="164" y="0" on="0"/>
        <pt x="43" y="83" on="0"/>
        <pt x="43" y="240" on="0"/>
        <pt x="125" y="334" on="0"/>
        <pt x="193" y="354" on="1"/>
        <pt x="197" y="356" on="1"/>
        <pt x="103" y="402" on="0"/>
        <pt x="103" y="590" on="0"/>
        <pt x="242" y="696" on="0"/>
        <pt x="356" y="696" on="1"/>
        <pt x="384" y="696" on="0"/>
        <pt x="417" y="689" on="1"/>
        <pt x="405" y="598" on="1"/>
        <pt x="374" y="607" on="0"/>
        <pt x="350" y="607" on="1"/>
        <pt x="283" y="607" on="0"/>
        <pt x="200" y="553" on="0"/>
        <pt x="200" y="454" on="0"/>
        <pt x="266" y="395" on="0"/>
        <pt x="321" y="395" on="1"/>
        <pt x="444" y="395" on="1"/>
        <pt x="492" y="538" on="1"/>
        <pt x="560" y="538" on="1"/>
        <pt x="540" y="395" on="1"/>
        <pt x="648" y="395" on="1"/>
        <pt x="636" y="306" on="1"/>
        <pt x="528" y="306" on="1"/>
        <pt x="485" y="0" on="1"/>
        <pt x="260" y="0" on="1"/>
      </contour>
      <contour>
        <pt x="235" y="306" on="0"/>
        <pt x="142" y="243" on="0"/>
        <pt x="142" y="134" on="0"/>
        <pt x="221" y="89" on="0"/>
        <pt x="286" y="89" on="1"/>
        <pt x="399" y="89" on="1"/>
        <pt x="430" y="306" on="1"/>
        <pt x="316" y="306" on="1"/>
      </contour>
    </TTGlyph>
    <TTGlyph name="approxequal" xMin="-7" yMin="61" xMax="610" yMax="445">
      <contour>
        <pt x="-7" y="61" on="1"/>
        <pt x="4" y="146" on="1"/>
        <pt x="26" y="167" on="0"/>
        <pt x="55" y="185" on="1"/>
        <pt x="121" y="224" on="0"/>
        <pt x="221" y="224" on="0"/>
        <pt x="363" y="158" on="0"/>
        <pt x="468" y="158" on="0"/>
        <pt x="530" y="197" on="1"/>
        <pt x="558" y="214" on="0"/>
        <pt x="581" y="236" on="1"/>
        <pt x="569" y="151" on="1"/>
        <pt x="546" y="128" on="0"/>
        <pt x="518" y="112" on="1"/>
        <pt x="456" y="73" on="0"/>
        <pt x="352" y="73" on="0"/>
        <pt x="210" y="139" on="0"/>
        <pt x="108" y="139" on="0"/>
        <pt x="44" y="100" on="1"/>
        <pt x="17" y="82" on="0"/>
      </contour>
      <contour>
        <pt x="22" y="270" on="1"/>
        <pt x="34" y="355" on="1"/>
        <pt x="56" y="376" on="0"/>
        <pt x="85" y="394" on="1"/>
        <pt x="151" y="433" on="0"/>
        <pt x="251" y="433" on="0"/>
        <pt x="393" y="367" on="0"/>
        <pt x="499" y="367" on="0"/>
        <pt x="559" y="406" on="1"/>
        <pt x="586" y="422" on="0"/>
        <pt x="610" y="445" on="1"/>
        <pt x="599" y="360" on="1"/>
        <pt x="576" y="338" on="0"/>
        <pt x="548" y="321" on="1"/>
        <pt x="486" y="282" on="0"/>
        <pt x="382" y="282" on="0"/>
        <pt x="240" y="348" on="0"/>
        <pt x="139" y="348" on="0"/>
        <pt x="73" y="309" on="1"/>
        <pt x="44" y="291" on="0"/>
      </contour>
    </TTGlyph>
    <TTGlyph name="aring" xMin="42" yMin="-10" xMax="543" yMax="750">
      <contour>
        <pt x="42" y="190" on="1"/>
        <pt x="42" y="345" on="0"/>
        <pt x="181" y="521" on="0"/>
        <pt x="386" y="521" on="0"/>
        <pt x="427" y="446" on="1"/>
        <pt x="434" y="446" on="1"/>
        <pt x="465" y="511" on="1"/>
        <pt x="530" y="511" on="1"/>
        <pt x="514" y="412" on="0"/>
        <pt x="472" y="94" on="0"/>
        <pt x="472" y="92" on="1"/>
        <pt x="472" y="65" on="0"/>
        <pt x="521" y="65" on="0"/>
        <pt x="543" y="79" on="1"/>
        <pt x="534" y="10" on="1"/>
        <pt x="502" y="-10" on="0"/>
        <pt x="457" y="-10" on="1"/>
        <pt x="381" y="-10" on="0"/>
        <pt x="381" y="65" on="1"/>
        <pt x="312" y="-10" on="0"/>
        <pt x="216" y="-10" on="1"/>
        <pt x="137" y="-10" on="0"/>
        <pt x="42" y="91" on="0"/>
      </contour>
      <contour>
        <pt x="135" y="124" on="0"/>
        <pt x="191" y="65" on="0"/>
        <pt x="244" y="65" on="1"/>
        <pt x="324" y="65" on="0"/>
        <pt x="406" y="207" on="0"/>
        <pt x="406" y="318" on="1"/>
        <pt x="406" y="446" on="0"/>
        <pt x="297" y="446" on="1"/>
        <pt x="251" y="446" on="0"/>
        <pt x="183" y="397" on="0"/>
        <pt x="166" y="357" on="1"/>
        <pt x="135" y="281" on="0"/>
      </contour>
      <contour>
        <pt x="279" y="548" on="0"/>
        <pt x="225" y="600" on="0"/>
        <pt x="225" y="688" on="0"/>
        <pt x="291" y="750" on="0"/>
        <pt x="376" y="750" on="0"/>
        <pt x="430" y="697" on="0"/>
        <pt x="430" y="612" on="0"/>
        <pt x="364" y="548" on="0"/>
      </contour>
      <contour>
        <pt x="306" y="709" on="0"/>
        <pt x="270" y="672" on="0"/>
        <pt x="270" y="621" on="0"/>
        <pt x="300" y="589" on="0"/>
        <pt x="348" y="589" on="0"/>
        <pt x="385" y="627" on="0"/>
        <pt x="385" y="677" on="0"/>
        <pt x="355" y="709" on="0"/>
      </contour>
    </TTGlyph>
    <TTGlyph name="asciicircum" xMin="12" yMin="0" xMax="509" yMax="511">
      <contour>
        <pt x="320" y="421" on="1"/>
        <pt x="96" y="0" on="1"/>
        <pt x="12" y="0" on="1"/>
        <pt x="280" y="511" on="1"/>
        <pt x="383" y="511" on="1"/>
        <pt x="509" y="0" on="1"/>
        <pt x="425" y="0" on="1"/>
        <pt x="407" y="70" on="0"/>
      </contour>
    </TTGlyph>
    <TTGlyph name="asciitilde" xMin="53" yMin="211" xMax="642" yMax="386">
      <contour>
        <pt x="53" y="211" on="1"/>
        <pt x="65" y="296" on="1"/>
        <pt x="88" y="317" on="0"/>
        <pt x="116" y="335" on="1"/>
        <pt x="182" y="374" on="0"/>
        <pt x="282" y="374" on="0"/>
        <pt x="424" y="308" on="0"/>
        <pt x="529" y="308" on="0"/>
        <pt x="591" y="347" on="1"/>
        <pt x="620" y="364" on="0"/>
        <pt x="642" y="386" on="1"/>
        <pt x="630" y="301" on="1"/>
        <pt x="608" y="278" on="0"/>
        <pt x="579" y="262" on="1"/>
        <pt x="517" y="223" on="0"/>
        <pt x="413" y="223" on="0"/>
        <pt x="271" y="289" on="0"/>
        <pt x="170" y="289" on="0"/>
        <pt x="104" y="250" on="1"/>
        <pt x="76" y="232" on="0"/>
      </contour>
    </TTGlyph>
    <TTGlyph name="asterisk" xMin="59" yMin="294" xMax="470" yMax="686">
      <contour>
        <pt x="217" y="469" on="1"/>
        <pt x="59" y="509" on="1"/>
        <pt x="95" y="586" on="1"/>
        <pt x="241" y="520" on="1"/>
        <pt x="251" y="686" on="1"/>
        <pt x="330" y="686" on="1"/>
        <pt x="291" y="519" on="1"/>
        <pt x="458" y="584" on="1"/>
        <pt x="470" y="506" on="1"/>
        <pt x="299" y="468" on="1"/>
        <pt x="391" y="343" on="1"/>
        <pt x="320" y="294" on="1"/>
        <pt x="252" y="438" on="1"/>
        <pt x="145" y="296" on="1"/>
        <pt x="88" y="344" on="1"/>
      </contour>
    </TTGlyph>
    <TTGlyph name="at" xMin="27" yMin="-153" xMax="866" yMax="697">
      <contour>
        <pt x="27" y="163" on="1"/>
        <pt x="27" y="385" on="0"/>
        <pt x="144" y="536" on="1"/>
        <pt x="202" y="611" on="0"/>
        <pt x="394" y="697" on="0"/>
        <pt x="517" y="697" on="1"/>
        <pt x="678" y="697" on="0"/>
        <pt x="866" y="550" on="0"/>
        <pt x="866" y="397" on="1"/>
        <pt x="866" y="270" on="0"/>
        <pt x="816" y="155" on="1"/>
        <pt x="791" y="96" on="0"/>
        <pt x="695" y="22" on="0"/>
        <pt x="631" y="22" on="1"/>
        <pt x="543" y="22" on="0"/>
        <pt x="543" y="109" on="1"/>
        <pt x="537" y="106" on="1"/>
        <pt x="471" y="22" on="0"/>
        <pt x="361" y="22" on="1"/>
        <pt x="296" y="22" on="0"/>
        <pt x="221" y="75" on="0"/>
        <pt x="221" y="201" on="0"/>
        <pt x="272" y="273" on="0"/>
        <pt x="375" y="308" on="0"/>
        <pt x="486" y="320" on="0"/>
        <pt x="567" y="320" on="1"/>
        <pt x="575" y="376" on="0"/>
        <pt x="575" y="384" on="1"/>
        <pt x="575" y="451" on="0"/>
        <pt x="376" y="451" on="0"/>
        <pt x="358" y="375" on="1"/>
        <pt x="356" y="364" on="1"/>
        <pt x="270" y="364" on="1"/>
        <pt x="270" y="433" on="0"/>
        <pt x="393" y="521" on="0"/>
        <pt x="487" y="521" on="1"/>
        <pt x="496" y="521" on="1"/>
        <pt x="666" y="521" on="0"/>
        <pt x="666" y="400" on="1"/>
        <pt x="666" y="388" on="0"/>
        <pt x="638" y="197" on="1"/>
        <pt x="631" y="148" on="1"/>
        <pt x="628" y="127" on="0"/>
        <pt x="628" y="121" on="1"/>
        <pt x="628" y="91" on="0"/>
        <pt x="701" y="91" on="0"/>
        <pt x="761" y="157" on="0"/>
        <pt x="776" y="207" on="1"/>
        <pt x="806" y="302" on="0"/>
        <pt x="806" y="388" on="1"/>
        <pt x="806" y="517" on="0"/>
        <pt x="649" y="642" on="0"/>
        <pt x="509" y="642" on="1"/>
        <pt x="322" y="642" on="0"/>
        <pt x="87" y="393" on="0"/>
        <pt x="87" y="168" on="1"/>
        <pt x="87" y="33" on="0"/>
        <pt x="226" y="-98" on="0"/>
        <pt x="370" y="-98" on="1"/>
        <pt x="407" y="-98" on="0"/>
        <pt x="513" y="-79" on="0"/>
        <pt x="540" y="-66" on="1"/>
        <pt x="532" y="-126" on="1"/>
        <pt x="500" y="-137" on="0"/>
        <pt x="397" y="-153" on="0"/>
        <pt x="363" y="-153" on="1"/>
        <pt x="202" y="-153" on="0"/>
        <pt x="27" y="3" on="0"/>
      </contour>
      <contour>
        <pt x="310" y="161" on="1"/>
        <pt x="310" y="123" on="0"/>
        <pt x="353" y="92" on="0"/>
        <pt x="456" y="92" on="0"/>
        <pt x="546" y="169" on="0"/>
        <pt x="555" y="233" on="1"/>
        <pt x="558" y="251" on="1"/>
        <pt x="437" y="251" on="0"/>
        <pt x="310" y="213" on="0"/>
      </contour>
    </TTGlyph>
    <TTGlyph name="atilde" xMin="42" yMin="-10" xMax="543" yMax="720">
      <contour>
        <pt x="42" y="190" on="1"/>
        <pt x="42" y="345" on="0"/>
        <pt x="181" y="521" on="0"/>
        <pt x="386" y="521" on="0"/>
        <pt x="427" y="446" on="1"/>
        <pt x="434" y="446" on="1"/>
        <pt x="465" y="511" on="1"/>
        <pt x="530" y="511" on="1"/>
        <pt x="514" y="412" on="0"/>
        <pt x="472" y="94" on="0"/>
        <pt x="472" y="92" on="1"/>
        <pt x="472" y="65" on="0"/>
        <pt x="521" y="65" on="0"/>
        <pt x="543" y="79" on="1"/>
        <pt x="534" y="10" on="1"/>
        <pt x="502" y="-10" on="0"/>
        <pt x="457" y="-10" on="1"/>
        <pt x="381" y="-10" on="0"/>
        <pt x="381" y="65" on="1"/>
        <pt x="312" y="-10" on="0"/>
        <pt x="216" y="-10" on="1"/>
        <pt x="137" y="-10" on="0"/>
        <pt x="42" y="91" on="0"/>
      </contour>
      <contour>
        <pt x="177" y="616" on="1"/>
        <pt x="129" y="616" on="1"/>
        <pt x="136" y="656" on="0"/>
        <pt x="202" y="720" on="0"/>
        <pt x="255" y="720" on="1"/>
        <pt x="288" y="720" on="0"/>
        <pt x="393" y="685" on="0"/>
        <pt x="418" y="685" on="1"/>
        <pt x="463" y="685" on="0"/>
        <pt x="478" y="720" on="1"/>
        <pt x="528" y="720" on="1"/>
        <pt x="521" y="679" on="0"/>
        <pt x="455" y="616" on="0"/>
        <pt x="401" y="616" on="1"/>
        <pt x="368" y="616" on="0"/>
        <pt x="263" y="650" on="0"/>
        <pt x="237" y="650" on="1"/>
        <pt x="192" y="650" on="0"/>
      </contour>
      <contour>
        <pt x="135" y="124" on="0"/>
        <pt x="191" y="65" on="0"/>
        <pt x="244" y="65" on="1"/>
        <pt x="324" y="65" on="0"/>
        <pt x="406" y="207" on="0"/>
        <pt x="406" y="318" on="1"/>
        <pt x="406" y="446" on="0"/>
        <pt x="297" y="446" on="1"/>
        <pt x="251" y="446" on="0"/>
        <pt x="183" y="397" on="0"/>
        <pt x="166" y="357" on="1"/>
        <pt x="135" y="281" on="0"/>
      </contour>
    </TTGlyph>
    <TTGlyph name="b" xMin="42" yMin="-10" xMax="531" yMax="720">
      <contour>
        <pt x="78" y="0" on="1"/>
        <pt x="42" y="0" on="1"/>
        <pt x="143" y="720" on="1"/>
        <pt x="237" y="720" on="1"/>
        <pt x="198" y="446" on="1"/>
        <pt x="262" y="521" on="0"/>
        <pt x="363" y="521" on="1"/>
        <pt x="438" y="521" on="0"/>
        <pt x="531" y="419" on="0"/>
        <pt x="531" y="325" on="1"/>
        <pt x="531" y="207" on="0"/>
        <pt x="476" y="106" on="1"/>
        <pt x="448" y="54" on="0"/>
        <pt x="347" y="-10" on="0"/>
        <pt x="281" y="-10" on="1"/>
        <pt x="167" y="-10" on="0"/>
        <pt x="122" y="81" on="1"/>
      </contour>
      <contour>
        <pt x="193" y="367" on="0"/>
        <pt x="165" y="259" on="0"/>
        <pt x="165" y="124" on="0"/>
        <pt x="221" y="65" on="0"/>
        <pt x="274" y="65" on="1"/>
        <pt x="350" y="65" on="0"/>
        <pt x="436" y="195" on="0"/>
        <pt x="436" y="446" on="0"/>
        <pt x="327" y="446" on="1"/>
        <pt x="269" y="446" on="0"/>
      </contour>
    </TTGlyph>
    <TTGlyph name="backslash" xMin="68" yMin="-171" xMax="515" yMax="686">
      <contour>
        <pt x="434" y="-171" on="1"/>
        <pt x="68" y="686" on="1"/>
        <pt x="147" y="686" on="1"/>
        <pt x="515" y="-171" on="1"/>
      </contour>
    </TTGlyph>
    <TTGlyph name="bar" xMin="102" yMin="-199" xMax="182" yMax="721">
      <contour>
        <pt x="182" y="-199" on="1"/>
        <pt x="102" y="-199" on="1"/>
        <pt x="102" y="721" on="1"/>
        <pt x="182" y="721" on="1"/>
      </contour>
    </TTGlyph>
    <TTGlyph name="braceleft" xMin="30" yMin="-159" xMax="330" yMax="686">
      <contour>
        <pt x="30" y="224" on="1"/>
        <pt x="41" y="303" on="1"/>
        <pt x="73" y="303" on="0"/>
        <pt x="123" y="330" on="0"/>
        <pt x="126" y="360" on="1"/>
        <pt x="152" y="546" on="1"/>
        <pt x="163" y="628" on="0"/>
        <pt x="256" y="686" on="0"/>
        <pt x="330" y="686" on="1"/>
        <pt x="323" y="636" on="1"/>
        <pt x="244" y="636" on="0"/>
        <pt x="234" y="565" on="1"/>
        <pt x="229" y="526" on="0"/>
        <pt x="200" y="371" on="1"/>
        <pt x="191" y="320" on="0"/>
        <pt x="142" y="268" on="0"/>
        <pt x="96" y="268" on="1"/>
        <pt x="95" y="259" on="1"/>
        <pt x="135" y="259" on="0"/>
        <pt x="170" y="220" on="0"/>
        <pt x="170" y="150" on="0"/>
        <pt x="159" y="55" on="1"/>
        <pt x="152" y="-5" on="1"/>
        <pt x="148" y="-30" on="0"/>
        <pt x="148" y="-83" on="0"/>
        <pt x="189" y="-109" on="0"/>
        <pt x="218" y="-109" on="1"/>
        <pt x="211" y="-159" on="1"/>
        <pt x="145" y="-159" on="0"/>
        <pt x="70" y="-114" on="0"/>
        <pt x="70" y="-52" on="1"/>
        <pt x="70" y="-18" on="0"/>
        <pt x="99" y="154" on="0"/>
        <pt x="99" y="200" on="0"/>
        <pt x="58" y="224" on="0"/>
      </contour>
    </TTGlyph>
    <TTGlyph name="braceright" xMin="-23" yMin="-159" xMax="276" yMax="686">
      <contour>
        <pt x="-23" y="-159" on="1"/>
        <pt x="-16" y="-109" on="1"/>
        <pt x="60" y="-109" on="0"/>
        <pt x="72" y="-38" on="1"/>
        <pt x="87" y="51" on="0"/>
        <pt x="106" y="156" on="1"/>
        <pt x="115" y="207" on="0"/>
        <pt x="164" y="259" on="0"/>
        <pt x="210" y="259" on="1"/>
        <pt x="211" y="268" on="1"/>
        <pt x="135" y="268" on="0"/>
        <pt x="135" y="345" on="1"/>
        <pt x="135" y="369" on="0"/>
        <pt x="158" y="575" on="0"/>
        <pt x="158" y="579" on="1"/>
        <pt x="158" y="636" on="0"/>
        <pt x="89" y="636" on="1"/>
        <pt x="96" y="686" on="1"/>
        <pt x="161" y="686" on="0"/>
        <pt x="235" y="641" on="0"/>
        <pt x="235" y="579" on="1"/>
        <pt x="235" y="558" on="0"/>
        <pt x="206" y="352" on="1"/>
        <pt x="206" y="327" on="0"/>
        <pt x="247" y="303" on="0"/>
        <pt x="276" y="303" on="1"/>
        <pt x="265" y="224" on="1"/>
        <pt x="234" y="224" on="0"/>
        <pt x="183" y="196" on="0"/>
        <pt x="180" y="167" on="1"/>
        <pt x="154" y="-19" on="1"/>
        <pt x="143" y="-101" on="0"/>
        <pt x="50" y="-159" on="0"/>
      </contour>
    </TTGlyph>
    <TTGlyph name="bracketleft" xMin="22" yMin="-161" xMax="310" yMax="686">
      <contour>
        <pt x="191" y="-161" on="1"/>
        <pt x="22" y="-161" on="1"/>
        <pt x="141" y="686" on="1"/>
        <pt x="310" y="686" on="1"/>
        <pt x="302" y="631" on="1"/>
        <pt x="214" y="631" on="1"/>
        <pt x="111" y="-106" on="1"/>
        <pt x="199" y="-106" on="1"/>
      </contour>
    </TTGlyph>
    <TTGlyph name="bracketright" xMin="-24" yMin="-161" xMax="264" yMax="686">
      <contour>
        <pt x="145" y="-161" on="1"/>
        <pt x="-24" y="-161" on="1"/>
        <pt x="-16" y="-106" on="1"/>
        <pt x="72" y="-106" on="1"/>
        <pt x="175" y="631" on="1"/>
        <pt x="87" y="631" on="1"/>
        <pt x="95" y="686" on="1"/>
        <pt x="264" y="686" on="1"/>
      </contour>
    </TTGlyph>
    <TTGlyph name="breve" xMin="74" yMin="613" xMax="460" yMax="737">
      <contour>
        <pt x="74" y="729" on="1"/>
        <pt x="74" y="735" on="0"/>
        <pt x="75" y="737" on="1"/>
        <pt x="142" y="737" on="1"/>
        <pt x="147" y="710" on="0"/>
        <pt x="213" y="675" on="0"/>
        <pt x="306" y="675" on="0"/>
        <pt x="380" y="710" on="0"/>
        <pt x="392" y="737" on="1"/>
        <pt x="460" y="737" on="1"/>
        <pt x="454" y="693" on="0"/>
        <pt x="328" y="613" on="0"/>
        <pt x="178" y="613" on="0"/>
        <pt x="74" y="686" on="0"/>
      </contour>
    </TTGlyph>
    <TTGlyph name="brokenbar" xMin="49" yMin="0" xMax="235" yMax="686">
      <contour>
        <pt x="138" y="0" on="1"/>
        <pt x="49" y="0" on="1"/>
        <pt x="87" y="266" on="1"/>
        <pt x="176" y="266" on="1"/>
      </contour>
      <contour>
        <pt x="197" y="419" on="1"/>
        <pt x="108" y="419" on="1"/>
        <pt x="146" y="686" on="1"/>
        <pt x="235" y="686" on="1"/>
      </contour>
    </TTGlyph>
    <TTGlyph name="bullet" xMin="155" yMin="191" xMax="458" yMax="496">
      <contour>
        <pt x="228" y="191" on="0"/>
        <pt x="155" y="266" on="0"/>
        <pt x="155" y="393" on="0"/>
        <pt x="253" y="496" on="0"/>
        <pt x="327" y="496" on="1"/>
        <pt x="384" y="496" on="0"/>
        <pt x="458" y="421" on="0"/>
        <pt x="458" y="296" on="0"/>
        <pt x="362" y="191" on="0"/>
        <pt x="284" y="191" on="1"/>
      </contour>
    </TTGlyph>
    <TTGlyph name="c" xMin="42" yMin="-10" xMax="502" yMax="521">
      <contour>
        <pt x="42" y="191" on="1"/>
        <pt x="42" y="333" on="0"/>
        <pt x="178" y="521" on="0"/>
        <pt x="309" y="521" on="1"/>
        <pt x="317" y="521" on="1"/>
        <pt x="401" y="521" on="0"/>
        <pt x="502" y="427" on="0"/>
        <pt x="502" y="346" on="1"/>
        <pt x="502" y="330" on="0"/>
        <pt x="499" y="310" on="1"/>
        <pt x="406" y="310" on="1"/>
        <pt x="408" y="328" on="0"/>
        <pt x="408" y="337" on="1"/>
        <pt x="408" y="386" on="0"/>
        <pt x="354" y="446" on="0"/>
        <pt x="254" y="446" on="0"/>
        <pt x="185" y="399" on="0"/>
        <pt x="168" y="360" on="1"/>
        <pt x="135" y="288" on="0"/>
        <pt x="135" y="192" on="1"/>
        <pt x="135" y="65" on="0"/>
        <pt x="252" y="65" on="1"/>
        <pt x="313" y="65" on="0"/>
        <pt x="385" y="138" on="0"/>
        <pt x="394" y="200" on="1"/>
        <pt x="484" y="200" on="1"/>
        <pt x="470" y="99" on="0"/>
        <pt x="344" y="-10" on="0"/>
        <pt x="243" y="-10" on="1"/>
        <pt x="235" y="-10" on="1"/>
        <pt x="147" y="-10" on="0"/>
        <pt x="42" y="96" on="0"/>
      </contour>
    </TTGlyph>
    <TTGlyph name="caron" xMin="101" yMin="575" xMax="450" yMax="720">
      <contour>
        <pt x="216" y="575" on="1"/>
        <pt x="101" y="720" on="1"/>
        <pt x="181" y="720" on="1"/>
        <pt x="263" y="631" on="1"/>
        <pt x="370" y="720" on="1"/>
        <pt x="450" y="720" on="1"/>
        <pt x="294" y="575" on="1"/>
      </contour>
    </TTGlyph>
    <TTGlyph name="ccedilla" xMin="42" yMin="-197" xMax="502" yMax="521">
      <contour>
        <pt x="42" y="191" on="1"/>
        <pt x="42" y="333" on="0"/>
        <pt x="178" y="521" on="0"/>
        <pt x="309" y="521" on="1"/>
        <pt x="317" y="521" on="1"/>
        <pt x="401" y="521" on="0"/>
        <pt x="502" y="427" on="0"/>
        <pt x="502" y="346" on="1"/>
        <pt x="502" y="330" on="0"/>
        <pt x="499" y="310" on="1"/>
        <pt x="406" y="310" on="1"/>
        <pt x="408" y="328" on="0"/>
        <pt x="408" y="337" on="1"/>
        <pt x="408" y="386" on="0"/>
        <pt x="354" y="446" on="0"/>
        <pt x="254" y="446" on="0"/>
        <pt x="185" y="399" on="0"/>
        <pt x="168" y="360" on="1"/>
        <pt x="135" y="288" on="0"/>
        <pt x="135" y="192" on="1"/>
        <pt x="135" y="65" on="0"/>
        <pt x="252" y="65" on="1"/>
        <pt x="313" y="65" on="0"/>
        <pt x="385" y="138" on="0"/>
        <pt x="394" y="200" on="1"/>
        <pt x="484" y="200" on="1"/>
        <pt x="470" y="99" on="0"/>
        <pt x="344" y="-10" on="0"/>
        <pt x="243" y="-10" on="1"/>
        <pt x="235" y="-10" on="1"/>
        <pt x="147" y="-10" on="0"/>
        <pt x="42" y="96" on="0"/>
      </contour>
      <contour>
        <pt x="107" y="-175" on="1"/>
        <pt x="123" y="-126" on="1"/>
        <pt x="159" y="-146" on="0"/>
        <pt x="194" y="-146" on="1"/>
        <pt x="265" y="-146" on="0"/>
        <pt x="265" y="-95" on="1"/>
        <pt x="265" y="-60" on="0"/>
        <pt x="219" y="-60" on="1"/>
        <pt x="198" y="-60" on="1"/>
        <pt x="204" y="-17" on="1"/>
        <pt x="228" y="-17" on="1"/>
        <pt x="328" y="-17" on="0"/>
        <pt x="328" y="-90" on="1"/>
        <pt x="328" y="-130" on="0"/>
        <pt x="304" y="-156" on="1"/>
        <pt x="265" y="-197" on="0"/>
        <pt x="144" y="-197" on="0"/>
      </contour>
    </TTGlyph>
    <TTGlyph name="cedilla" xMin="59" yMin="-197" xMax="280" yMax="-17">
      <contour>
        <pt x="59" y="-175" on="1"/>
        <pt x="75" y="-126" on="1"/>
        <pt x="111" y="-146" on="0"/>
        <pt x="146" y="-146" on="1"/>
        <pt x="217" y="-146" on="0"/>
        <pt x="217" y="-95" on="1"/>
        <pt x="217" y="-60" on="0"/>
        <pt x="171" y="-60" on="1"/>
        <pt x="150" y="-60" on="1"/>
        <pt x="156" y="-17" on="1"/>
        <pt x="180" y="-17" on="1"/>
        <pt x="280" y="-17" on="0"/>
        <pt x="280" y="-90" on="1"/>
        <pt x="280" y="-130" on="0"/>
        <pt x="256" y="-156" on="1"/>
        <pt x="217" y="-197" on="0"/>
        <pt x="96" y="-197" on="0"/>
      </contour>
    </TTGlyph>
    <TTGlyph name="cent" xMin="50" yMin="-7" xMax="510" yMax="693">
      <contour>
        <pt x="141" y="86" on="0"/>
        <pt x="50" y="190" on="0"/>
        <pt x="50" y="367" on="0"/>
        <pt x="100" y="507" on="0"/>
        <pt x="214" y="602" on="0"/>
        <pt x="296" y="608" on="1"/>
        <pt x="296" y="693" on="1"/>
        <pt x="371" y="693" on="1"/>
        <pt x="350" y="608" on="1"/>
        <pt x="425" y="600" on="0"/>
        <pt x="510" y="508" on="0"/>
        <pt x="510" y="434" on="1"/>
        <pt x="510" y="418" on="0"/>
        <pt x="507" y="398" on="1"/>
        <pt x="414" y="398" on="1"/>
        <pt x="416" y="416" on="0"/>
        <pt x="416" y="425" on="1"/>
        <pt x="416" y="474" on="0"/>
        <pt x="362" y="534" on="0"/>
        <pt x="262" y="534" on="0"/>
        <pt x="193" y="487" on="0"/>
        <pt x="176" y="448" on="1"/>
        <pt x="143" y="376" on="0"/>
        <pt x="143" y="280" on="1"/>
        <pt x="143" y="153" on="0"/>
        <pt x="260" y="153" on="1"/>
        <pt x="321" y="153" on="0"/>
        <pt x="393" y="226" on="0"/>
        <pt x="402" y="288" on="1"/>
        <pt x="492" y="288" on="1"/>
        <pt x="478" y="192" on="0"/>
        <pt x="363" y="84" on="0"/>
        <pt x="272" y="78" on="1"/>
        <pt x="272" y="-7" on="1"/>
        <pt x="199" y="-7" on="1"/>
        <pt x="218" y="79" on="1"/>
      </contour>
    </TTGlyph>
    <TTGlyph name="circumflex" xMin="80" yMin="575" xMax="429" yMax="720">
      <contour>
        <pt x="160" y="575" on="1"/>
        <pt x="80" y="575" on="1"/>
        <pt x="237" y="720" on="1"/>
        <pt x="315" y="720" on="1"/>
        <pt x="429" y="575" on="1"/>
        <pt x="349" y="575" on="1"/>
        <pt x="268" y="664" on="1"/>
      </contour>
    </TTGlyph>
    <TTGlyph name="colon" xMin="28" yMin="0" xMax="200" yMax="511">
      <contour>
        <pt x="129" y="0" on="1"/>
        <pt x="28" y="0" on="1"/>
        <pt x="43" y="111" on="1"/>
        <pt x="144" y="111" on="1"/>
      </contour>
      <contour>
        <pt x="185" y="399" on="1"/>
        <pt x="84" y="399" on="1"/>
        <pt x="99" y="511" on="1"/>
        <pt x="200" y="511" on="1"/>
      </contour>
    </TTGlyph>
    <TTGlyph name="comma" xMin="24" yMin="-124" xMax="144" yMax="111">
      <contour>
        <pt x="76" y="-124" on="1"/>
        <pt x="24" y="-124" on="1"/>
        <pt x="68" y="0" on="1"/>
        <pt x="27" y="0" on="1"/>
        <pt x="43" y="111" on="1"/>
        <pt x="144" y="111" on="1"/>
        <pt x="132" y="26" on="1"/>
      </contour>
    </TTGlyph>
    <TTGlyph name="copyright" xMin="46" yMin="-10" xMax="754" yMax="696">
      <contour>
        <pt x="252" y="-10" on="0"/>
        <pt x="46" y="196" on="0"/>
        <pt x="46" y="490" on="0"/>
        <pt x="252" y="696" on="0"/>
        <pt x="546" y="696" on="0"/>
        <pt x="754" y="490" on="0"/>
        <pt x="754" y="197" on="0"/>
        <pt x="547" y="-10" on="0"/>
      </contour>
      <contour>
        <pt x="266" y="655" on="0"/>
        <pt x="86" y="477" on="0"/>
        <pt x="86" y="209" on="0"/>
        <pt x="265" y="30" on="0"/>
        <pt x="533" y="30" on="0"/>
        <pt x="713" y="209" on="0"/>
        <pt x="713" y="476" on="0"/>
        <pt x="532" y="655" on="0"/>
      </contour>
      <contour>
        <pt x="231" y="300" on="1"/>
        <pt x="231" y="386" on="1"/>
        <pt x="231" y="468" on="0"/>
        <pt x="327" y="556" on="0"/>
        <pt x="400" y="556" on="1"/>
        <pt x="405" y="556" on="1"/>
        <pt x="478" y="556" on="0"/>
        <pt x="568" y="471" on="0"/>
        <pt x="568" y="388" on="1"/>
        <pt x="501" y="388" on="1"/>
        <pt x="501" y="401" on="1"/>
        <pt x="501" y="448" on="0"/>
        <pt x="444" y="499" on="0"/>
        <pt x="358" y="499" on="0"/>
        <pt x="298" y="449" on="0"/>
        <pt x="298" y="401" on="1"/>
        <pt x="298" y="286" on="1"/>
        <pt x="298" y="237" on="0"/>
        <pt x="360" y="187" on="0"/>
        <pt x="449" y="187" on="0"/>
        <pt x="503" y="244" on="0"/>
        <pt x="503" y="296" on="1"/>
        <pt x="568" y="296" on="1"/>
        <pt x="568" y="215" on="0"/>
        <pt x="478" y="129" on="0"/>
        <pt x="406" y="129" on="1"/>
        <pt x="401" y="129" on="1"/>
        <pt x="327" y="129" on="0"/>
        <pt x="231" y="217" on="0"/>
      </contour>
    </TTGlyph>
    <TTGlyph name="currency" xMin="40" yMin="85" xMax="600" yMax="587">
      <contour>
        <pt x="81" y="85" on="1"/>
        <pt x="40" y="133" on="1"/>
        <pt x="100" y="186" on="1"/>
        <pt x="68" y="236" on="0"/>
        <pt x="68" y="372" on="0"/>
        <pt x="105" y="436" on="1"/>
        <pt x="122" y="466" on="0"/>
        <pt x="142" y="487" on="1"/>
        <pt x="98" y="539" on="1"/>
        <pt x="153" y="587" on="1"/>
        <pt x="196" y="535" on="1"/>
        <pt x="272" y="585" on="0"/>
        <pt x="437" y="585" on="0"/>
        <pt x="497" y="533" on="1"/>
        <pt x="559" y="587" on="1"/>
        <pt x="600" y="539" on="1"/>
        <pt x="538" y="485" on="1"/>
        <pt x="569" y="433" on="0"/>
        <pt x="569" y="369" on="1"/>
        <pt x="569" y="273" on="0"/>
        <pt x="495" y="187" on="1"/>
        <pt x="542" y="133" on="1"/>
        <pt x="487" y="85" on="1"/>
        <pt x="440" y="139" on="1"/>
        <pt x="364" y="89" on="0"/>
        <pt x="200" y="89" on="0"/>
        <pt x="142" y="138" on="1"/>
      </contour>
      <contour>
        <pt x="138" y="311" on="1"/>
        <pt x="138" y="246" on="0"/>
        <pt x="226" y="158" on="0"/>
        <pt x="374" y="158" on="0"/>
        <pt x="500" y="281" on="0"/>
        <pt x="500" y="428" on="0"/>
        <pt x="412" y="516" on="0"/>
        <pt x="267" y="516" on="0"/>
        <pt x="138" y="396" on="0"/>
      </contour>
    </TTGlyph>
    <TTGlyph name="d" xMin="42" yMin="-10" xMax="560" yMax="720">
      <contour>
        <pt x="42" y="190" on="1"/>
        <pt x="42" y="345" on="0"/>
        <pt x="181" y="521" on="0"/>
        <pt x="386" y="521" on="0"/>
        <pt x="427" y="446" on="1"/>
        <pt x="466" y="720" on="1"/>
        <pt x="560" y="720" on="1"/>
        <pt x="550" y="653" on="0"/>
        <pt x="520" y="434" on="0"/>
        <pt x="507" y="342" on="0"/>
        <pt x="496" y="262" on="1"/>
        <pt x="472" y="99" on="0"/>
        <pt x="472" y="92" on="1"/>
        <pt x="472" y="65" on="0"/>
        <pt x="521" y="65" on="0"/>
        <pt x="543" y="79" on="1"/>
        <pt x="534" y="10" on="1"/>
        <pt x="502" y="-10" on="0"/>
        <pt x="457" y="-10" on="1"/>
        <pt x="381" y="-10" on="0"/>
        <pt x="381" y="65" on="1"/>
        <pt x="312" y="-10" on="0"/>
        <pt x="216" y="-10" on="1"/>
        <pt x="137" y="-10" on="0"/>
        <pt x="42" y="91" on="0"/>
      </contour>
      <contour>
        <pt x="135" y="124" on="0"/>
        <pt x="191" y="65" on="0"/>
        <pt x="244" y="65" on="1"/>
        <pt x="324" y="65" on="0"/>
        <pt x="406" y="207" on="0"/>
        <pt x="406" y="318" on="1"/>
        <pt x="406" y="446" on="0"/>
        <pt x="297" y="446" on="1"/>
        <pt x="251" y="446" on="0"/>
        <pt x="183" y="397" on="0"/>
        <pt x="166" y="357" on="1"/>
        <pt x="135" y="281" on="0"/>
      </contour>
    </TTGlyph>
    <TTGlyph name="dagger" xMin="41" yMin="-170" xMax="518" yMax="686">
      <contour>
        <pt x="248" y="435" on="1"/>
        <pt x="41" y="417" on="1"/>
        <pt x="54" y="510" on="1"/>
        <pt x="257" y="493" on="1"/>
        <pt x="267" y="686" on="1"/>
        <pt x="355" y="686" on="1"/>
        <pt x="311" y="493" on="1"/>
        <pt x="518" y="510" on="1"/>
        <pt x="505" y="417" on="1"/>
        <pt x="302" y="435" on="1"/>
        <pt x="237" y="-170" on="1"/>
        <pt x="143" y="-170" on="1"/>
      </contour>
    </TTGlyph>
    <TTGlyph name="daggerdbl" xMin="-7" yMin="-175" xMax="527" yMax="686">
      <contour>
        <pt x="200" y="18" on="1"/>
        <pt x="-7" y="0" on="1"/>
        <pt x="6" y="93" on="1"/>
        <pt x="79" y="85" on="0"/>
        <pt x="208" y="76" on="1"/>
        <pt x="212" y="166" on="1"/>
        <pt x="213" y="196" on="0"/>
        <pt x="217" y="256" on="1"/>
        <pt x="233" y="331" on="0"/>
        <pt x="259" y="434" on="1"/>
        <pt x="155" y="425" on="1"/>
        <pt x="51" y="417" on="1"/>
        <pt x="64" y="510" on="1"/>
        <pt x="267" y="492" on="1"/>
        <pt x="277" y="686" on="1"/>
        <pt x="364" y="686" on="1"/>
        <pt x="320" y="492" on="1"/>
        <pt x="527" y="510" on="1"/>
        <pt x="514" y="417" on="1"/>
        <pt x="312" y="434" on="1"/>
        <pt x="304" y="256" on="1"/>
        <pt x="304" y="256" on="0"/>
        <pt x="283" y="166" on="1"/>
        <pt x="269" y="106" on="0"/>
        <pt x="261" y="76" on="1"/>
        <pt x="393" y="85" on="0"/>
        <pt x="469" y="93" on="1"/>
        <pt x="456" y="0" on="1"/>
        <pt x="253" y="18" on="1"/>
        <pt x="247" y="-110" on="0"/>
        <pt x="243" y="-175" on="1"/>
        <pt x="156" y="-175" on="1"/>
      </contour>
    </TTGlyph>
    <TTGlyph name="degree" xMin="83" yMin="396" xMax="391" yMax="696">
      <contour>
        <pt x="159" y="396" on="0"/>
        <pt x="83" y="473" on="0"/>
        <pt x="83" y="609" on="0"/>
        <pt x="180" y="696" on="0"/>
        <pt x="314" y="696" on="0"/>
        <pt x="391" y="618" on="0"/>
        <pt x="391" y="483" on="0"/>
        <pt x="293" y="396" on="0"/>
      </contour>
      <contour>
        <pt x="202" y="640" on="0"/>
        <pt x="150" y="586" on="0"/>
        <pt x="150" y="500" on="0"/>
        <pt x="195" y="451" on="0"/>
        <pt x="272" y="451" on="0"/>
        <pt x="324" y="506" on="0"/>
        <pt x="324" y="586" on="0"/>
        <pt x="286" y="640" on="0"/>
      </contour>
    </TTGlyph>
    <TTGlyph name="dieresis" xMin="73" yMin="633" xMax="365" yMax="731">
      <contour>
        <pt x="163" y="633" on="1"/>
        <pt x="73" y="633" on="1"/>
        <pt x="86" y="731" on="1"/>
        <pt x="176" y="731" on="1"/>
      </contour>
      <contour>
        <pt x="352" y="633" on="1"/>
        <pt x="261" y="633" on="1"/>
        <pt x="274" y="731" on="1"/>
        <pt x="365" y="731" on="1"/>
      </contour>
    </TTGlyph>
    <TTGlyph name="divide" xMin="41" yMin="51" xMax="564" yMax="460">
      <contour>
        <pt x="553" y="213" on="1"/>
        <pt x="41" y="213" on="1"/>
        <pt x="52" y="297" on="1"/>
        <pt x="564" y="297" on="1"/>
      </contour>
      <contour>
        <pt x="316" y="51" on="1"/>
        <pt x="233" y="51" on="1"/>
        <pt x="245" y="141" on="1"/>
        <pt x="328" y="141" on="1"/>
      </contour>
      <contour>
        <pt x="360" y="369" on="1"/>
        <pt x="277" y="369" on="1"/>
        <pt x="290" y="460" on="1"/>
        <pt x="373" y="460" on="1"/>
      </contour>
    </TTGlyph>
    <TTGlyph name="dollar" xMin="17" yMin="-66" xMax="528" yMax="760">
      <contour>
        <pt x="430" y="483" on="1"/>
        <pt x="433" y="509" on="1"/>
        <pt x="433" y="546" on="0"/>
        <pt x="370" y="586" on="0"/>
        <pt x="252" y="586" on="0"/>
        <pt x="170" y="540" on="0"/>
        <pt x="170" y="494" on="1"/>
        <pt x="170" y="435" on="0"/>
        <pt x="288" y="406" on="1"/>
        <pt x="338" y="394" on="0"/>
        <pt x="436" y="364" on="0"/>
        <pt x="505" y="296" on="0"/>
        <pt x="505" y="182" on="0"/>
        <pt x="462" y="92" on="0"/>
        <pt x="425" y="67" on="1"/>
        <pt x="354" y="19" on="0"/>
        <pt x="256" y="19" on="1"/>
        <pt x="256" y="-66" on="1"/>
        <pt x="183" y="-66" on="1"/>
        <pt x="206" y="20" on="1"/>
        <pt x="120" y="24" on="0"/>
        <pt x="17" y="101" on="0"/>
        <pt x="17" y="177" on="1"/>
        <pt x="17" y="208" on="0"/>
        <pt x="23" y="227" on="1"/>
        <pt x="118" y="227" on="1"/>
        <pt x="113" y="222" on="0"/>
        <pt x="113" y="192" on="1"/>
        <pt x="113" y="148" on="0"/>
        <pt x="182" y="105" on="0"/>
        <pt x="320" y="105" on="0"/>
        <pt x="408" y="161" on="0"/>
        <pt x="408" y="214" on="1"/>
        <pt x="408" y="252" on="0"/>
        <pt x="339" y="297" on="0"/>
        <pt x="241" y="321" on="0"/>
        <pt x="142" y="349" on="0"/>
        <pt x="73" y="417" on="0"/>
        <pt x="73" y="471" on="1"/>
        <pt x="73" y="571" on="0"/>
        <pt x="207" y="671" on="0"/>
        <pt x="298" y="671" on="1"/>
        <pt x="298" y="760" on="1"/>
        <pt x="373" y="760" on="1"/>
        <pt x="349" y="671" on="1"/>
        <pt x="430" y="667" on="0"/>
        <pt x="528" y="594" on="0"/>
        <pt x="528" y="524" on="1"/>
        <pt x="528" y="506" on="0"/>
        <pt x="525" y="483" on="1"/>
      </contour>
    </TTGlyph>
    <TTGlyph name="dotaccent" xMin="73" yMin="604" xMax="206" yMax="736">
      <contour>
        <pt x="105" y="604" on="0"/>
        <pt x="73" y="635" on="0"/>
        <pt x="73" y="691" on="0"/>
        <pt x="114" y="736" on="0"/>
        <pt x="174" y="736" on="0"/>
        <pt x="206" y="702" on="0"/>
        <pt x="206" y="647" on="0"/>
        <pt x="161" y="604" on="0"/>
      </contour>
    </TTGlyph>
    <TTGlyph name="dotlessi" xMin="43" yMin="0" xMax="208" yMax="511">
      <contour>
        <pt x="137" y="0" on="1"/>
        <pt x="43" y="0" on="1"/>
        <pt x="114" y="511" on="1"/>
        <pt x="208" y="511" on="1"/>
      </contour>
    </TTGlyph>
    <TTGlyph name="e" xMin="41" yMin="-10" xMax="507" yMax="521">
      <contour>
        <pt x="150" y="-10" on="0"/>
        <pt x="41" y="96" on="0"/>
        <pt x="41" y="282" on="0"/>
        <pt x="99" y="428" on="0"/>
        <pt x="225" y="521" on="0"/>
        <pt x="314" y="521" on="1"/>
        <pt x="321" y="521" on="1"/>
        <pt x="406" y="521" on="0"/>
        <pt x="507" y="427" on="0"/>
        <pt x="507" y="344" on="1"/>
        <pt x="507" y="333" on="1"/>
        <pt x="507" y="312" on="0"/>
        <pt x="494" y="234" on="1"/>
        <pt x="137" y="234" on="1"/>
        <pt x="135" y="212" on="0"/>
        <pt x="135" y="202" on="1"/>
        <pt x="135" y="65" on="0"/>
        <pt x="256" y="65" on="1"/>
        <pt x="295" y="65" on="0"/>
        <pt x="354" y="93" on="0"/>
        <pt x="368" y="116" on="1"/>
        <pt x="393" y="155" on="0"/>
        <pt x="399" y="190" on="1"/>
        <pt x="488" y="190" on="1"/>
        <pt x="475" y="96" on="0"/>
        <pt x="348" y="-10" on="0"/>
        <pt x="246" y="-10" on="1"/>
        <pt x="242" y="-10" on="1"/>
      </contour>
      <contour>
        <pt x="150" y="307" on="1"/>
        <pt x="412" y="307" on="1"/>
        <pt x="415" y="327" on="0"/>
        <pt x="415" y="343" on="1"/>
        <pt x="415" y="393" on="0"/>
        <pt x="355" y="446" on="0"/>
        <pt x="248" y="446" on="0"/>
        <pt x="167" y="376" on="0"/>
      </contour>
    </TTGlyph>
    <TTGlyph name="eacute" xMin="41" yMin="-10" xMax="507" yMax="720">
      <contour>
        <pt x="150" y="-10" on="0"/>
        <pt x="41" y="96" on="0"/>
        <pt x="41" y="282" on="0"/>
        <pt x="99" y="428" on="0"/>
        <pt x="225" y="521" on="0"/>
        <pt x="314" y="521" on="1"/>
        <pt x="321" y="521" on="1"/>
        <pt x="406" y="521" on="0"/>
        <pt x="507" y="427" on="0"/>
        <pt x="507" y="344" on="1"/>
        <pt x="507" y="333" on="1"/>
        <pt x="507" y="312" on="0"/>
        <pt x="494" y="234" on="1"/>
        <pt x="137" y="234" on="1"/>
        <pt x="135" y="212" on="0"/>
        <pt x="135" y="202" on="1"/>
        <pt x="135" y="65" on="0"/>
        <pt x="256" y="65" on="1"/>
        <pt x="295" y="65" on="0"/>
        <pt x="354" y="93" on="0"/>
        <pt x="368" y="116" on="1"/>
        <pt x="393" y="155" on="0"/>
        <pt x="399" y="190" on="1"/>
        <pt x="488" y="190" on="1"/>
        <pt x="475" y="96" on="0"/>
        <pt x="348" y="-10" on="0"/>
        <pt x="246" y="-10" on="1"/>
        <pt x="242" y="-10" on="1"/>
      </contour>
      <contour>
        <pt x="150" y="307" on="1"/>
        <pt x="412" y="307" on="1"/>
        <pt x="415" y="327" on="0"/>
        <pt x="415" y="343" on="1"/>
        <pt x="415" y="393" on="0"/>
        <pt x="355" y="446" on="0"/>
        <pt x="248" y="446" on="0"/>
        <pt x="167" y="376" on="0"/>
      </contour>
      <contour>
        <pt x="344" y="575" on="1"/>
        <pt x="275" y="575" on="1"/>
        <pt x="390" y="720" on="1"/>
        <pt x="480" y="720" on="1"/>
        <pt x="480" y="716" on="1"/>
      </contour>
    </TTGlyph>
    <TTGlyph name="ecircumflex" xMin="41" yMin="-10" xMax="507" yMax="720">
      <contour>
        <pt x="150" y="-10" on="0"/>
        <pt x="41" y="96" on="0"/>
        <pt x="41" y="282" on="0"/>
        <pt x="99" y="428" on="0"/>
        <pt x="225" y="521" on="0"/>
        <pt x="314" y="521" on="1"/>
        <pt x="321" y="521" on="1"/>
        <pt x="406" y="521" on="0"/>
        <pt x="507" y="427" on="0"/>
        <pt x="507" y="344" on="1"/>
        <pt x="507" y="333" on="1"/>
        <pt x="507" y="312" on="0"/>
        <pt x="494" y="234" on="1"/>
        <pt x="137" y="234" on="1"/>
        <pt x="135" y="212" on="0"/>
        <pt x="135" y="202" on="1"/>
        <pt x="135" y="65" on="0"/>
        <pt x="256" y="65" on="1"/>
        <pt x="295" y="65" on="0"/>
        <pt x="354" y="93" on="0"/>
        <pt x="368" y="116" on="1"/>
        <pt x="393" y="155" on="0"/>
        <pt x="399" y="190" on="1"/>
        <pt x="488" y="190" on="1"/>
        <pt x="475" y="96" on="0"/>
        <pt x="348" y="-10" on="0"/>
        <pt x="246" y="-10" on="1"/>
        <pt x="242" y="-10" on="1"/>
      </contour>
      <contour>
        <pt x="222" y="575" on="1"/>
        <pt x="142" y="575" on="1"/>
        <pt x="299" y="720" on="1"/>
        <pt x="377" y="720" on="1"/>
        <pt x="491" y="575" on="1"/>
        <pt x="411" y="575" on="1"/>
        <pt x="330" y="664" on="1"/>
      </contour>
      <contour>
        <pt x="150" y="307" on="1"/>
        <pt x="412" y="307" on="1"/>
        <pt x="415" y="327" on="0"/>
        <pt x="415" y="343" on="1"/>
        <pt x="415" y="393" on="0"/>
        <pt x="355" y="446" on="0"/>
        <pt x="248" y="446" on="0"/>
        <pt x="167" y="376" on="0"/>
      </contour>
    </TTGlyph>
    <TTGlyph name="edieresis" xMin="41" yMin="-10" xMax="507" yMax="720">
      <contour>
        <pt x="150" y="-10" on="0"/>
        <pt x="41" y="96" on="0"/>
        <pt x="41" y="282" on="0"/>
        <pt x="99" y="428" on="0"/>
        <pt x="225" y="521" on="0"/>
        <pt x="314" y="521" on="1"/>
        <pt x="321" y="521" on="1"/>
        <pt x="406" y="521" on="0"/>
        <pt x="507" y="427" on="0"/>
        <pt x="507" y="344" on="1"/>
        <pt x="507" y="333" on="1"/>
        <pt x="507" y="312" on="0"/>
        <pt x="494" y="234" on="1"/>
        <pt x="137" y="234" on="1"/>
        <pt x="135" y="212" on="0"/>
        <pt x="135" y="202" on="1"/>
        <pt x="135" y="65" on="0"/>
        <pt x="256" y="65" on="1"/>
        <pt x="295" y="65" on="0"/>
        <pt x="354" y="93" on="0"/>
        <pt x="368" y="116" on="1"/>
        <pt x="393" y="155" on="0"/>
        <pt x="399" y="190" on="1"/>
        <pt x="488" y="190" on="1"/>
        <pt x="475" y="96" on="0"/>
        <pt x="348" y="-10" on="0"/>
        <pt x="246" y="-10" on="1"/>
        <pt x="242" y="-10" on="1"/>
      </contour>
      <contour>
        <pt x="150" y="307" on="1"/>
        <pt x="412" y="307" on="1"/>
        <pt x="415" y="327" on="0"/>
        <pt x="415" y="343" on="1"/>
        <pt x="415" y="393" on="0"/>
        <pt x="355" y="446" on="0"/>
        <pt x="248" y="446" on="0"/>
        <pt x="167" y="376" on="0"/>
      </contour>
      <contour>
        <pt x="273" y="622" on="1"/>
        <pt x="183" y="622" on="1"/>
        <pt x="196" y="720" on="1"/>
        <pt x="286" y="720" on="1"/>
      </contour>
      <contour>
        <pt x="462" y="622" on="1"/>
        <pt x="371" y="622" on="1"/>
        <pt x="384" y="720" on="1"/>
        <pt x="475" y="720" on="1"/>
      </contour>
    </TTGlyph>
    <TTGlyph name="egrave" xMin="41" yMin="-10" xMax="507" yMax="720">
      <contour>
        <pt x="150" y="-10" on="0"/>
        <pt x="41" y="96" on="0"/>
        <pt x="41" y="282" on="0"/>
        <pt x="99" y="428" on="0"/>
        <pt x="225" y="521" on="0"/>
        <pt x="314" y="521" on="1"/>
        <pt x="321" y="521" on="1"/>
        <pt x="406" y="521" on="0"/>
        <pt x="507" y="427" on="0"/>
        <pt x="507" y="344" on="1"/>
        <pt x="507" y="333" on="1"/>
        <pt x="507" y="312" on="0"/>
        <pt x="494" y="234" on="1"/>
        <pt x="137" y="234" on="1"/>
        <pt x="135" y="212" on="0"/>
        <pt x="135" y="202" on="1"/>
        <pt x="135" y="65" on="0"/>
        <pt x="256" y="65" on="1"/>
        <pt x="295" y="65" on="0"/>
        <pt x="354" y="93" on="0"/>
        <pt x="368" y="116" on="1"/>
        <pt x="393" y="155" on="0"/>
        <pt x="399" y="190" on="1"/>
        <pt x="488" y="190" on="1"/>
        <pt x="475" y="96" on="0"/>
        <pt x="348" y="-10" on="0"/>
        <pt x="246" y="-10" on="1"/>
        <pt x="242" y="-10" on="1"/>
      </contour>
      <contour>
        <pt x="150" y="307" on="1"/>
        <pt x="412" y="307" on="1"/>
        <pt x="415" y="327" on="0"/>
        <pt x="415" y="343" on="1"/>
        <pt x="415" y="393" on="0"/>
        <pt x="355" y="446" on="0"/>
        <pt x="248" y="446" on="0"/>
        <pt x="167" y="376" on="0"/>
      </contour>
      <contour>
        <pt x="286" y="575" on="1"/>
        <pt x="191" y="717" on="1"/>
        <pt x="193" y="720" on="1"/>
        <pt x="282" y="720" on="1"/>
        <pt x="356" y="575" on="1"/>
      </contour>
    </TTGlyph>
    <TTGlyph name="eight" xMin="50" yMin="-10" xMax="556" yMax="696">
      <contour>
        <pt x="50" y="153" on="1"/>
        <pt x="50" y="293" on="0"/>
        <pt x="191" y="350" on="1"/>
        <pt x="192" y="354" on="1"/>
        <pt x="155" y="377" on="0"/>
        <pt x="118" y="431" on="0"/>
        <pt x="118" y="475" on="1"/>
        <pt x="118" y="576" on="0"/>
        <pt x="259" y="696" on="0"/>
        <pt x="452" y="696" on="0"/>
        <pt x="556" y="612" on="0"/>
        <pt x="556" y="465" on="0"/>
        <pt x="496" y="384" on="0"/>
        <pt x="440" y="354" on="1"/>
        <pt x="439" y="350" on="1"/>
        <pt x="485" y="327" on="0"/>
        <pt x="534" y="265" on="0"/>
        <pt x="534" y="216" on="1"/>
        <pt x="534" y="112" on="0"/>
        <pt x="388" y="-10" on="0"/>
        <pt x="265" y="-10" on="1"/>
        <pt x="166" y="-10" on="0"/>
        <pt x="50" y="74" on="0"/>
      </contour>
      <contour>
        <pt x="150" y="175" on="1"/>
        <pt x="150" y="129" on="0"/>
        <pt x="221" y="79" on="0"/>
        <pt x="344" y="79" on="0"/>
        <pt x="436" y="147" on="0"/>
        <pt x="436" y="210" on="1"/>
        <pt x="436" y="256" on="0"/>
        <pt x="365" y="306" on="0"/>
        <pt x="247" y="306" on="0"/>
        <pt x="150" y="239" on="0"/>
      </contour>
      <contour>
        <pt x="217" y="485" on="1"/>
        <pt x="217" y="445" on="0"/>
        <pt x="273" y="395" on="0"/>
        <pt x="380" y="395" on="0"/>
        <pt x="457" y="465" on="0"/>
        <pt x="457" y="556" on="0"/>
        <pt x="402" y="607" on="0"/>
        <pt x="299" y="607" on="0"/>
        <pt x="217" y="542" on="0"/>
      </contour>
    </TTGlyph>
    <TTGlyph name="ellipsis" xMin="29" yMin="0" xMax="641" yMax="111">
      <contour>
        <pt x="131" y="0" on="1"/>
        <pt x="29" y="0" on="1"/>
        <pt x="44" y="111" on="1"/>
        <pt x="146" y="111" on="1"/>
      </contour>
      <contour>
        <pt x="379" y="0" on="1"/>
        <pt x="277" y="0" on="1"/>
        <pt x="292" y="111" on="1"/>
        <pt x="394" y="111" on="1"/>
      </contour>
      <contour>
        <pt x="626" y="0" on="1"/>
        <pt x="524" y="0" on="1"/>
        <pt x="539" y="111" on="1"/>
        <pt x="641" y="111" on="1"/>
      </contour>
    </TTGlyph>
    <TTGlyph name="emdash" xMin="63" yMin="223" xMax="984" yMax="317">
      <contour>
        <pt x="971" y="223" on="1"/>
        <pt x="63" y="223" on="1"/>
        <pt x="75" y="317" on="1"/>
        <pt x="984" y="317" on="1"/>
      </contour>
    </TTGlyph>
    <TTGlyph name="endash" xMin="60" yMin="223" xMax="571" yMax="318">
      <contour>
        <pt x="558" y="223" on="1"/>
        <pt x="60" y="223" on="1"/>
        <pt x="72" y="318" on="1"/>
        <pt x="571" y="318" on="1"/>
      </contour>
    </TTGlyph>
    <TTGlyph name="equal" xMin="30" yMin="106" xMax="575" yMax="402">
      <contour>
        <pt x="534" y="106" on="1"/>
        <pt x="30" y="106" on="1"/>
        <pt x="41" y="189" on="1"/>
        <pt x="545" y="189" on="1"/>
      </contour>
      <contour>
        <pt x="563" y="318" on="1"/>
        <pt x="59" y="318" on="1"/>
        <pt x="71" y="402" on="1"/>
        <pt x="575" y="402" on="1"/>
      </contour>
    </TTGlyph>
    <TTGlyph name="eth" xMin="40" yMin="-10" xMax="522" yMax="729">
      <contour>
        <pt x="171" y="700" on="1"/>
        <pt x="234" y="729" on="1"/>
        <pt x="283" y="701" on="0"/>
        <pt x="322" y="673" on="1"/>
        <pt x="422" y="717" on="1"/>
        <pt x="425" y="712" on="0"/>
        <pt x="445" y="690" on="0"/>
        <pt x="449" y="683" on="1"/>
        <pt x="356" y="643" on="1"/>
        <pt x="522" y="492" on="0"/>
        <pt x="522" y="322" on="1"/>
        <pt x="522" y="171" on="0"/>
        <pt x="384" y="-10" on="0"/>
        <pt x="245" y="-10" on="1"/>
        <pt x="153" y="-10" on="0"/>
        <pt x="40" y="91" on="0"/>
        <pt x="40" y="188" on="1"/>
        <pt x="40" y="318" on="0"/>
        <pt x="106" y="416" on="1"/>
        <pt x="138" y="464" on="0"/>
        <pt x="248" y="521" on="0"/>
        <pt x="319" y="521" on="1"/>
        <pt x="334" y="521" on="0"/>
        <pt x="351" y="518" on="1"/>
        <pt x="319" y="565" on="0"/>
        <pt x="280" y="605" on="1"/>
        <pt x="271" y="600" on="0"/>
        <pt x="183" y="562" on="1"/>
        <pt x="152" y="595" on="1"/>
        <pt x="252" y="639" on="1"/>
        <pt x="235" y="655" on="0"/>
        <pt x="173" y="699" on="0"/>
      </contour>
      <contour>
        <pt x="167" y="366" on="0"/>
        <pt x="136" y="259" on="0"/>
        <pt x="136" y="130" on="0"/>
        <pt x="201" y="65" on="0"/>
        <pt x="314" y="65" on="0"/>
        <pt x="354" y="104" on="1"/>
        <pt x="427" y="174" on="0"/>
        <pt x="427" y="311" on="1"/>
        <pt x="427" y="380" on="0"/>
        <pt x="363" y="446" on="0"/>
        <pt x="249" y="446" on="0"/>
      </contour>
    </TTGlyph>
    <TTGlyph name="exclam" xMin="43" yMin="0" xMax="248" yMax="686">
      <contour>
        <pt x="144" y="0" on="1"/>
        <pt x="43" y="0" on="1"/>
        <pt x="59" y="111" on="1"/>
        <pt x="160" y="111" on="1"/>
      </contour>
      <contour>
        <pt x="85" y="174" on="1"/>
        <pt x="133" y="686" on="1"/>
        <pt x="248" y="686" on="1"/>
        <pt x="232" y="631" on="0"/>
        <pt x="151" y="174" on="1"/>
      </contour>
    </TTGlyph>
    <TTGlyph name="exclamdown" xMin="3" yMin="-176" xMax="208" yMax="510">
      <contour>
        <pt x="166" y="335" on="1"/>
        <pt x="155" y="208" on="0"/>
        <pt x="118" y="-176" on="1"/>
        <pt x="3" y="-176" on="1"/>
        <pt x="100" y="335" on="1"/>
      </contour>
      <contour>
        <pt x="192" y="399" on="1"/>
        <pt x="91" y="399" on="1"/>
        <pt x="107" y="510" on="1"/>
        <pt x="208" y="510" on="1"/>
      </contour>
    </TTGlyph>
    <TTGlyph name="f" xMin="-80" yMin="-184" xMax="374" yMax="728">
      <contour>
        <pt x="-80" y="-165" on="1"/>
        <pt x="-72" y="-96" on="1"/>
        <pt x="-42" y="-110" on="0"/>
        <pt x="1" y="-110" on="0"/>
        <pt x="18" y="-106" on="0"/>
        <pt x="28" y="-100" on="1"/>
        <pt x="48" y="-88" on="0"/>
        <pt x="54" y="-46" on="1"/>
        <pt x="125" y="436" on="1"/>
        <pt x="66" y="436" on="1"/>
        <pt x="76" y="511" on="1"/>
        <pt x="134" y="511" on="1"/>
        <pt x="147" y="602" on="1"/>
        <pt x="165" y="728" on="0"/>
        <pt x="290" y="728" on="1"/>
        <pt x="342" y="728" on="0"/>
        <pt x="374" y="709" on="1"/>
        <pt x="365" y="640" on="1"/>
        <pt x="335" y="654" on="0"/>
        <pt x="288" y="654" on="0"/>
        <pt x="265" y="647" on="0"/>
        <pt x="243" y="617" on="0"/>
        <pt x="239" y="590" on="1"/>
        <pt x="227" y="511" on="1"/>
        <pt x="347" y="511" on="1"/>
        <pt x="338" y="436" on="1"/>
        <pt x="218" y="436" on="1"/>
        <pt x="147" y="-58" on="1"/>
        <pt x="138" y="-122" on="0"/>
        <pt x="62" y="-184" on="0"/>
        <pt x="-50" y="-184" on="0"/>
      </contour>
    </TTGlyph>
    <TTGlyph name="five" xMin="57" yMin="-10" xMax="563" yMax="686">
      <contour>
        <pt x="57" y="184" on="1"/>
        <pt x="57" y="192" on="0"/>
        <pt x="59" y="214" on="1"/>
        <pt x="157" y="214" on="1"/>
        <pt x="156" y="211" on="0"/>
        <pt x="156" y="206" on="1"/>
        <pt x="156" y="198" on="1"/>
        <pt x="156" y="144" on="0"/>
        <pt x="223" y="79" on="0"/>
        <pt x="348" y="79" on="0"/>
        <pt x="438" y="166" on="0"/>
        <pt x="438" y="246" on="1"/>
        <pt x="438" y="297" on="0"/>
        <pt x="375" y="363" on="0"/>
        <pt x="321" y="363" on="1"/>
        <pt x="235" y="363" on="0"/>
        <pt x="182" y="294" on="1"/>
        <pt x="96" y="307" on="1"/>
        <pt x="177" y="686" on="1"/>
        <pt x="563" y="686" on="1"/>
        <pt x="551" y="597" on="1"/>
        <pt x="247" y="597" on="1"/>
        <pt x="204" y="396" on="1"/>
        <pt x="275" y="447" on="0"/>
        <pt x="349" y="447" on="1"/>
        <pt x="443" y="447" on="0"/>
        <pt x="537" y="345" on="0"/>
        <pt x="537" y="265" on="1"/>
        <pt x="537" y="142" on="0"/>
        <pt x="393" y="-10" on="0"/>
        <pt x="265" y="-10" on="1"/>
        <pt x="169" y="-10" on="0"/>
        <pt x="57" y="100" on="0"/>
      </contour>
    </TTGlyph>
    <TTGlyph name="florin" xMin="-80" yMin="-184" xMax="374" yMax="728">
      <contour>
        <pt x="-80" y="-165" on="1"/>
        <pt x="-72" y="-96" on="1"/>
        <pt x="-42" y="-110" on="0"/>
        <pt x="1" y="-110" on="0"/>
        <pt x="18" y="-106" on="0"/>
        <pt x="28" y="-100" on="1"/>
        <pt x="48" y="-88" on="0"/>
        <pt x="54" y="-46" on="1"/>
        <pt x="125" y="436" on="1"/>
        <pt x="66" y="436" on="1"/>
        <pt x="75" y="511" on="1"/>
        <pt x="134" y="511" on="1"/>
        <pt x="147" y="602" on="1"/>
        <pt x="165" y="728" on="0"/>
        <pt x="290" y="728" on="1"/>
        <pt x="342" y="728" on="0"/>
        <pt x="374" y="709" on="1"/>
        <pt x="365" y="640" on="1"/>
        <pt x="335" y="654" on="0"/>
        <pt x="288" y="654" on="0"/>
        <pt x="265" y="647" on="0"/>
        <pt x="243" y="617" on="0"/>
        <pt x="239" y="590" on="1"/>
        <pt x="227" y="511" on="1"/>
        <pt x="347" y="511" on="1"/>
        <pt x="338" y="436" on="1"/>
        <pt x="218" y="436" on="1"/>
        <pt x="147" y="-58" on="1"/>
        <pt x="138" y="-122" on="0"/>
        <pt x="62" y="-184" on="0"/>
        <pt x="-50" y="-184" on="0"/>
      </contour>
    </TTGlyph>
    <TTGlyph name="four" xMin="33" yMin="0" xMax="554" yMax="696">
      <contour>
        <pt x="356" y="169" on="1"/>
        <pt x="33" y="169" on="1"/>
        <pt x="46" y="259" on="1"/>
        <pt x="209" y="464" on="0"/>
        <pt x="320" y="696" on="1"/>
        <pt x="425" y="696" on="1"/>
        <pt x="375" y="573" on="0"/>
        <pt x="195" y="314" on="0"/>
        <pt x="139" y="258" on="1"/>
        <pt x="369" y="258" on="1"/>
        <pt x="397" y="457" on="1"/>
        <pt x="445" y="530" on="0"/>
        <pt x="470" y="594" on="1"/>
        <pt x="514" y="594" on="1"/>
        <pt x="467" y="258" on="1"/>
        <pt x="554" y="258" on="1"/>
        <pt x="541" y="169" on="1"/>
        <pt x="454" y="169" on="1"/>
        <pt x="431" y="0" on="1"/>
        <pt x="333" y="0" on="1"/>
      </contour>
    </TTGlyph>
    <TTGlyph name="fraction" xMin="-36" yMin="0" xMax="534" yMax="686">
      <contour>
        <pt x="22" y="0" on="1"/>
        <pt x="-36" y="0" on="1"/>
        <pt x="478" y="686" on="1"/>
        <pt x="534" y="686" on="1"/>
      </contour>
    </TTGlyph>
    <TTGlyph name="g" xMin="21" yMin="-186" xMax="532" yMax="521">
      <contour>
        <pt x="21" y="-19" on="1"/>
        <pt x="114" y="-19" on="1"/>
        <pt x="114" y="-61" on="0"/>
        <pt x="172" y="-111" on="0"/>
        <pt x="283" y="-111" on="0"/>
        <pt x="359" y="-40" on="0"/>
        <pt x="368" y="15" on="1"/>
        <pt x="379" y="95" on="1"/>
        <pt x="318" y="20" on="0"/>
        <pt x="215" y="20" on="1"/>
        <pt x="139" y="20" on="0"/>
        <pt x="44" y="118" on="0"/>
        <pt x="44" y="291" on="0"/>
        <pt x="96" y="430" on="0"/>
        <pt x="212" y="521" on="0"/>
        <pt x="292" y="521" on="1"/>
        <pt x="408" y="521" on="0"/>
        <pt x="451" y="430" on="1"/>
        <pt x="496" y="511" on="1"/>
        <pt x="532" y="511" on="1"/>
        <pt x="465" y="34" on="1"/>
        <pt x="452" y="-65" on="0"/>
        <pt x="328" y="-186" on="0"/>
        <pt x="213" y="-186" on="1"/>
        <pt x="119" y="-186" on="0"/>
        <pt x="21" y="-92" on="0"/>
      </contour>
      <contour>
        <pt x="231" y="446" on="0"/>
        <pt x="140" y="340" on="0"/>
        <pt x="140" y="95" on="0"/>
        <pt x="250" y="95" on="1"/>
        <pt x="305" y="95" on="0"/>
        <pt x="342" y="132" on="1"/>
        <pt x="409" y="196" on="0"/>
        <pt x="409" y="326" on="1"/>
        <pt x="409" y="391" on="0"/>
        <pt x="353" y="446" on="0"/>
        <pt x="300" y="446" on="1"/>
      </contour>
    </TTGlyph>
    <TTGlyph name="germandbls" xMin="54" yMin="-66" xMax="579" yMax="728">
      <contour>
        <pt x="148" y="-66" on="1"/>
        <pt x="54" y="-66" on="1"/>
        <pt x="124" y="436" on="1"/>
        <pt x="66" y="436" on="1"/>
        <pt x="77" y="511" on="1"/>
        <pt x="135" y="511" on="1"/>
        <pt x="151" y="613" on="0"/>
        <pt x="286" y="728" on="0"/>
        <pt x="392" y="728" on="1"/>
        <pt x="473" y="728" on="0"/>
        <pt x="579" y="643" on="0"/>
        <pt x="579" y="506" on="0"/>
        <pt x="512" y="412" on="0"/>
        <pt x="456" y="391" on="1"/>
        <pt x="457" y="387" on="1"/>
        <pt x="502" y="370" on="0"/>
        <pt x="555" y="286" on="0"/>
        <pt x="555" y="235" on="1"/>
        <pt x="555" y="130" on="0"/>
        <pt x="407" y="0" on="0"/>
        <pt x="301" y="0" on="1"/>
        <pt x="218" y="0" on="1"/>
        <pt x="229" y="75" on="1"/>
        <pt x="302" y="75" on="1"/>
        <pt x="365" y="75" on="0"/>
        <pt x="461" y="168" on="0"/>
        <pt x="461" y="281" on="0"/>
        <pt x="393" y="346" on="0"/>
        <pt x="340" y="346" on="1"/>
        <pt x="267" y="346" on="1"/>
        <pt x="277" y="420" on="1"/>
        <pt x="342" y="420" on="1"/>
        <pt x="399" y="420" on="0"/>
        <pt x="483" y="502" on="0"/>
        <pt x="483" y="602" on="0"/>
        <pt x="430" y="653" on="0"/>
        <pt x="321" y="653" on="0"/>
        <pt x="237" y="576" on="0"/>
        <pt x="229" y="513" on="1"/>
      </contour>
    </TTGlyph>
    <TTGlyph name="grave" xMin="76" yMin="575" xMax="241" yMax="720">
      <contour>
        <pt x="171" y="575" on="1"/>
        <pt x="76" y="717" on="1"/>
        <pt x="78" y="720" on="1"/>
        <pt x="167" y="720" on="1"/>
        <pt x="241" y="575" on="1"/>
      </contour>
    </TTGlyph>
    <TTGlyph name="greater" xMin="21" yMin="4" xMax="573" yMax="504">
      <contour>
        <pt x="558" y="200" on="1"/>
        <pt x="21" y="4" on="1"/>
        <pt x="34" y="94" on="1"/>
        <pt x="486" y="254" on="1"/>
        <pt x="203" y="363" on="0"/>
        <pt x="79" y="414" on="1"/>
        <pt x="92" y="504" on="1"/>
        <pt x="573" y="307" on="1"/>
      </contour>
    </TTGlyph>
    <TTGlyph name="greaterequal" xMin="16" yMin="0" xMax="576" yMax="520">
      <contour>
        <pt x="526" y="0" on="1"/>
        <pt x="16" y="0" on="1"/>
        <pt x="28" y="83" on="1"/>
        <pt x="538" y="83" on="1"/>
      </contour>
      <contour>
        <pt x="31" y="104" on="1"/>
        <pt x="43" y="194" on="1"/>
        <pt x="488" y="312" on="1"/>
        <pt x="287" y="368" on="0"/>
        <pt x="76" y="430" on="1"/>
        <pt x="89" y="520" on="1"/>
        <pt x="134" y="506" on="0"/>
        <pt x="576" y="365" on="1"/>
        <pt x="561" y="258" on="1"/>
        <pt x="482" y="235" on="0"/>
        <pt x="394" y="210" on="1"/>
        <pt x="182" y="149" on="0"/>
      </contour>
    </TTGlyph>
    <TTGlyph name="guillemotleft" xMin="55" yMin="163" xMax="433" yMax="511">
      <contour>
        <pt x="151" y="163" on="1"/>
        <pt x="55" y="337" on="1"/>
        <pt x="200" y="511" on="1"/>
        <pt x="251" y="511" on="1"/>
        <pt x="134" y="337" on="1"/>
        <pt x="202" y="163" on="1"/>
      </contour>
      <contour>
        <pt x="334" y="163" on="1"/>
        <pt x="237" y="337" on="1"/>
        <pt x="383" y="511" on="1"/>
        <pt x="433" y="511" on="1"/>
        <pt x="317" y="337" on="1"/>
        <pt x="384" y="163" on="1"/>
      </contour>
    </TTGlyph>
    <TTGlyph name="guillemotright" xMin="37" yMin="163" xMax="418" yMax="511">
      <contour>
        <pt x="88" y="163" on="1"/>
        <pt x="37" y="163" on="1"/>
        <pt x="157" y="337" on="1"/>
        <pt x="86" y="511" on="1"/>
        <pt x="137" y="511" on="1"/>
        <pt x="237" y="337" on="1"/>
      </contour>
      <contour>
        <pt x="270" y="163" on="1"/>
        <pt x="220" y="163" on="1"/>
        <pt x="339" y="337" on="1"/>
        <pt x="269" y="511" on="1"/>
        <pt x="319" y="511" on="1"/>
        <pt x="418" y="337" on="1"/>
      </contour>
    </TTGlyph>
    <TTGlyph name="guilsinglleft" xMin="55" yMin="163" xMax="251" yMax="511">
      <contour>
        <pt x="151" y="163" on="1"/>
        <pt x="55" y="337" on="1"/>
        <pt x="200" y="511" on="1"/>
        <pt x="251" y="511" on="1"/>
        <pt x="134" y="337" on="1"/>
        <pt x="202" y="163" on="1"/>
      </contour>
    </TTGlyph>
    <TTGlyph name="guilsinglright" xMin="37" yMin="163" xMax="236" yMax="511">
      <contour>
        <pt x="88" y="163" on="1"/>
        <pt x="37" y="163" on="1"/>
        <pt x="157" y="337" on="1"/>
        <pt x="86" y="511" on="1"/>
        <pt x="137" y="511" on="1"/>
        <pt x="236" y="337" on="1"/>
      </contour>
    </TTGlyph>
    <TTGlyph name="h" xMin="42" yMin="0" xMax="525" yMax="720">
      <contour>
        <pt x="136" y="0" on="1"/>
        <pt x="42" y="0" on="1"/>
        <pt x="143" y="720" on="1"/>
        <pt x="237" y="720" on="1"/>
        <pt x="199" y="447" on="1"/>
        <pt x="272" y="521" on="0"/>
        <pt x="367" y="521" on="1"/>
        <pt x="439" y="521" on="0"/>
        <pt x="525" y="451" on="0"/>
        <pt x="525" y="380" on="1"/>
        <pt x="525" y="359" on="0"/>
        <pt x="499" y="177" on="1"/>
        <pt x="474" y="0" on="1"/>
        <pt x="380" y="0" on="1"/>
        <pt x="404" y="167" on="1"/>
        <pt x="428" y="352" on="0"/>
        <pt x="428" y="356" on="1"/>
        <pt x="428" y="446" on="0"/>
        <pt x="335" y="446" on="1"/>
        <pt x="281" y="446" on="0"/>
        <pt x="187" y="363" on="0"/>
        <pt x="179" y="304" on="1"/>
      </contour>
    </TTGlyph>
    <TTGlyph name="hungarumlaut" xMin="39" yMin="575" xMax="399" yMax="720">
      <contour>
        <pt x="109" y="575" on="1"/>
        <pt x="39" y="575" on="1"/>
        <pt x="155" y="720" on="1"/>
        <pt x="244" y="720" on="1"/>
        <pt x="244" y="715" on="1"/>
      </contour>
      <contour>
        <pt x="264" y="575" on="1"/>
        <pt x="194" y="575" on="1"/>
        <pt x="309" y="720" on="1"/>
        <pt x="399" y="720" on="1"/>
        <pt x="399" y="715" on="1"/>
      </contour>
    </TTGlyph>
    <TTGlyph name="hyphen" xMin="60" yMin="221" xMax="324" yMax="319">
      <contour>
        <pt x="311" y="221" on="1"/>
        <pt x="60" y="221" on="1"/>
        <pt x="72" y="319" on="1"/>
        <pt x="324" y="319" on="1"/>
      </contour>
    </TTGlyph>
    <TTGlyph name="i" xMin="42" yMin="0" xMax="239" yMax="720">
      <contour>
        <pt x="136" y="0" on="1"/>
        <pt x="42" y="0" on="1"/>
        <pt x="114" y="511" on="1"/>
        <pt x="208" y="511" on="1"/>
      </contour>
      <contour>
        <pt x="227" y="633" on="1"/>
        <pt x="129" y="633" on="1"/>
        <pt x="141" y="720" on="1"/>
        <pt x="239" y="720" on="1"/>
      </contour>
    </TTGlyph>
    <TTGlyph name="iacute" xMin="43" yMin="0" xMax="322" yMax="720">
      <contour>
        <pt x="137" y="0" on="1"/>
        <pt x="43" y="0" on="1"/>
        <pt x="114" y="511" on="1"/>
        <pt x="208" y="511" on="1"/>
      </contour>
      <contour>
        <pt x="186" y="575" on="1"/>
        <pt x="117" y="575" on="1"/>
        <pt x="232" y="720" on="1"/>
        <pt x="322" y="720" on="1"/>
        <pt x="322" y="716" on="1"/>
      </contour>
    </TTGlyph>
    <TTGlyph name="icircumflex" xMin="-10" yMin="0" xMax="339" yMax="720">
      <contour>
        <pt x="70" y="575" on="1"/>
        <pt x="-10" y="575" on="1"/>
        <pt x="147" y="720" on="1"/>
        <pt x="225" y="720" on="1"/>
        <pt x="339" y="575" on="1"/>
        <pt x="259" y="575" on="1"/>
        <pt x="178" y="664" on="1"/>
      </contour>
      <contour>
        <pt x="137" y="0" on="1"/>
        <pt x="43" y="0" on="1"/>
        <pt x="114" y="511" on="1"/>
        <pt x="208" y="511" on="1"/>
      </contour>
    </TTGlyph>
    <TTGlyph name="idieresis" xMin="33" yMin="0" xMax="325" yMax="719">
      <contour>
        <pt x="123" y="621" on="1"/>
        <pt x="33" y="621" on="1"/>
        <pt x="46" y="719" on="1"/>
        <pt x="136" y="719" on="1"/>
      </contour>
      <contour>
        <pt x="137" y="0" on="1"/>
        <pt x="43" y="0" on="1"/>
        <pt x="114" y="511" on="1"/>
        <pt x="208" y="511" on="1"/>
      </contour>
      <contour>
        <pt x="312" y="621" on="1"/>
        <pt x="221" y="621" on="1"/>
        <pt x="234" y="719" on="1"/>
        <pt x="325" y="719" on="1"/>
      </contour>
    </TTGlyph>
    <TTGlyph name="igrave" xMin="35" yMin="0" xMax="208" yMax="720">
      <contour>
        <pt x="130" y="575" on="1"/>
        <pt x="35" y="717" on="1"/>
        <pt x="37" y="720" on="1"/>
        <pt x="126" y="720" on="1"/>
        <pt x="200" y="575" on="1"/>
      </contour>
      <contour>
        <pt x="137" y="0" on="1"/>
        <pt x="43" y="0" on="1"/>
        <pt x="114" y="511" on="1"/>
        <pt x="208" y="511" on="1"/>
      </contour>
    </TTGlyph>
    <TTGlyph name="infinity" xMin="35" yMin="113" xMax="729" yMax="448">
      <contour>
        <pt x="35" y="254" on="1"/>
        <pt x="35" y="339" on="0"/>
        <pt x="140" y="448" on="0"/>
        <pt x="224" y="448" on="1"/>
        <pt x="277" y="448" on="0"/>
        <pt x="357" y="388" on="0"/>
        <pt x="394" y="333" on="1"/>
        <pt x="435" y="374" on="0"/>
        <pt x="505" y="425" on="0"/>
        <pt x="518" y="430" on="1"/>
        <pt x="561" y="448" on="0"/>
        <pt x="595" y="448" on="1"/>
        <pt x="656" y="448" on="0"/>
        <pt x="729" y="372" on="0"/>
        <pt x="729" y="233" on="0"/>
        <pt x="624" y="113" on="0"/>
        <pt x="543" y="113" on="1"/>
        <pt x="496" y="113" on="0"/>
        <pt x="417" y="166" on="0"/>
        <pt x="374" y="229" on="1"/>
        <pt x="317" y="172" on="0"/>
        <pt x="225" y="113" on="0"/>
        <pt x="111" y="113" on="0"/>
        <pt x="35" y="192" on="0"/>
      </contour>
      <contour>
        <pt x="164" y="386" on="0"/>
        <pt x="98" y="313" on="0"/>
        <pt x="98" y="225" on="0"/>
        <pt x="146" y="176" on="0"/>
        <pt x="186" y="176" on="1"/>
        <pt x="210" y="176" on="0"/>
        <pt x="238" y="188" on="0"/>
        <pt x="254" y="195" on="0"/>
        <pt x="277" y="212" on="0"/>
        <pt x="289" y="219" on="0"/>
        <pt x="313" y="241" on="0"/>
        <pt x="320" y="248" on="0"/>
        <pt x="347" y="274" on="0"/>
        <pt x="349" y="276" on="1"/>
        <pt x="292" y="386" on="0"/>
        <pt x="210" y="386" on="1"/>
      </contour>
      <contour>
        <pt x="418" y="282" on="1"/>
        <pt x="459" y="223" on="0"/>
        <pt x="518" y="176" on="0"/>
        <pt x="604" y="176" on="0"/>
        <pt x="664" y="255" on="0"/>
        <pt x="664" y="339" on="0"/>
        <pt x="619" y="386" on="0"/>
        <pt x="581" y="386" on="1"/>
        <pt x="544" y="386" on="0"/>
        <pt x="506" y="358" on="1"/>
        <pt x="463" y="327" on="0"/>
      </contour>
    </TTGlyph>
    <TTGlyph name="integral" xMin="-50" yMin="-250" xMax="306" yMax="750">
      <contour>
        <pt x="-50" y="-250" on="1"/>
        <pt x="-43" y="-200" on="1"/>
        <pt x="-15" y="-200" on="0"/>
        <pt x="46" y="-171" on="0"/>
        <pt x="49" y="-142" on="1"/>
        <pt x="66" y="39" on="0"/>
        <pt x="125" y="589" on="0"/>
        <pt x="137" y="671" on="0"/>
        <pt x="173" y="718" on="0"/>
        <pt x="200" y="730" on="1"/>
        <pt x="247" y="750" on="0"/>
        <pt x="306" y="750" on="1"/>
        <pt x="299" y="701" on="1"/>
        <pt x="271" y="701" on="0"/>
        <pt x="207" y="672" on="0"/>
        <pt x="204" y="644" on="1"/>
        <pt x="181" y="396" on="0"/>
        <pt x="122" y="-138" on="1"/>
        <pt x="107" y="-250" on="0"/>
      </contour>
    </TTGlyph>
    <TTGlyph name="j" xMin="-96" yMin="-186" xMax="239" yMax="720">
      <contour>
        <pt x="-96" y="-167" on="1"/>
        <pt x="-87" y="-97" on="1"/>
        <pt x="-55" y="-112" on="0"/>
        <pt x="-29" y="-112" on="1"/>
        <pt x="27" y="-112" on="0"/>
        <pt x="36" y="-44" on="1"/>
        <pt x="114" y="511" on="1"/>
        <pt x="208" y="511" on="1"/>
        <pt x="134" y="-15" on="1"/>
        <pt x="121" y="-106" on="0"/>
        <pt x="54" y="-186" on="0"/>
        <pt x="-66" y="-186" on="0"/>
      </contour>
      <contour>
        <pt x="227" y="633" on="1"/>
        <pt x="129" y="633" on="1"/>
        <pt x="141" y="720" on="1"/>
        <pt x="239" y="720" on="1"/>
      </contour>
    </TTGlyph>
    <TTGlyph name="k" xMin="42" yMin="0" xMax="539" yMax="720">
      <contour>
        <pt x="136" y="0" on="1"/>
        <pt x="42" y="0" on="1"/>
        <pt x="143" y="720" on="1"/>
        <pt x="237" y="720" on="1"/>
        <pt x="168" y="226" on="1"/>
        <pt x="436" y="511" on="1"/>
        <pt x="539" y="511" on="1"/>
        <pt x="307" y="263" on="1"/>
        <pt x="480" y="0" on="1"/>
        <pt x="366" y="0" on="1"/>
        <pt x="240" y="190" on="1"/>
        <pt x="151" y="110" on="1"/>
      </contour>
    </TTGlyph>
    <TTGlyph name="l" xMin="46" yMin="0" xMax="241" yMax="720">
      <contour>
        <pt x="140" y="0" on="1"/>
        <pt x="46" y="0" on="1"/>
        <pt x="147" y="720" on="1"/>
        <pt x="241" y="720" on="1"/>
      </contour>
    </TTGlyph>
    <TTGlyph name="less" xMin="31" yMin="4" xMax="583" yMax="504">
      <contour>
        <pt x="512" y="4" on="1"/>
        <pt x="31" y="200" on="1"/>
        <pt x="46" y="307" on="1"/>
        <pt x="583" y="504" on="1"/>
        <pt x="570" y="414" on="1"/>
        <pt x="120" y="254" on="1"/>
        <pt x="525" y="94" on="1"/>
      </contour>
    </TTGlyph>
    <TTGlyph name="lessequal" xMin="10" yMin="0" xMax="593" yMax="520">
      <contour>
        <pt x="520" y="0" on="1"/>
        <pt x="10" y="0" on="1"/>
        <pt x="22" y="83" on="1"/>
        <pt x="532" y="83" on="1"/>
      </contour>
      <contour>
        <pt x="47" y="258" on="1"/>
        <pt x="62" y="365" on="1"/>
        <pt x="435" y="475" on="0"/>
        <pt x="593" y="520" on="1"/>
        <pt x="580" y="430" on="1"/>
        <pt x="135" y="312" on="1"/>
        <pt x="233" y="283" on="0"/>
        <pt x="547" y="194" on="1"/>
        <pt x="535" y="104" on="1"/>
        <pt x="167" y="221" on="0"/>
      </contour>
    </TTGlyph>
    <TTGlyph name="logicalnot" xMin="44" yMin="174" xMax="576" yMax="453">
      <contour>
        <pt x="479" y="360" on="1"/>
        <pt x="44" y="360" on="1"/>
        <pt x="57" y="453" on="1"/>
        <pt x="576" y="453" on="1"/>
        <pt x="537" y="174" on="1"/>
        <pt x="453" y="174" on="1"/>
      </contour>
    </TTGlyph>
    <TTGlyph name="lozenge" xMin="36" yMin="0" xMax="468" yMax="686">
      <contour>
        <pt x="151" y="0" on="1"/>
        <pt x="36" y="343" on="1"/>
        <pt x="248" y="686" on="1"/>
        <pt x="351" y="686" on="1"/>
        <pt x="468" y="343" on="1"/>
        <pt x="254" y="0" on="1"/>
      </contour>
      <contour>
        <pt x="289" y="611" on="1"/>
        <pt x="119" y="343" on="1"/>
        <pt x="214" y="74" on="1"/>
        <pt x="289" y="196" on="0"/>
        <pt x="386" y="343" on="1"/>
        <pt x="360" y="409" on="0"/>
      </contour>
    </TTGlyph>
    <TTGlyph name="lslash" xMin="18" yMin="0" xMax="304" yMax="720">
      <contour>
        <pt x="105" y="322" on="1"/>
        <pt x="18" y="281" on="1"/>
        <pt x="27" y="351" on="1"/>
        <pt x="115" y="392" on="1"/>
        <pt x="161" y="720" on="1"/>
        <pt x="255" y="720" on="1"/>
        <pt x="216" y="440" on="1"/>
        <pt x="304" y="481" on="1"/>
        <pt x="294" y="411" on="1"/>
        <pt x="206" y="370" on="1"/>
        <pt x="154" y="0" on="1"/>
        <pt x="60" y="0" on="1"/>
      </contour>
    </TTGlyph>
    <TTGlyph name="m" xMin="42" yMin="0" xMax="799" yMax="521">
      <contour>
        <pt x="136" y="0" on="1"/>
        <pt x="42" y="0" on="1"/>
        <pt x="114" y="511" on="1"/>
        <pt x="184" y="511" on="1"/>
        <pt x="184" y="436" on="1"/>
        <pt x="256" y="521" on="0"/>
        <pt x="351" y="521" on="1"/>
        <pt x="458" y="521" on="0"/>
        <pt x="485" y="436" on="1"/>
        <pt x="558" y="521" on="0"/>
        <pt x="657" y="521" on="1"/>
        <pt x="722" y="521" on="0"/>
        <pt x="799" y="453" on="0"/>
        <pt x="799" y="384" on="1"/>
        <pt x="799" y="359" on="0"/>
        <pt x="773" y="177" on="1"/>
        <pt x="748" y="0" on="1"/>
        <pt x="654" y="0" on="1"/>
        <pt x="678" y="170" on="1"/>
        <pt x="682" y="203" on="0"/>
        <pt x="688" y="252" on="1"/>
        <pt x="702" y="354" on="0"/>
        <pt x="702" y="361" on="1"/>
        <pt x="702" y="409" on="0"/>
        <pt x="664" y="446" on="0"/>
        <pt x="576" y="446" on="0"/>
        <pt x="493" y="363" on="0"/>
        <pt x="485" y="304" on="1"/>
        <pt x="442" y="0" on="1"/>
        <pt x="348" y="0" on="1"/>
        <pt x="372" y="171" on="1"/>
        <pt x="376" y="206" on="0"/>
        <pt x="383" y="254" on="1"/>
        <pt x="397" y="348" on="0"/>
        <pt x="397" y="361" on="1"/>
        <pt x="397" y="446" on="0"/>
        <pt x="319" y="446" on="1"/>
        <pt x="270" y="446" on="0"/>
        <pt x="187" y="363" on="0"/>
        <pt x="179" y="304" on="1"/>
      </contour>
    </TTGlyph>
    <TTGlyph name="middot" xMin="60" yMin="232" xMax="176" yMax="344">
      <contour>
        <pt x="161" y="232" on="1"/>
        <pt x="60" y="232" on="1"/>
        <pt x="75" y="344" on="1"/>
        <pt x="176" y="344" on="1"/>
      </contour>
    </TTGlyph>
    <TTGlyph name="minus" xMin="41" yMin="221" xMax="566" yMax="312">
      <contour>
        <pt x="553" y="221" on="1"/>
        <pt x="41" y="221" on="1"/>
        <pt x="54" y="312" on="1"/>
        <pt x="566" y="312" on="1"/>
      </contour>
    </TTGlyph>
    <TTGlyph name="multiply" xMin="72" yMin="45" xMax="532" yMax="466">
      <contour>
        <pt x="426" y="45" on="1"/>
        <pt x="361" y="117" on="0"/>
        <pt x="294" y="195" on="1"/>
        <pt x="119" y="45" on="1"/>
        <pt x="116" y="49" on="0"/>
        <pt x="72" y="104" on="1"/>
        <pt x="246" y="255" on="1"/>
        <pt x="115" y="407" on="1"/>
        <pt x="127" y="418" on="0"/>
        <pt x="178" y="466" on="1"/>
        <pt x="311" y="314" on="1"/>
        <pt x="485" y="466" on="1"/>
        <pt x="529" y="411" on="0"/>
        <pt x="532" y="407" on="1"/>
        <pt x="357" y="255" on="1"/>
        <pt x="489" y="104" on="1"/>
        <pt x="477" y="94" on="0"/>
      </contour>
    </TTGlyph>
    <TTGlyph name="n" xMin="42" yMin="0" xMax="525" yMax="521">
      <contour>
        <pt x="136" y="0" on="1"/>
        <pt x="42" y="0" on="1"/>
        <pt x="114" y="511" on="1"/>
        <pt x="184" y="511" on="1"/>
        <pt x="184" y="436" on="1"/>
        <pt x="262" y="521" on="0"/>
        <pt x="367" y="521" on="1"/>
        <pt x="439" y="521" on="0"/>
        <pt x="525" y="451" on="0"/>
        <pt x="525" y="380" on="1"/>
        <pt x="525" y="358" on="0"/>
        <pt x="499" y="178" on="1"/>
        <pt x="474" y="0" on="1"/>
        <pt x="380" y="0" on="1"/>
        <pt x="404" y="167" on="1"/>
        <pt x="428" y="355" on="0"/>
        <pt x="428" y="356" on="1"/>
        <pt x="428" y="446" on="0"/>
        <pt x="335" y="446" on="1"/>
        <pt x="281" y="446" on="0"/>
        <pt x="187" y="363" on="0"/>
        <pt x="179" y="304" on="1"/>
      </contour>
    </TTGlyph>
    <TTGlyph name="nine" xMin="59" yMin="-10" xMax="562" yMax="696">
      <contour>
        <pt x="59" y="176" on="1"/>
        <pt x="59" y="194" on="0"/>
        <pt x="62" y="213" on="1"/>
        <pt x="160" y="213" on="1"/>
        <pt x="158" y="197" on="0"/>
        <pt x="158" y="189" on="1"/>
        <pt x="158" y="137" on="0"/>
        <pt x="220" y="79" on="0"/>
        <pt x="335" y="79" on="0"/>
        <pt x="417" y="155" on="0"/>
        <pt x="426" y="212" on="1"/>
        <pt x="441" y="320" on="1"/>
        <pt x="372" y="254" on="0"/>
        <pt x="193" y="254" on="0"/>
        <pt x="85" y="356" on="0"/>
        <pt x="85" y="436" on="1"/>
        <pt x="85" y="555" on="0"/>
        <pt x="240" y="696" on="0"/>
        <pt x="355" y="696" on="1"/>
        <pt x="446" y="696" on="0"/>
        <pt x="562" y="591" on="0"/>
        <pt x="562" y="502" on="1"/>
        <pt x="562" y="492" on="0"/>
        <pt x="525" y="221" on="1"/>
        <pt x="510" y="119" on="0"/>
        <pt x="369" y="-10" on="0"/>
        <pt x="170" y="-10" on="0"/>
        <pt x="59" y="89" on="0"/>
      </contour>
      <contour>
        <pt x="184" y="455" on="1"/>
        <pt x="184" y="404" on="0"/>
        <pt x="252" y="343" on="0"/>
        <pt x="371" y="343" on="0"/>
        <pt x="464" y="429" on="0"/>
        <pt x="464" y="546" on="0"/>
        <pt x="397" y="607" on="0"/>
        <pt x="279" y="607" on="0"/>
        <pt x="184" y="523" on="0"/>
      </contour>
    </TTGlyph>
    <TTGlyph name="notequal" xMin="29" yMin="0" xMax="574" yMax="511">
      <contour>
        <pt x="141" y="105" on="1"/>
        <pt x="29" y="105" on="1"/>
        <pt x="41" y="189" on="1"/>
        <pt x="206" y="189" on="1"/>
        <pt x="315" y="318" on="1"/>
        <pt x="59" y="318" on="1"/>
        <pt x="71" y="401" on="1"/>
        <pt x="380" y="401" on="1"/>
        <pt x="407" y="432" on="0"/>
        <pt x="473" y="511" on="1"/>
        <pt x="552" y="511" on="1"/>
        <pt x="461" y="401" on="1"/>
        <pt x="574" y="401" on="1"/>
        <pt x="562" y="318" on="1"/>
        <pt x="396" y="318" on="1"/>
        <pt x="324" y="232" on="0"/>
        <pt x="287" y="189" on="1"/>
        <pt x="544" y="189" on="1"/>
        <pt x="532" y="105" on="1"/>
        <pt x="223" y="105" on="1"/>
        <pt x="135" y="0" on="1"/>
        <pt x="53" y="0" on="1"/>
        <pt x="125" y="88" on="0"/>
      </contour>
    </TTGlyph>
    <TTGlyph name="ntilde" xMin="42" yMin="0" xMax="553" yMax="720">
      <contour>
        <pt x="136" y="0" on="1"/>
        <pt x="42" y="0" on="1"/>
        <pt x="114" y="511" on="1"/>
        <pt x="184" y="511" on="1"/>
        <pt x="184" y="436" on="1"/>
        <pt x="262" y="521" on="0"/>
        <pt x="367" y="521" on="1"/>
        <pt x="439" y="521" on="0"/>
        <pt x="525" y="451" on="0"/>
        <pt x="525" y="380" on="1"/>
        <pt x="525" y="358" on="0"/>
        <pt x="499" y="178" on="1"/>
        <pt x="474" y="0" on="1"/>
        <pt x="380" y="0" on="1"/>
        <pt x="404" y="167" on="1"/>
        <pt x="428" y="355" on="0"/>
        <pt x="428" y="356" on="1"/>
        <pt x="428" y="446" on="0"/>
        <pt x="335" y="446" on="1"/>
        <pt x="281" y="446" on="0"/>
        <pt x="187" y="363" on="0"/>
        <pt x="179" y="304" on="1"/>
      </contour>
      <contour>
        <pt x="202" y="616" on="1"/>
        <pt x="154" y="616" on="1"/>
        <pt x="161" y="656" on="0"/>
        <pt x="227" y="720" on="0"/>
        <pt x="280" y="720" on="1"/>
        <pt x="313" y="720" on="0"/>
        <pt x="418" y="685" on="0"/>
        <pt x="443" y="685" on="1"/>
        <pt x="488" y="685" on="0"/>
        <pt x="503" y="720" on="1"/>
        <pt x="553" y="720" on="1"/>
        <pt x="546" y="679" on="0"/>
        <pt x="480" y="616" on="0"/>
        <pt x="426" y="616" on="1"/>
        <pt x="393" y="616" on="0"/>
        <pt x="288" y="650" on="0"/>
        <pt x="262" y="650" on="1"/>
        <pt x="217" y="650" on="0"/>
      </contour>
    </TTGlyph>
    <TTGlyph name="numbersign" xMin="14" yMin="0" xMax="641" yMax="696">
      <contour>
        <pt x="123" y="179" on="1"/>
        <pt x="14" y="179" on="1"/>
        <pt x="24" y="255" on="1"/>
        <pt x="150" y="255" on="1"/>
        <pt x="206" y="410" on="1"/>
        <pt x="85" y="410" on="1"/>
        <pt x="96" y="486" on="1"/>
        <pt x="234" y="486" on="1"/>
        <pt x="310" y="696" on="1"/>
        <pt x="386" y="696" on="1"/>
        <pt x="310" y="486" on="1"/>
        <pt x="460" y="486" on="1"/>
        <pt x="536" y="696" on="1"/>
        <pt x="612" y="696" on="1"/>
        <pt x="536" y="486" on="1"/>
        <pt x="641" y="486" on="1"/>
        <pt x="630" y="410" on="1"/>
        <pt x="508" y="410" on="1"/>
        <pt x="452" y="255" on="1"/>
        <pt x="568" y="255" on="1"/>
        <pt x="558" y="179" on="1"/>
        <pt x="425" y="179" on="1"/>
        <pt x="360" y="0" on="1"/>
        <pt x="284" y="0" on="1"/>
        <pt x="349" y="179" on="1"/>
        <pt x="199" y="179" on="1"/>
        <pt x="134" y="0" on="1"/>
        <pt x="58" y="0" on="1"/>
      </contour>
      <contour>
        <pt x="282" y="410" on="1"/>
        <pt x="226" y="255" on="1"/>
        <pt x="376" y="255" on="1"/>
        <pt x="432" y="410" on="1"/>
      </contour>
    </TTGlyph>
    <TTGlyph name="o" xMin="41" yMin="-10" xMax="524" yMax="521">
      <contour>
        <pt x="41" y="187" on="1"/>
        <pt x="41" y="320" on="0"/>
        <pt x="101" y="415" on="1"/>
        <pt x="132" y="464" on="0"/>
        <pt x="244" y="521" on="0"/>
        <pt x="411" y="521" on="0"/>
        <pt x="524" y="420" on="0"/>
        <pt x="524" y="324" on="1"/>
        <pt x="524" y="191" on="0"/>
        <pt x="464" y="96" on="1"/>
        <pt x="433" y="47" on="0"/>
        <pt x="321" y="-10" on="0"/>
        <pt x="154" y="-10" on="0"/>
        <pt x="41" y="91" on="0"/>
      </contour>
      <contour>
        <pt x="136" y="132" on="0"/>
        <pt x="202" y="65" on="0"/>
        <pt x="303" y="65" on="0"/>
        <pt x="373" y="110" on="0"/>
        <pt x="392" y="147" on="1"/>
        <pt x="428" y="220" on="0"/>
        <pt x="428" y="379" on="0"/>
        <pt x="363" y="446" on="0"/>
        <pt x="260" y="446" on="0"/>
        <pt x="190" y="401" on="0"/>
        <pt x="172" y="363" on="1"/>
        <pt x="136" y="290" on="0"/>
      </contour>
    </TTGlyph>
    <TTGlyph name="oacute" xMin="41" yMin="-10" xMax="524" yMax="720">
      <contour>
        <pt x="41" y="187" on="1"/>
        <pt x="41" y="320" on="0"/>
        <pt x="101" y="415" on="1"/>
        <pt x="132" y="464" on="0"/>
        <pt x="244" y="521" on="0"/>
        <pt x="411" y="521" on="0"/>
        <pt x="524" y="420" on="0"/>
        <pt x="524" y="324" on="1"/>
        <pt x="524" y="191" on="0"/>
        <pt x="464" y="96" on="1"/>
        <pt x="433" y="47" on="0"/>
        <pt x="321" y="-10" on="0"/>
        <pt x="154" y="-10" on="0"/>
        <pt x="41" y="91" on="0"/>
      </contour>
      <contour>
        <pt x="136" y="132" on="0"/>
        <pt x="202" y="65" on="0"/>
        <pt x="303" y="65" on="0"/>
        <pt x="373" y="110" on="0"/>
        <pt x="392" y="147" on="1"/>
        <pt x="428" y="220" on="0"/>
        <pt x="428" y="379" on="0"/>
        <pt x="363" y="446" on="0"/>
        <pt x="260" y="446" on="0"/>
        <pt x="190" y="401" on="0"/>
        <pt x="172" y="363" on="1"/>
        <pt x="136" y="290" on="0"/>
      </contour>
      <contour>
        <pt x="363" y="575" on="1"/>
        <pt x="294" y="575" on="1"/>
        <pt x="409" y="720" on="1"/>
        <pt x="499" y="720" on="1"/>
        <pt x="499" y="716" on="1"/>
      </contour>
    </TTGlyph>
    <TTGlyph name="ocircumflex" xMin="41" yMin="-10" xMax="524" yMax="720">
      <contour>
        <pt x="41" y="187" on="1"/>
        <pt x="41" y="320" on="0"/>
        <pt x="101" y="415" on="1"/>
        <pt x="132" y="464" on="0"/>
        <pt x="244" y="521" on="0"/>
        <pt x="411" y="521" on="0"/>
        <pt x="524" y="420" on="0"/>
        <pt x="524" y="324" on="1"/>
        <pt x="524" y="191" on="0"/>
        <pt x="464" y="96" on="1"/>
        <pt x="433" y="47" on="0"/>
        <pt x="321" y="-10" on="0"/>
        <pt x="154" y="-10" on="0"/>
        <pt x="41" y="91" on="0"/>
      </contour>
      <contour>
        <pt x="136" y="132" on="0"/>
        <pt x="202" y="65" on="0"/>
        <pt x="303" y="65" on="0"/>
        <pt x="373" y="110" on="0"/>
        <pt x="392" y="147" on="1"/>
        <pt x="428" y="220" on="0"/>
        <pt x="428" y="379" on="0"/>
        <pt x="363" y="446" on="0"/>
        <pt x="260" y="446" on="0"/>
        <pt x="190" y="401" on="0"/>
        <pt x="172" y="363" on="1"/>
        <pt x="136" y="290" on="0"/>
      </contour>
      <contour>
        <pt x="241" y="575" on="1"/>
        <pt x="161" y="575" on="1"/>
        <pt x="318" y="720" on="1"/>
        <pt x="396" y="720" on="1"/>
        <pt x="510" y="575" on="1"/>
        <pt x="430" y="575" on="1"/>
        <pt x="349" y="664" on="1"/>
      </contour>
    </TTGlyph>
    <TTGlyph name="odieresis" xMin="41" yMin="-10" xMax="524" yMax="719">
      <contour>
        <pt x="41" y="187" on="1"/>
        <pt x="41" y="320" on="0"/>
        <pt x="101" y="415" on="1"/>
        <pt x="132" y="464" on="0"/>
        <pt x="244" y="521" on="0"/>
        <pt x="411" y="521" on="0"/>
        <pt x="524" y="420" on="0"/>
        <pt x="524" y="324" on="1"/>
        <pt x="524" y="191" on="0"/>
        <pt x="464" y="96" on="1"/>
        <pt x="433" y="47" on="0"/>
        <pt x="321" y="-10" on="0"/>
        <pt x="154" y="-10" on="0"/>
        <pt x="41" y="91" on="0"/>
      </contour>
      <contour>
        <pt x="136" y="132" on="0"/>
        <pt x="202" y="65" on="0"/>
        <pt x="303" y="65" on="0"/>
        <pt x="373" y="110" on="0"/>
        <pt x="392" y="147" on="1"/>
        <pt x="428" y="220" on="0"/>
        <pt x="428" y="379" on="0"/>
        <pt x="363" y="446" on="0"/>
        <pt x="260" y="446" on="0"/>
        <pt x="190" y="401" on="0"/>
        <pt x="172" y="363" on="1"/>
        <pt x="136" y="290" on="0"/>
      </contour>
      <contour>
        <pt x="282" y="621" on="1"/>
        <pt x="192" y="621" on="1"/>
        <pt x="205" y="719" on="1"/>
        <pt x="295" y="719" on="1"/>
      </contour>
      <contour>
        <pt x="471" y="621" on="1"/>
        <pt x="380" y="621" on="1"/>
        <pt x="393" y="719" on="1"/>
        <pt x="484" y="719" on="1"/>
      </contour>
    </TTGlyph>
    <TTGlyph name="oe" xMin="41" yMin="-10" xMax="884" yMax="521">
      <contour>
        <pt x="41" y="187" on="1"/>
        <pt x="41" y="320" on="0"/>
        <pt x="101" y="415" on="1"/>
        <pt x="132" y="464" on="0"/>
        <pt x="244" y="521" on="0"/>
        <pt x="320" y="521" on="1"/>
        <pt x="444" y="521" on="0"/>
        <pt x="496" y="436" on="1"/>
        <pt x="570" y="521" on="0"/>
        <pt x="691" y="521" on="1"/>
        <pt x="698" y="521" on="1"/>
        <pt x="783" y="521" on="0"/>
        <pt x="884" y="427" on="0"/>
        <pt x="884" y="344" on="1"/>
        <pt x="884" y="333" on="1"/>
        <pt x="884" y="312" on="0"/>
        <pt x="871" y="234" on="1"/>
        <pt x="514" y="234" on="1"/>
        <pt x="512" y="212" on="0"/>
        <pt x="512" y="202" on="1"/>
        <pt x="512" y="65" on="0"/>
        <pt x="633" y="65" on="1"/>
        <pt x="672" y="65" on="0"/>
        <pt x="731" y="93" on="0"/>
        <pt x="746" y="116" on="1"/>
        <pt x="770" y="155" on="0"/>
        <pt x="776" y="190" on="1"/>
        <pt x="865" y="190" on="1"/>
        <pt x="852" y="96" on="0"/>
        <pt x="725" y="-10" on="0"/>
        <pt x="623" y="-10" on="1"/>
        <pt x="619" y="-10" on="1"/>
        <pt x="498" y="-10" on="0"/>
        <pt x="448" y="75" on="1"/>
        <pt x="376" y="-10" on="0"/>
        <pt x="245" y="-10" on="1"/>
        <pt x="154" y="-10" on="0"/>
        <pt x="41" y="91" on="0"/>
      </contour>
      <contour>
        <pt x="136" y="200" on="1"/>
        <pt x="136" y="132" on="0"/>
        <pt x="202" y="65" on="0"/>
        <pt x="303" y="65" on="0"/>
        <pt x="373" y="110" on="0"/>
        <pt x="392" y="147" on="1"/>
        <pt x="428" y="220" on="0"/>
        <pt x="428" y="379" on="0"/>
        <pt x="363" y="446" on="0"/>
        <pt x="270" y="446" on="0"/>
        <pt x="209" y="415" on="0"/>
        <pt x="173" y="368" on="0"/>
        <pt x="161" y="333" on="1"/>
        <pt x="142" y="279" on="0"/>
      </contour>
      <contour>
        <pt x="527" y="307" on="1"/>
        <pt x="789" y="307" on="1"/>
        <pt x="792" y="327" on="0"/>
        <pt x="792" y="343" on="1"/>
        <pt x="792" y="393" on="0"/>
        <pt x="732" y="446" on="0"/>
        <pt x="625" y="446" on="0"/>
        <pt x="544" y="376" on="0"/>
      </contour>
    </TTGlyph>
    <TTGlyph name="ogonek" xMin="67" yMin="-143" xMax="247" yMax="0">
      <contour>
        <pt x="67" y="-83" on="1"/>
        <pt x="67" y="-39" on="0"/>
        <pt x="132" y="0" on="1"/>
        <pt x="186" y="0" on="1"/>
        <pt x="165" y="-9" on="0"/>
        <pt x="130" y="-47" on="0"/>
        <pt x="130" y="-65" on="1"/>
        <pt x="130" y="-96" on="0"/>
        <pt x="170" y="-96" on="1"/>
        <pt x="193" y="-96" on="0"/>
        <pt x="239" y="-82" on="1"/>
        <pt x="247" y="-119" on="1"/>
        <pt x="204" y="-143" on="0"/>
        <pt x="160" y="-143" on="1"/>
        <pt x="67" y="-143" on="0"/>
      </contour>
    </TTGlyph>
    <TTGlyph name="ograve" xMin="41" yMin="-10" xMax="524" yMax="720">
      <contour>
        <pt x="41" y="187" on="1"/>
        <pt x="41" y="320" on="0"/>
        <pt x="101" y="415" on="1"/>
        <pt x="132" y="464" on="0"/>
        <pt x="244" y="521" on="0"/>
        <pt x="411" y="521" on="0"/>
        <pt x="524" y="420" on="0"/>
        <pt x="524" y="324" on="1"/>
        <pt x="524" y="191" on="0"/>
        <pt x="464" y="96" on="1"/>
        <pt x="433" y="47" on="0"/>
        <pt x="321" y="-10" on="0"/>
        <pt x="154" y="-10" on="0"/>
        <pt x="41" y="91" on="0"/>
      </contour>
      <contour>
        <pt x="136" y="132" on="0"/>
        <pt x="202" y="65" on="0"/>
        <pt x="303" y="65" on="0"/>
        <pt x="373" y="110" on="0"/>
        <pt x="392" y="147" on="1"/>
        <pt x="428" y="220" on="0"/>
        <pt x="428" y="379" on="0"/>
        <pt x="363" y="446" on="0"/>
        <pt x="260" y="446" on="0"/>
        <pt x="190" y="401" on="0"/>
        <pt x="172" y="363" on="1"/>
        <pt x="136" y="290" on="0"/>
      </contour>
      <contour>
        <pt x="296" y="575" on="1"/>
        <pt x="201" y="717" on="1"/>
        <pt x="203" y="720" on="1"/>
        <pt x="292" y="720" on="1"/>
        <pt x="366" y="575" on="1"/>
      </contour>
    </TTGlyph>
    <TTGlyph name="one" xMin="58" yMin="0" xMax="529" yMax="686">
      <contour>
        <pt x="516" y="0" on="1"/>
        <pt x="58" y="0" on="1"/>
        <pt x="71" y="89" on="1"/>
        <pt x="251" y="89" on="1"/>
        <pt x="316" y="555" on="1"/>
        <pt x="134" y="555" on="1"/>
        <pt x="143" y="619" on="1"/>
        <pt x="262" y="631" on="0"/>
        <pt x="395" y="686" on="1"/>
        <pt x="433" y="686" on="1"/>
        <pt x="349" y="89" on="1"/>
        <pt x="529" y="89" on="1"/>
      </contour>
    </TTGlyph>
    <TTGlyph name="onehalf" xMin="36" yMin="0" xMax="693" yMax="686">
      <contour>
        <pt x="270" y="310" on="1"/>
        <pt x="36" y="310" on="1"/>
        <pt x="43" y="359" on="1"/>
        <pt x="142" y="359" on="1"/>
        <pt x="177" y="612" on="1"/>
        <pt x="78" y="612" on="1"/>
        <pt x="84" y="647" on="1"/>
        <pt x="138" y="651" on="0"/>
        <pt x="220" y="684" on="1"/>
        <pt x="241" y="684" on="1"/>
        <pt x="196" y="359" on="1"/>
        <pt x="277" y="359" on="1"/>
      </contour>
      <contour>
        <pt x="137" y="0" on="1"/>
        <pt x="82" y="0" on="1"/>
        <pt x="599" y="686" on="1"/>
        <pt x="651" y="686" on="1"/>
      </contour>
      <contour>
        <pt x="656" y="0" on="1"/>
        <pt x="397" y="0" on="1"/>
        <pt x="399" y="13" on="1"/>
        <pt x="408" y="72" on="0"/>
        <pt x="463" y="110" on="1"/>
        <pt x="584" y="193" on="1"/>
        <pt x="639" y="230" on="0"/>
        <pt x="639" y="278" on="1"/>
        <pt x="639" y="299" on="0"/>
        <pt x="609" y="333" on="0"/>
        <pt x="537" y="333" on="0"/>
        <pt x="486" y="284" on="0"/>
        <pt x="486" y="246" on="1"/>
        <pt x="432" y="246" on="1"/>
        <pt x="432" y="300" on="0"/>
        <pt x="513" y="382" on="0"/>
        <pt x="637" y="382" on="0"/>
        <pt x="693" y="324" on="0"/>
        <pt x="693" y="286" on="1"/>
        <pt x="693" y="210" on="0"/>
        <pt x="608" y="153" on="1"/>
        <pt x="493" y="74" on="1"/>
        <pt x="480" y="64" on="1"/>
        <pt x="466" y="54" on="0"/>
        <pt x="466" y="49" on="1"/>
        <pt x="662" y="49" on="1"/>
      </contour>
    </TTGlyph>
    <TTGlyph name="onequarter" xMin="38" yMin="0" xMax="670" yMax="686">
      <contour>
        <pt x="272" y="310" on="1"/>
        <pt x="38" y="310" on="1"/>
        <pt x="45" y="359" on="1"/>
        <pt x="144" y="359" on="1"/>
        <pt x="179" y="612" on="1"/>
        <pt x="80" y="612" on="1"/>
        <pt x="86" y="647" on="1"/>
        <pt x="140" y="651" on="0"/>
        <pt x="222" y="684" on="1"/>
        <pt x="243" y="684" on="1"/>
        <pt x="198" y="359" on="1"/>
        <pt x="279" y="359" on="1"/>
      </contour>
      <contour>
        <pt x="156" y="0" on="1"/>
        <pt x="101" y="0" on="1"/>
        <pt x="618" y="686" on="1"/>
        <pt x="670" y="686" on="1"/>
      </contour>
      <contour>
        <pt x="546" y="91" on="1"/>
        <pt x="373" y="91" on="1"/>
        <pt x="380" y="141" on="1"/>
        <pt x="471" y="254" on="0"/>
        <pt x="528" y="374" on="1"/>
        <pt x="583" y="374" on="1"/>
        <pt x="556" y="309" on="0"/>
        <pt x="460" y="170" on="0"/>
        <pt x="430" y="140" on="1"/>
        <pt x="553" y="140" on="1"/>
        <pt x="568" y="245" on="1"/>
        <pt x="591" y="281" on="0"/>
        <pt x="607" y="319" on="1"/>
        <pt x="632" y="319" on="1"/>
        <pt x="607" y="140" on="1"/>
        <pt x="653" y="140" on="1"/>
        <pt x="646" y="91" on="1"/>
        <pt x="600" y="91" on="1"/>
        <pt x="587" y="0" on="1"/>
        <pt x="533" y="0" on="1"/>
      </contour>
    </TTGlyph>
    <TTGlyph name="ordfeminine" xMin="83" yMin="373" xMax="388" yMax="696">
      <contour>
        <pt x="83" y="494" on="1"/>
        <pt x="83" y="589" on="0"/>
        <pt x="168" y="696" on="0"/>
        <pt x="291" y="696" on="0"/>
        <pt x="317" y="650" on="1"/>
        <pt x="322" y="650" on="1"/>
        <pt x="341" y="690" on="1"/>
        <pt x="380" y="690" on="1"/>
        <pt x="345" y="452" on="0"/>
        <pt x="345" y="418" on="0"/>
        <pt x="372" y="418" on="0"/>
        <pt x="388" y="427" on="1"/>
        <pt x="383" y="385" on="1"/>
        <pt x="364" y="373" on="0"/>
        <pt x="336" y="373" on="1"/>
        <pt x="289" y="373" on="0"/>
        <pt x="289" y="418" on="1"/>
        <pt x="246" y="373" on="0"/>
        <pt x="141" y="373" on="0"/>
        <pt x="83" y="434" on="0"/>
      </contour>
      <contour>
        <pt x="140" y="496" on="1"/>
        <pt x="140" y="418" on="0"/>
        <pt x="206" y="418" on="1"/>
        <pt x="255" y="418" on="0"/>
        <pt x="305" y="504" on="0"/>
        <pt x="305" y="572" on="1"/>
        <pt x="305" y="650" on="0"/>
        <pt x="238" y="650" on="1"/>
        <pt x="201" y="650" on="0"/>
        <pt x="154" y="596" on="0"/>
        <pt x="140" y="532" on="0"/>
      </contour>
    </TTGlyph>
    <TTGlyph name="ordmasculine" xMin="82" yMin="373" xMax="376" yMax="696">
      <contour>
        <pt x="150" y="373" on="0"/>
        <pt x="82" y="433" on="0"/>
        <pt x="82" y="547" on="0"/>
        <pt x="112" y="634" on="0"/>
        <pt x="191" y="696" on="0"/>
        <pt x="308" y="696" on="0"/>
        <pt x="376" y="636" on="0"/>
        <pt x="376" y="522" on="0"/>
        <pt x="346" y="435" on="0"/>
        <pt x="267" y="373" on="0"/>
      </contour>
      <contour>
        <pt x="140" y="501" on="1"/>
        <pt x="140" y="419" on="0"/>
        <pt x="213" y="419" on="1"/>
        <pt x="251" y="419" on="0"/>
        <pt x="276" y="443" on="1"/>
        <pt x="317" y="484" on="0"/>
        <pt x="317" y="650" on="0"/>
        <pt x="245" y="650" on="1"/>
        <pt x="147" y="650" on="0"/>
      </contour>
    </TTGlyph>
    <TTGlyph name="oslash" xMin="15" yMin="-55" xMax="550" yMax="568">
      <contour>
        <pt x="74" y="-55" on="1"/>
        <pt x="15" y="-55" on="1"/>
        <pt x="92" y="45" on="1"/>
        <pt x="41" y="98" on="0"/>
        <pt x="41" y="187" on="1"/>
        <pt x="41" y="320" on="0"/>
        <pt x="101" y="415" on="1"/>
        <pt x="132" y="464" on="0"/>
        <pt x="244" y="521" on="0"/>
        <pt x="386" y="521" on="0"/>
        <pt x="434" y="494" on="1"/>
        <pt x="491" y="568" on="1"/>
        <pt x="550" y="568" on="1"/>
        <pt x="472" y="466" on="1"/>
        <pt x="524" y="412" on="0"/>
        <pt x="524" y="324" on="1"/>
        <pt x="524" y="191" on="0"/>
        <pt x="464" y="96" on="1"/>
        <pt x="433" y="47" on="0"/>
        <pt x="321" y="-10" on="0"/>
        <pt x="177" y="-10" on="0"/>
        <pt x="129" y="17" on="1"/>
      </contour>
      <contour>
        <pt x="136" y="200" on="1"/>
        <pt x="136" y="153" on="0"/>
        <pt x="151" y="123" on="1"/>
        <pt x="381" y="425" on="1"/>
        <pt x="351" y="446" on="0"/>
        <pt x="270" y="446" on="0"/>
        <pt x="209" y="415" on="0"/>
        <pt x="173" y="368" on="0"/>
        <pt x="161" y="333" on="1"/>
        <pt x="142" y="279" on="0"/>
      </contour>
      <contour>
        <pt x="412" y="388" on="1"/>
        <pt x="182" y="86" on="1"/>
        <pt x="211" y="65" on="0"/>
        <pt x="303" y="65" on="0"/>
        <pt x="373" y="110" on="0"/>
        <pt x="392" y="147" on="1"/>
        <pt x="428" y="220" on="0"/>
        <pt x="428" y="310" on="1"/>
        <pt x="428" y="357" on="0"/>
      </contour>
    </TTGlyph>
    <TTGlyph name="otilde" xMin="41" yMin="-10" xMax="532" yMax="719">
      <contour>
        <pt x="41" y="187" on="1"/>
        <pt x="41" y="320" on="0"/>
        <pt x="101" y="415" on="1"/>
        <pt x="132" y="464" on="0"/>
        <pt x="244" y="521" on="0"/>
        <pt x="411" y="521" on="0"/>
        <pt x="524" y="420" on="0"/>
        <pt x="524" y="324" on="1"/>
        <pt x="524" y="191" on="0"/>
        <pt x="464" y="96" on="1"/>
        <pt x="433" y="47" on="0"/>
        <pt x="321" y="-10" on="0"/>
        <pt x="154" y="-10" on="0"/>
        <pt x="41" y="91" on="0"/>
      </contour>
      <contour>
        <pt x="181" y="615" on="1"/>
        <pt x="133" y="615" on="1"/>
        <pt x="140" y="655" on="0"/>
        <pt x="206" y="719" on="0"/>
        <pt x="259" y="719" on="1"/>
        <pt x="292" y="719" on="0"/>
        <pt x="397" y="684" on="0"/>
        <pt x="422" y="684" on="1"/>
        <pt x="467" y="684" on="0"/>
        <pt x="482" y="719" on="1"/>
        <pt x="532" y="719" on="1"/>
        <pt x="525" y="678" on="0"/>
        <pt x="459" y="615" on="0"/>
        <pt x="405" y="615" on="1"/>
        <pt x="372" y="615" on="0"/>
        <pt x="267" y="649" on="0"/>
        <pt x="241" y="649" on="1"/>
        <pt x="196" y="649" on="0"/>
      </contour>
      <contour>
        <pt x="136" y="132" on="0"/>
        <pt x="202" y="65" on="0"/>
        <pt x="303" y="65" on="0"/>
        <pt x="373" y="110" on="0"/>
        <pt x="392" y="147" on="1"/>
        <pt x="428" y="220" on="0"/>
        <pt x="428" y="379" on="0"/>
        <pt x="363" y="446" on="0"/>
        <pt x="260" y="446" on="0"/>
        <pt x="190" y="401" on="0"/>
        <pt x="172" y="363" on="1"/>
        <pt x="136" y="290" on="0"/>
      </contour>
    </TTGlyph>
    <TTGlyph name="overscore" xMin="64" yMin="662" xMax="393" yMax="736">
      <contour>
        <pt x="382" y="662" on="1"/>
        <pt x="64" y="662" on="1"/>
        <pt x="75" y="736" on="1"/>
        <pt x="393" y="736" on="1"/>
      </contour>
    </TTGlyph>
    <TTGlyph name="p" xMin="17" yMin="-181" xMax="531" yMax="521">
      <contour>
        <pt x="111" y="-181" on="1"/>
        <pt x="17" y="-181" on="1"/>
        <pt x="114" y="511" on="1"/>
        <pt x="188" y="511" on="1"/>
        <pt x="188" y="441" on="1"/>
        <pt x="255" y="521" on="0"/>
        <pt x="357" y="521" on="1"/>
        <pt x="435" y="521" on="0"/>
        <pt x="531" y="420" on="0"/>
        <pt x="531" y="320" on="1"/>
        <pt x="531" y="203" on="0"/>
        <pt x="478" y="104" on="1"/>
        <pt x="451" y="53" on="0"/>
        <pt x="353" y="-10" on="0"/>
        <pt x="289" y="-10" on="1"/>
        <pt x="187" y="-10" on="0"/>
        <pt x="146" y="65" on="1"/>
      </contour>
      <contour>
        <pt x="167" y="193" on="1"/>
        <pt x="167" y="124" on="0"/>
        <pt x="223" y="65" on="0"/>
        <pt x="323" y="65" on="0"/>
        <pt x="391" y="112" on="0"/>
        <pt x="408" y="152" on="1"/>
        <pt x="438" y="225" on="0"/>
        <pt x="438" y="317" on="1"/>
        <pt x="438" y="446" on="0"/>
        <pt x="329" y="446" on="1"/>
        <pt x="259" y="446" on="0"/>
        <pt x="167" y="328" on="0"/>
      </contour>
    </TTGlyph>
    <TTGlyph name="paragraph" xMin="48" yMin="-169" xMax="537" yMax="686">
      <contour>
        <pt x="48" y="435" on="1"/>
        <pt x="48" y="538" on="0"/>
        <pt x="192" y="686" on="0"/>
        <pt x="299" y="686" on="1"/>
        <pt x="537" y="686" on="1"/>
        <pt x="528" y="625" on="1"/>
        <pt x="462" y="625" on="1"/>
        <pt x="350" y="-169" on="1"/>
        <pt x="287" y="-169" on="1"/>
        <pt x="399" y="625" on="1"/>
        <pt x="327" y="625" on="1"/>
        <pt x="215" y="-169" on="1"/>
        <pt x="152" y="-169" on="1"/>
        <pt x="211" y="250" on="1"/>
        <pt x="139" y="258" on="0"/>
        <pt x="48" y="362" on="0"/>
      </contour>
    </TTGlyph>
    <TTGlyph name="parenleft" xMin="39" yMin="-157" xMax="316" yMax="686">
      <contour>
        <pt x="39" y="178" on="1"/>
        <pt x="39" y="458" on="0"/>
        <pt x="264" y="686" on="1"/>
        <pt x="316" y="686" on="1"/>
        <pt x="227" y="571" on="0"/>
        <pt x="121" y="306" on="0"/>
        <pt x="121" y="170" on="1"/>
        <pt x="121" y="-2" on="0"/>
        <pt x="197" y="-157" on="1"/>
        <pt x="145" y="-157" on="1"/>
        <pt x="39" y="-11" on="0"/>
      </contour>
    </TTGlyph>
    <TTGlyph name="parenright" xMin="-33" yMin="-157" xMax="243" yMax="686">
      <contour>
        <pt x="18" y="-157" on="1"/>
        <pt x="-33" y="-157" on="1"/>
        <pt x="54" y="-44" on="0"/>
        <pt x="160" y="220" on="0"/>
        <pt x="160" y="355" on="1"/>
        <pt x="160" y="531" on="0"/>
        <pt x="86" y="686" on="1"/>
        <pt x="137" y="686" on="1"/>
        <pt x="243" y="540" on="0"/>
        <pt x="243" y="351" on="1"/>
        <pt x="243" y="212" on="0"/>
        <pt x="125" y="-49" on="0"/>
      </contour>
    </TTGlyph>
    <TTGlyph name="partialdiff" xMin="16" yMin="-10" xMax="530" yMax="696">
      <contour>
        <pt x="16" y="181" on="1"/>
        <pt x="16" y="291" on="0"/>
        <pt x="164" y="431" on="0"/>
        <pt x="266" y="431" on="1"/>
        <pt x="312" y="431" on="0"/>
        <pt x="392" y="392" on="0"/>
        <pt x="415" y="357" on="1"/>
        <pt x="432" y="477" on="1"/>
        <pt x="433" y="480" on="0"/>
        <pt x="433" y="486" on="1"/>
        <pt x="433" y="494" on="1"/>
        <pt x="433" y="541" on="0"/>
        <pt x="366" y="610" on="0"/>
        <pt x="316" y="610" on="1"/>
        <pt x="218" y="610" on="1"/>
        <pt x="230" y="696" on="1"/>
        <pt x="333" y="696" on="1"/>
        <pt x="420" y="696" on="0"/>
        <pt x="530" y="588" on="0"/>
        <pt x="530" y="501" on="1"/>
        <pt x="530" y="484" on="0"/>
        <pt x="527" y="464" on="1"/>
        <pt x="492" y="221" on="1"/>
        <pt x="476" y="115" on="0"/>
        <pt x="337" y="-10" on="0"/>
        <pt x="227" y="-10" on="1"/>
        <pt x="219" y="-10" on="1"/>
        <pt x="128" y="-10" on="0"/>
        <pt x="16" y="94" on="0"/>
      </contour>
      <contour>
        <pt x="110" y="185" on="1"/>
        <pt x="110" y="134" on="0"/>
        <pt x="178" y="72" on="0"/>
        <pt x="308" y="72" on="0"/>
        <pt x="398" y="173" on="0"/>
        <pt x="398" y="245" on="1"/>
        <pt x="398" y="296" on="0"/>
        <pt x="331" y="358" on="0"/>
        <pt x="201" y="358" on="0"/>
        <pt x="110" y="257" on="0"/>
      </contour>
    </TTGlyph>
    <TTGlyph name="percent" xMin="52" yMin="-1" xMax="661" yMax="686">
      <contour>
        <pt x="52" y="437" on="1"/>
        <pt x="52" y="443" on="0"/>
        <pt x="69" y="564" on="1"/>
        <pt x="75" y="617" on="0"/>
        <pt x="147" y="685" on="0"/>
        <pt x="207" y="685" on="1"/>
        <pt x="214" y="685" on="1"/>
        <pt x="263" y="685" on="0"/>
        <pt x="319" y="627" on="0"/>
        <pt x="319" y="582" on="1"/>
        <pt x="319" y="569" on="0"/>
        <pt x="303" y="457" on="1"/>
        <pt x="294" y="403" on="0"/>
        <pt x="225" y="336" on="0"/>
        <pt x="165" y="336" on="1"/>
        <pt x="158" y="336" on="1"/>
        <pt x="109" y="336" on="0"/>
        <pt x="52" y="393" on="0"/>
      </contour>
      <contour>
        <pt x="136" y="0" on="1"/>
        <pt x="66" y="0" on="1"/>
        <pt x="581" y="686" on="1"/>
        <pt x="649" y="686" on="1"/>
      </contour>
      <contour>
        <pt x="134" y="571" on="1"/>
        <pt x="116" y="453" on="0"/>
        <pt x="116" y="418" on="0"/>
        <pt x="144" y="391" on="0"/>
        <pt x="197" y="391" on="0"/>
        <pt x="234" y="424" on="0"/>
        <pt x="242" y="479" on="0"/>
        <pt x="248" y="524" on="0"/>
        <pt x="252" y="548" on="0"/>
        <pt x="254" y="565" on="0"/>
        <pt x="255" y="572" on="0"/>
        <pt x="256" y="577" on="0"/>
        <pt x="256" y="580" on="1"/>
        <pt x="256" y="602" on="0"/>
        <pt x="228" y="630" on="0"/>
        <pt x="174" y="630" on="0"/>
        <pt x="138" y="597" on="0"/>
      </contour>
      <contour>
        <pt x="394" y="100" on="1"/>
        <pt x="394" y="106" on="0"/>
        <pt x="411" y="227" on="1"/>
        <pt x="417" y="280" on="0"/>
        <pt x="489" y="348" on="0"/>
        <pt x="549" y="348" on="1"/>
        <pt x="556" y="348" on="1"/>
        <pt x="605" y="348" on="0"/>
        <pt x="661" y="290" on="0"/>
        <pt x="661" y="245" on="1"/>
        <pt x="661" y="232" on="0"/>
        <pt x="645" y="120" on="1"/>
        <pt x="636" y="66" on="0"/>
        <pt x="567" y="-1" on="0"/>
        <pt x="507" y="-1" on="1"/>
        <pt x="500" y="-1" on="1"/>
        <pt x="451" y="-1" on="0"/>
        <pt x="394" y="56" on="0"/>
      </contour>
      <contour>
        <pt x="476" y="234" on="1"/>
        <pt x="458" y="116" on="0"/>
        <pt x="458" y="81" on="0"/>
        <pt x="486" y="54" on="0"/>
        <pt x="539" y="54" on="0"/>
        <pt x="576" y="87" on="0"/>
        <pt x="584" y="142" on="0"/>
        <pt x="590" y="187" on="0"/>
        <pt x="594" y="211" on="0"/>
        <pt x="596" y="228" on="0"/>
        <pt x="597" y="235" on="0"/>
        <pt x="598" y="240" on="0"/>
        <pt x="598" y="243" on="1"/>
        <pt x="598" y="265" on="0"/>
        <pt x="570" y="293" on="0"/>
        <pt x="516" y="293" on="0"/>
        <pt x="480" y="260" on="0"/>
      </contour>
    </TTGlyph>
    <TTGlyph name="period" xMin="29" yMin="0" xMax="145" yMax="111">
      <contour>
        <pt x="130" y="0" on="1"/>
        <pt x="29" y="0" on="1"/>
        <pt x="44" y="111" on="1"/>
        <pt x="145" y="111" on="1"/>
      </contour>
    </TTGlyph>
    <TTGlyph name="perthousand" xMin="55" yMin="-1" xMax="997" yMax="686">
      <contour>
        <pt x="55" y="438" on="1"/>
        <pt x="55" y="444" on="0"/>
        <pt x="72" y="565" on="1"/>
        <pt x="78" y="618" on="0"/>
        <pt x="150" y="686" on="0"/>
        <pt x="210" y="686" on="1"/>
        <pt x="217" y="686" on="1"/>
        <pt x="266" y="686" on="0"/>
        <pt x="322" y="628" on="0"/>
        <pt x="322" y="583" on="1"/>
        <pt x="322" y="570" on="0"/>
        <pt x="306" y="458" on="1"/>
        <pt x="297" y="404" on="0"/>
        <pt x="228" y="337" on="0"/>
        <pt x="168" y="337" on="1"/>
        <pt x="161" y="337" on="1"/>
        <pt x="112" y="337" on="0"/>
        <pt x="55" y="394" on="0"/>
      </contour>
      <contour>
        <pt x="139" y="0" on="1"/>
        <pt x="69" y="0" on="1"/>
        <pt x="584" y="686" on="1"/>
        <pt x="652" y="686" on="1"/>
      </contour>
      <contour>
        <pt x="137" y="572" on="1"/>
        <pt x="119" y="454" on="0"/>
        <pt x="119" y="419" on="0"/>
        <pt x="147" y="392" on="0"/>
        <pt x="200" y="392" on="0"/>
        <pt x="237" y="425" on="0"/>
        <pt x="245" y="480" on="0"/>
        <pt x="251" y="525" on="0"/>
        <pt x="255" y="549" on="0"/>
        <pt x="257" y="566" on="0"/>
        <pt x="258" y="573" on="0"/>
        <pt x="259" y="578" on="0"/>
        <pt x="259" y="581" on="1"/>
        <pt x="259" y="603" on="0"/>
        <pt x="231" y="631" on="0"/>
        <pt x="177" y="631" on="0"/>
        <pt x="141" y="598" on="0"/>
      </contour>
      <contour>
        <pt x="397" y="100" on="1"/>
        <pt x="397" y="106" on="0"/>
        <pt x="414" y="227" on="1"/>
        <pt x="420" y="280" on="0"/>
        <pt x="492" y="348" on="0"/>
        <pt x="552" y="348" on="1"/>
        <pt x="559" y="348" on="1"/>
        <pt x="608" y="348" on="0"/>
        <pt x="664" y="290" on="0"/>
        <pt x="664" y="245" on="1"/>
        <pt x="664" y="232" on="0"/>
        <pt x="648" y="120" on="1"/>
        <pt x="639" y="66" on="0"/>
        <pt x="570" y="-1" on="0"/>
        <pt x="510" y="-1" on="1"/>
        <pt x="503" y="-1" on="1"/>
        <pt x="454" y="-1" on="0"/>
        <pt x="397" y="56" on="0"/>
      </contour>
      <contour>
        <pt x="479" y="234" on="1"/>
        <pt x="461" y="116" on="0"/>
        <pt x="461" y="81" on="0"/>
        <pt x="489" y="54" on="0"/>
        <pt x="542" y="54" on="0"/>
        <pt x="579" y="87" on="0"/>
        <pt x="587" y="142" on="0"/>
        <pt x="593" y="187" on="0"/>
        <pt x="597" y="211" on="0"/>
        <pt x="599" y="228" on="0"/>
        <pt x="600" y="235" on="0"/>
        <pt x="601" y="240" on="0"/>
        <pt x="601" y="243" on="1"/>
        <pt x="601" y="265" on="0"/>
        <pt x="573" y="293" on="0"/>
        <pt x="519" y="293" on="0"/>
        <pt x="483" y="260" on="0"/>
      </contour>
      <contour>
        <pt x="730" y="100" on="1"/>
        <pt x="730" y="106" on="0"/>
        <pt x="747" y="227" on="1"/>
        <pt x="753" y="280" on="0"/>
        <pt x="825" y="348" on="0"/>
        <pt x="885" y="348" on="1"/>
        <pt x="892" y="348" on="1"/>
        <pt x="941" y="348" on="0"/>
        <pt x="997" y="290" on="0"/>
        <pt x="997" y="245" on="1"/>
        <pt x="997" y="232" on="0"/>
        <pt x="981" y="120" on="1"/>
        <pt x="972" y="66" on="0"/>
        <pt x="903" y="-1" on="0"/>
        <pt x="843" y="-1" on="1"/>
        <pt x="836" y="-1" on="1"/>
        <pt x="787" y="-1" on="0"/>
        <pt x="730" y="56" on="0"/>
      </contour>
      <contour>
        <pt x="812" y="234" on="1"/>
        <pt x="794" y="116" on="0"/>
        <pt x="794" y="81" on="0"/>
        <pt x="822" y="54" on="0"/>
        <pt x="875" y="54" on="0"/>
        <pt x="912" y="87" on="0"/>
        <pt x="920" y="142" on="0"/>
        <pt x="926" y="187" on="0"/>
        <pt x="930" y="211" on="0"/>
        <pt x="932" y="228" on="0"/>
        <pt x="933" y="235" on="0"/>
        <pt x="934" y="240" on="0"/>
        <pt x="934" y="243" on="1"/>
        <pt x="934" y="265" on="0"/>
        <pt x="906" y="293" on="0"/>
        <pt x="852" y="293" on="0"/>
        <pt x="816" y="260" on="0"/>
      </contour>
    </TTGlyph>
    <TTGlyph name="pi" xMin="39" yMin="0" xMax="633" yMax="511">
      <contour>
        <pt x="129" y="0" on="1"/>
        <pt x="39" y="0" on="1"/>
        <pt x="76" y="76" on="0"/>
        <pt x="155" y="340" on="0"/>
        <pt x="171" y="437" on="1"/>
        <pt x="88" y="437" on="0"/>
        <pt x="50" y="425" on="1"/>
        <pt x="46" y="482" on="1"/>
        <pt x="89" y="511" on="0"/>
        <pt x="210" y="511" on="1"/>
        <pt x="633" y="511" on="1"/>
        <pt x="614" y="437" on="1"/>
        <pt x="527" y="437" on="1"/>
        <pt x="487" y="152" on="1"/>
        <pt x="478" y="90" on="0"/>
        <pt x="478" y="18" on="0"/>
        <pt x="481" y="0" on="1"/>
        <pt x="392" y="0" on="1"/>
        <pt x="386" y="10" on="0"/>
        <pt x="386" y="80" on="0"/>
        <pt x="395" y="143" on="1"/>
        <pt x="436" y="437" on="1"/>
        <pt x="262" y="437" on="1"/>
        <pt x="242" y="331" on="0"/>
        <pt x="162" y="60" on="0"/>
      </contour>
    </TTGlyph>
    <TTGlyph name="plus" xMin="41" yMin="0" xMax="564" yMax="511">
      <contour>
        <pt x="255" y="213" on="1"/>
        <pt x="41" y="213" on="1"/>
        <pt x="52" y="297" on="1"/>
        <pt x="266" y="297" on="1"/>
        <pt x="296" y="511" on="1"/>
        <pt x="379" y="511" on="1"/>
        <pt x="349" y="297" on="1"/>
        <pt x="564" y="297" on="1"/>
        <pt x="553" y="213" on="1"/>
        <pt x="338" y="213" on="1"/>
        <pt x="308" y="0" on="1"/>
        <pt x="225" y="0" on="1"/>
      </contour>
    </TTGlyph>
    <TTGlyph name="plusminus" xMin="16" yMin="0" xMax="575" yMax="511">
      <contour>
        <pt x="519" y="0" on="1"/>
        <pt x="16" y="0" on="1"/>
        <pt x="27" y="83" on="1"/>
        <pt x="530" y="83" on="1"/>
      </contour>
      <contour>
        <pt x="265" y="280" on="1"/>
        <pt x="51" y="280" on="1"/>
        <pt x="63" y="364" on="1"/>
        <pt x="277" y="364" on="1"/>
        <pt x="297" y="511" on="1"/>
        <pt x="380" y="511" on="1"/>
        <pt x="360" y="364" on="1"/>
        <pt x="575" y="364" on="1"/>
        <pt x="563" y="280" on="1"/>
        <pt x="348" y="280" on="1"/>
        <pt x="327" y="134" on="1"/>
        <pt x="244" y="134" on="1"/>
      </contour>
    </TTGlyph>
    <TTGlyph name="product" xMin="70" yMin="-98" xMax="783" yMax="708">
      <contour>
        <pt x="184" y="611" on="1"/>
        <pt x="70" y="611" on="1"/>
        <pt x="83" y="708" on="1"/>
        <pt x="783" y="708" on="1"/>
        <pt x="770" y="611" on="1"/>
        <pt x="655" y="611" on="1"/>
        <pt x="555" y="-98" on="1"/>
        <pt x="453" y="-98" on="1"/>
        <pt x="553" y="611" on="1"/>
        <pt x="286" y="611" on="1"/>
        <pt x="186" y="-98" on="1"/>
        <pt x="84" y="-98" on="1"/>
      </contour>
    </TTGlyph>
    <TTGlyph name="q" xMin="40" yMin="-180" xMax="530" yMax="521">
      <contour>
        <pt x="40" y="185" on="1"/>
        <pt x="40" y="304" on="0"/>
        <pt x="95" y="406" on="1"/>
        <pt x="123" y="458" on="0"/>
        <pt x="224" y="521" on="0"/>
        <pt x="291" y="521" on="1"/>
        <pt x="404" y="521" on="0"/>
        <pt x="450" y="430" on="1"/>
        <pt x="494" y="511" on="1"/>
        <pt x="530" y="511" on="1"/>
        <pt x="433" y="-180" on="1"/>
        <pt x="339" y="-180" on="1"/>
        <pt x="374" y="65" on="1"/>
        <pt x="310" y="-10" on="0"/>
        <pt x="209" y="-10" on="1"/>
        <pt x="134" y="-10" on="0"/>
        <pt x="40" y="92" on="0"/>
      </contour>
      <contour>
        <pt x="136" y="193" on="1"/>
        <pt x="136" y="124" on="0"/>
        <pt x="192" y="65" on="0"/>
        <pt x="291" y="65" on="0"/>
        <pt x="358" y="112" on="0"/>
        <pt x="375" y="152" on="1"/>
        <pt x="407" y="226" on="0"/>
        <pt x="407" y="317" on="1"/>
        <pt x="407" y="446" on="0"/>
        <pt x="298" y="446" on="1"/>
        <pt x="224" y="446" on="0"/>
        <pt x="136" y="317" on="0"/>
      </contour>
    </TTGlyph>
    <TTGlyph name="question" xMin="53" yMin="0" xMax="493" yMax="696">
      <contour>
        <pt x="151" y="458" on="1"/>
        <pt x="53" y="458" on="1"/>
        <pt x="53" y="566" on="0"/>
        <pt x="188" y="696" on="0"/>
        <pt x="303" y="696" on="1"/>
        <pt x="309" y="696" on="1"/>
        <pt x="362" y="696" on="0"/>
        <pt x="439" y="662" on="0"/>
        <pt x="458" y="634" on="1"/>
        <pt x="493" y="582" on="0"/>
        <pt x="493" y="474" on="0"/>
        <pt x="455" y="396" on="0"/>
        <pt x="400" y="346" on="0"/>
        <pt x="372" y="326" on="1"/>
        <pt x="304" y="274" on="0"/>
        <pt x="299" y="234" on="1"/>
        <pt x="293" y="185" on="1"/>
        <pt x="193" y="185" on="1"/>
        <pt x="202" y="249" on="1"/>
        <pt x="209" y="306" on="0"/>
        <pt x="276" y="355" on="1"/>
        <pt x="304" y="375" on="0"/>
        <pt x="331" y="396" on="1"/>
        <pt x="394" y="443" on="0"/>
        <pt x="394" y="510" on="1"/>
        <pt x="394" y="548" on="0"/>
        <pt x="344" y="607" on="0"/>
        <pt x="290" y="607" on="1"/>
        <pt x="218" y="607" on="0"/>
        <pt x="151" y="522" on="0"/>
      </contour>
      <contour>
        <pt x="269" y="0" on="1"/>
        <pt x="165" y="0" on="1"/>
        <pt x="180" y="111" on="1"/>
        <pt x="284" y="111" on="1"/>
      </contour>
    </TTGlyph>
    <TTGlyph name="questiondown" xMin="-7" yMin="-185" xMax="434" yMax="511">
      <contour>
        <pt x="9" y="-95" on="0"/>
        <pt x="-7" y="-41" on="0"/>
        <pt x="-7" y="36" on="0"/>
        <pt x="31" y="115" on="0"/>
        <pt x="86" y="165" on="0"/>
        <pt x="114" y="186" on="1"/>
        <pt x="183" y="238" on="0"/>
        <pt x="188" y="277" on="1"/>
        <pt x="194" y="326" on="1"/>
        <pt x="294" y="326" on="1"/>
        <pt x="285" y="262" on="1"/>
        <pt x="278" y="205" on="0"/>
        <pt x="210" y="156" on="1"/>
        <pt x="183" y="136" on="0"/>
        <pt x="156" y="116" on="1"/>
        <pt x="93" y="68" on="0"/>
        <pt x="93" y="1" on="1"/>
        <pt x="93" y="-38" on="0"/>
        <pt x="142" y="-96" on="0"/>
        <pt x="233" y="-96" on="0"/>
        <pt x="288" y="-71" on="0"/>
        <pt x="302" y="-52" on="1"/>
        <pt x="336" y="-6" on="0"/>
        <pt x="336" y="53" on="1"/>
        <pt x="434" y="53" on="1"/>
        <pt x="434" y="-47" on="0"/>
        <pt x="301" y="-185" on="0"/>
        <pt x="184" y="-185" on="1"/>
        <pt x="178" y="-185" on="1"/>
        <pt x="124" y="-185" on="0"/>
        <pt x="47" y="-151" on="0"/>
      </contour>
      <contour>
        <pt x="307" y="400" on="1"/>
        <pt x="203" y="400" on="1"/>
        <pt x="218" y="511" on="1"/>
        <pt x="322" y="511" on="1"/>
      </contour>
    </TTGlyph>
    <TTGlyph name="quotedbl" xMin="98" yMin="407" xMax="355" yMax="686">
      <contour>
        <pt x="139" y="407" on="1"/>
        <pt x="98" y="407" on="1"/>
        <pt x="98" y="539" on="1"/>
        <pt x="119" y="686" on="1"/>
        <pt x="201" y="686" on="1"/>
        <pt x="180" y="539" on="1"/>
        <pt x="173" y="515" on="0"/>
        <pt x="145" y="427" on="0"/>
      </contour>
      <contour>
        <pt x="292" y="407" on="1"/>
        <pt x="252" y="407" on="1"/>
        <pt x="252" y="539" on="1"/>
        <pt x="273" y="686" on="1"/>
        <pt x="355" y="686" on="1"/>
        <pt x="334" y="539" on="1"/>
        <pt x="308" y="460" on="0"/>
      </contour>
    </TTGlyph>
    <TTGlyph name="quotedblbase" xMin="24" yMin="-124" xMax="286" yMax="111">
      <contour>
        <pt x="76" y="-124" on="1"/>
        <pt x="24" y="-124" on="1"/>
        <pt x="68" y="0" on="1"/>
        <pt x="27" y="0" on="1"/>
        <pt x="43" y="111" on="1"/>
        <pt x="144" y="111" on="1"/>
        <pt x="132" y="26" on="1"/>
      </contour>
      <contour>
        <pt x="218" y="-124" on="1"/>
        <pt x="166" y="-124" on="1"/>
        <pt x="210" y="0" on="1"/>
        <pt x="169" y="0" on="1"/>
        <pt x="185" y="111" on="1"/>
        <pt x="286" y="111" on="1"/>
        <pt x="274" y="26" on="1"/>
      </contour>
    </TTGlyph>
    <TTGlyph name="quotedblleft" xMin="83" yMin="451" xMax="345" yMax="686">
      <contour>
        <pt x="184" y="451" on="1"/>
        <pt x="83" y="451" on="1"/>
        <pt x="95" y="536" on="1"/>
        <pt x="151" y="686" on="1"/>
        <pt x="203" y="686" on="1"/>
        <pt x="159" y="562" on="1"/>
        <pt x="200" y="562" on="1"/>
      </contour>
      <contour>
        <pt x="326" y="451" on="1"/>
        <pt x="225" y="451" on="1"/>
        <pt x="237" y="536" on="1"/>
        <pt x="293" y="686" on="1"/>
        <pt x="345" y="686" on="1"/>
        <pt x="301" y="562" on="1"/>
        <pt x="342" y="562" on="1"/>
      </contour>
    </TTGlyph>
    <TTGlyph name="quotedblright" xMin="96" yMin="451" xMax="358" yMax="686">
      <contour>
        <pt x="148" y="451" on="1"/>
        <pt x="96" y="451" on="1"/>
        <pt x="140" y="575" on="1"/>
        <pt x="99" y="575" on="1"/>
        <pt x="115" y="686" on="1"/>
        <pt x="216" y="686" on="1"/>
        <pt x="204" y="601" on="1"/>
      </contour>
      <contour>
        <pt x="290" y="451" on="1"/>
        <pt x="238" y="451" on="1"/>
        <pt x="282" y="575" on="1"/>
        <pt x="241" y="575" on="1"/>
        <pt x="257" y="686" on="1"/>
        <pt x="358" y="686" on="1"/>
        <pt x="346" y="601" on="1"/>
      </contour>
    </TTGlyph>
    <TTGlyph name="quoteleft" xMin="83" yMin="451" xMax="203" yMax="686">
      <contour>
        <pt x="184" y="451" on="1"/>
        <pt x="83" y="451" on="1"/>
        <pt x="95" y="536" on="1"/>
        <pt x="151" y="686" on="1"/>
        <pt x="203" y="686" on="1"/>
        <pt x="159" y="562" on="1"/>
        <pt x="200" y="562" on="1"/>
      </contour>
    </TTGlyph>
</ttFont>
